{"glyphs":{"0":{"ha":849,"x_min":0,"x_max":0,"o":"m 336 -19 b 65 306 122 -19 29 107 l 132 686 b 513 1006 167 885 303 1006 b 785 681 724 1006 819 878 l 717 300 b 336 -19 682 100 543 -19 m 349 75 b 617 306 494 75 592 164 l 683 686 b 500 911 708 829 642 911 b 233 681 353 911 258 822 l 165 300 b 349 75 140 157 206 75 "},"1":{"ha":547,"x_min":0,"x_max":0,"o":"m 244 0 b 224 31 224 0 221 10 l 371 863 l 157 754 b 125 764 138 744 132 747 l 110 804 b 125 839 103 821 106 829 l 385 975 b 426 986 400 983 404 986 l 467 986 b 489 956 488 986 492 976 l 324 24 b 293 0 319 4 311 0 l 244 0 "},"2":{"ha":799,"x_min":0,"x_max":0,"o":"m 26 0 b 7 32 6 0 4 13 l 28 146 b 336 460 60 335 196 403 b 650 757 510 529 650 564 b 493 911 650 854 592 911 b 231 746 369 911 290 856 b 199 735 222 731 213 728 l 153 751 b 143 789 135 760 135 772 b 499 1006 215 929 319 1006 b 756 767 665 1006 756 906 b 399 383 756 532 608 468 b 139 156 265 332 165 278 b 128 94 135 136 132 115 l 613 94 b 633 64 635 94 638 83 l 628 26 b 600 0 624 7 617 0 l 26 0 "},"3":{"ha":813,"x_min":0,"x_max":0,"o":"m 336 -19 b 39 229 136 -19 57 69 b 57 258 36 247 39 253 l 106 274 b 135 249 124 281 131 271 b 339 75 146 133 199 75 b 592 321 500 75 592 174 b 447 458 592 401 546 458 l 274 458 b 254 489 251 458 250 472 l 260 526 b 288 551 264 547 269 551 l 447 551 b 646 774 574 551 646 649 b 485 911 646 861 592 911 b 226 731 353 911 281 851 b 192 721 218 713 210 714 l 153 733 b 140 774 132 742 131 754 b 493 1006 210 924 306 1006 b 749 789 657 1006 749 925 b 586 510 749 657 690 554 b 693 328 656 481 693 413 b 336 -19 693 117 556 -19 "},"4":{"ha":826,"x_min":0,"x_max":0,"o":"m 472 0 b 450 29 453 0 446 7 l 492 268 l 40 268 b 17 296 21 268 14 274 l 22 328 b 39 364 25 346 29 354 l 596 979 b 636 997 610 994 617 997 l 690 997 b 711 965 711 997 715 986 l 604 358 l 718 358 b 740 328 739 358 743 349 l 735 292 b 706 268 731 271 726 268 l 588 268 l 546 26 b 517 0 542 10 536 0 l 472 0 m 507 358 l 596 854 l 149 358 "},"5":{"ha":790,"x_min":0,"x_max":0,"o":"m 321 -19 b 26 207 139 -19 57 63 b 42 236 22 225 26 232 l 89 251 b 119 231 107 257 114 253 b 331 75 138 135 199 75 b 582 346 481 75 582 190 b 385 501 582 450 532 501 l 142 501 b 118 539 117 501 113 517 l 228 946 b 275 986 236 978 244 986 l 739 986 b 760 956 760 986 763 974 l 753 915 b 724 892 749 894 740 892 l 311 892 l 233 596 l 407 596 b 686 360 615 596 686 503 b 321 -19 686 133 535 -19 "},"6":{"ha":843,"x_min":0,"x_max":0,"o":"m 343 -19 b 60 243 156 -19 60 79 b 126 663 60 301 71 347 b 513 1006 167 889 300 1006 b 794 789 685 1006 771 929 b 779 760 797 772 794 764 l 728 747 b 700 769 707 740 704 751 b 510 911 681 864 624 911 b 229 661 356 911 260 829 l 206 532 b 454 579 249 549 338 579 b 729 358 644 579 729 506 b 343 -19 729 131 579 -19 m 349 75 b 626 344 525 75 626 185 b 439 488 626 440 568 488 b 190 439 314 488 226 453 b 163 254 167 315 163 286 b 349 75 163 139 224 75 "},"7":{"ha":701,"x_min":0,"x_max":0,"o":"m 125 0 b 113 31 104 0 103 14 l 621 892 l 151 892 b 131 922 132 892 126 901 l 138 961 b 169 986 142 982 150 986 l 728 986 b 747 956 747 986 751 976 l 743 926 b 729 888 739 910 738 904 l 221 22 b 178 0 208 3 201 0 l 125 0 "},"8":{"ha":835,"x_min":0,"x_max":0,"o":"m 329 -19 b 35 200 135 -19 35 56 b 289 513 35 338 126 456 b 151 722 197 557 150 621 b 499 1006 154 897 283 1006 b 775 790 678 1006 775 929 b 549 503 775 661 690 554 b 713 278 664 453 713 383 b 329 -19 713 93 569 -19 m 457 540 b 675 772 589 574 675 663 b 494 917 675 867 614 917 b 254 732 349 917 254 843 b 457 540 254 635 324 572 m 339 69 b 607 271 499 69 607 144 b 385 463 607 376 533 424 b 139 217 240 432 139 332 b 339 69 139 119 208 69 "},"9":{"ha":843,"x_min":0,"x_max":0,"o":"m 329 -19 b 47 197 161 -19 72 54 b 63 226 46 214 46 222 l 113 239 b 139 218 131 244 136 235 b 333 75 160 121 219 75 b 614 322 489 75 585 157 l 638 454 b 390 407 568 426 478 407 b 114 632 200 407 114 485 b 493 1006 114 861 257 1006 b 782 744 678 1006 782 910 b 715 321 782 685 772 638 b 329 -19 674 96 543 -19 m 406 499 b 653 547 531 499 615 533 b 681 735 678 672 681 700 b 490 911 681 850 614 911 b 217 647 317 911 217 811 b 406 499 217 550 275 499 "}," ":{"ha":326,"x_min":0,"x_max":0,"o":""},"!":{"ha":324,"x_min":0,"x_max":0,"o":"m 106 235 b 83 263 88 235 81 244 l 203 1006 b 229 1028 206 1025 210 1028 l 278 1028 b 301 1000 296 1028 306 1018 l 157 257 b 131 235 154 238 150 235 l 106 235 m 71 -10 b 22 50 28 -10 14 6 l 25 60 b 88 114 33 103 46 114 l 96 114 b 144 54 139 114 153 96 l 143 44 b 81 -10 135 1 122 -10 l 71 -10 "},"\"":{"ha":446,"x_min":0,"x_max":0,"o":"m 156 658 b 138 683 136 658 133 664 l 188 967 b 215 986 192 985 196 986 l 256 986 b 274 960 275 986 278 979 l 210 678 b 181 658 206 658 197 658 l 156 658 m 313 658 b 294 683 293 658 290 664 l 344 967 b 372 986 349 985 353 986 l 413 986 b 431 960 431 986 435 979 l 367 678 b 338 658 363 658 354 658 l 313 658 "},"#":{"ha":915,"x_min":0,"x_max":0,"o":"m 79 0 b 65 26 64 0 58 10 l 172 267 l 46 267 b 29 293 29 267 22 276 l 49 331 b 81 350 58 347 63 350 l 210 350 l 314 582 l 189 582 b 172 608 172 582 164 592 l 192 646 b 224 665 201 663 206 665 l 353 665 l 450 886 b 479 907 457 904 463 907 l 525 907 b 540 881 542 907 547 897 l 444 665 l 640 665 l 736 886 b 765 907 744 904 749 907 l 811 907 b 828 881 828 907 835 897 l 732 665 l 860 665 b 875 638 876 665 883 656 l 856 601 b 826 582 847 585 842 582 l 692 582 l 589 350 l 717 350 b 732 322 733 350 740 340 l 713 286 b 682 267 704 269 699 267 l 549 267 l 442 21 b 413 0 435 3 429 0 l 367 0 b 351 26 350 0 344 10 l 458 267 l 261 267 l 154 21 b 125 0 147 3 143 0 l 79 0 m 497 350 l 601 582 l 406 582 l 301 350 "},"$":{"ha":800,"x_min":0,"x_max":0,"o":"m 264 -101 b 247 -72 246 -101 243 -92 l 265 15 b 40 238 132 31 69 111 b 53 278 33 263 33 272 l 99 293 b 126 275 114 297 121 293 b 339 99 156 164 211 99 b 596 297 497 99 596 169 b 396 456 596 401 508 439 b 125 703 247 479 125 524 b 429 976 125 867 239 967 l 447 1065 b 475 1088 450 1083 458 1088 l 528 1088 b 546 1058 546 1088 549 1078 l 528 972 b 754 760 660 957 726 882 b 743 725 761 739 758 731 l 696 711 b 669 725 682 707 674 711 b 457 889 646 831 586 889 b 222 707 310 889 222 824 b 419 540 222 579 310 558 b 693 306 582 513 693 454 b 364 11 693 125 565 22 l 344 -79 b 317 -101 342 -97 333 -101 l 264 -101 "},"%":{"ha":1101,"x_min":0,"x_max":0,"o":"m 279 499 b 104 704 144 499 82 578 l 124 806 b 358 1007 144 933 231 1007 b 532 799 493 1007 554 926 l 514 699 b 279 499 492 572 407 499 m 114 0 b 101 31 96 0 90 15 l 899 965 b 949 986 917 986 921 986 l 990 986 b 1001 957 1008 986 1015 972 l 204 22 b 151 0 186 0 182 0 l 114 0 m 285 575 b 436 710 369 575 421 626 l 453 801 b 351 929 467 885 431 929 b 200 796 267 929 215 878 l 183 703 b 285 575 169 621 207 575 m 743 -21 b 569 185 610 -21 547 58 l 588 286 b 822 488 610 414 694 488 b 996 279 957 488 1018 407 l 978 179 b 743 -21 956 53 872 -21 m 750 56 b 901 190 835 56 886 107 l 918 282 b 817 410 932 365 896 410 b 665 276 732 410 681 358 l 649 183 b 750 56 635 101 671 56 "},"&":{"ha":899,"x_min":0,"x_max":0,"o":"m 246 -19 b 26 199 111 -19 26 68 b 282 538 26 365 135 464 b 204 731 243 592 204 656 b 467 1006 204 893 310 1006 b 676 817 589 1006 676 932 b 431 517 676 664 569 585 l 413 507 l 594 268 l 697 360 b 724 357 708 371 713 369 l 750 325 b 747 294 760 314 760 306 l 640 199 l 769 24 b 757 0 779 8 772 0 l 694 0 b 661 17 676 0 669 3 l 571 136 b 246 -19 425 1 338 -19 m 396 588 b 590 807 499 633 590 694 b 461 922 590 879 536 922 b 290 733 357 922 290 844 b 363 569 290 675 324 621 m 253 69 b 524 206 328 69 401 96 l 328 464 b 122 207 213 410 122 333 b 253 69 122 126 174 69 "},"'":{"ha":292,"x_min":0,"x_max":0,"o":"m 158 658 b 140 683 139 658 136 664 l 190 967 b 218 986 194 985 199 986 l 258 986 b 276 960 278 986 281 979 l 213 678 b 183 658 208 658 200 658 l 158 658 "},"(":{"ha":354,"x_min":0,"x_max":0,"o":"m 107 -333 b 11 -17 19 -278 -21 -190 l 138 704 b 339 1017 169 879 229 960 b 369 1000 358 1025 363 1015 l 388 968 b 375 932 396 953 390 942 b 231 699 303 889 254 825 l 104 -25 b 157 -261 81 -151 101 -221 b 165 -292 171 -272 174 -279 l 139 -326 b 107 -333 129 -339 118 -340 "},")":{"ha":350,"x_min":0,"x_max":0,"o":"m -44 -335 b -75 -318 -62 -343 -67 -332 l -92 -286 b -79 -249 -100 -271 -94 -260 b 64 -17 -8 -206 42 -143 l 192 707 b 139 944 214 833 194 903 b 131 975 124 954 121 963 l 157 1008 b 189 1017 167 1021 178 1022 b 285 699 275 960 315 874 l 157 -22 b -44 -335 126 -196 65 -276 "},"*":{"ha":514,"x_min":0,"x_max":0,"o":"m 363 583 b 342 594 351 576 346 583 l 296 700 l 211 586 b 190 583 204 576 197 576 l 168 603 b 167 626 160 611 158 617 l 261 736 l 161 771 b 147 794 147 772 143 782 l 161 822 b 185 826 167 833 174 832 l 283 778 l 303 921 b 322 935 304 933 308 935 l 346 935 b 360 914 360 935 363 928 l 331 779 l 446 829 b 465 817 457 833 464 829 l 471 788 b 457 768 472 776 469 771 l 335 735 l 390 622 b 388 599 396 613 399 606 l 363 583 "},"+":{"ha":767,"x_min":0,"x_max":0,"o":"m 303 126 b 279 157 283 126 276 136 l 324 410 l 97 410 b 75 440 78 410 71 419 l 81 475 b 108 499 83 494 89 499 l 339 499 l 385 757 b 413 782 389 778 393 782 l 450 782 b 474 751 469 782 476 772 l 428 499 l 656 499 b 679 468 676 499 683 489 l 672 435 b 646 410 669 414 665 410 l 413 410 l 367 151 b 339 126 364 131 360 126 l 303 126 "},",":{"ha":289,"x_min":0,"x_max":0,"o":"m -44 -168 b -62 -146 -61 -168 -67 -161 l 25 85 b 65 113 33 110 42 113 l 107 113 b 126 79 132 113 138 100 l 8 -146 b -25 -168 -1 -164 -7 -168 l -44 -168 "},"-":{"ha":571,"x_min":0,"x_max":0,"o":"m 101 322 b 79 354 82 322 75 333 l 85 390 b 113 414 89 410 93 414 l 426 414 b 449 383 444 414 451 404 l 443 347 b 415 322 438 326 435 322 l 101 322 "},".":{"ha":294,"x_min":0,"x_max":0,"o":"m 57 -10 b 8 50 14 -10 0 6 l 11 60 b 74 114 19 103 32 114 l 82 114 b 131 54 125 114 139 96 l 129 44 b 67 -10 121 1 108 -10 l 57 -10 "},"/":{"ha":603,"x_min":0,"x_max":0,"o":"m -19 -83 b -36 -57 -40 -83 -43 -72 l 525 965 b 560 986 536 985 540 986 l 607 986 b 624 960 625 986 632 976 l 64 -62 b 26 -83 53 -81 46 -83 l -19 -83 "},":":{"ha":326,"x_min":0,"x_max":0,"o":"m 178 554 b 129 614 135 554 121 569 l 132 624 b 194 678 140 667 153 678 l 203 678 b 251 617 246 678 260 660 l 250 608 b 188 554 242 565 229 554 l 178 554 m 79 -10 b 31 50 36 -10 22 6 l 32 60 b 94 114 40 103 53 114 l 104 114 b 153 54 147 114 160 96 l 150 44 b 88 -10 142 1 129 -10 l 79 -10 "},";":{"ha":365,"x_min":0,"x_max":0,"o":"m 200 554 b 151 614 157 554 143 569 l 153 624 b 217 678 163 667 174 678 l 225 678 b 274 617 268 678 282 660 l 272 608 b 208 554 263 565 251 554 l 200 554 m -1 -168 b -19 -146 -18 -168 -24 -161 l 68 85 b 108 113 76 110 85 113 l 150 113 b 171 79 176 113 181 100 l 51 -146 b 18 -168 42 -164 36 -168 l -1 -168 "},"<":{"ha":663,"x_min":0,"x_max":0,"o":"m 75 406 b 58 443 61 417 56 424 l 63 469 b 88 504 67 489 71 494 l 582 775 b 606 750 604 788 611 775 l 599 711 b 569 665 594 679 590 676 l 182 454 l 181 450 l 490 235 b 507 186 507 224 513 217 l 500 150 b 474 135 496 126 490 122 "},"=":{"ha":796,"x_min":0,"x_max":0,"o":"m 143 544 b 119 576 122 544 115 556 l 125 613 b 156 638 129 633 135 638 l 686 638 b 713 607 707 638 715 626 l 706 569 b 676 544 701 549 697 544 l 143 544 m 96 271 b 71 301 75 271 68 281 l 76 338 b 107 363 81 358 86 363 l 639 363 b 664 332 660 363 668 353 l 657 296 b 628 271 653 275 649 271 l 96 271 "},">":{"ha":664,"x_min":0,"x_max":0,"o":"m 69 132 b 43 157 46 119 39 132 l 50 193 b 79 238 54 224 58 226 l 468 450 l 468 454 l 161 668 b 142 717 143 679 136 686 l 149 757 b 176 772 153 781 160 785 l 574 500 b 592 464 589 490 594 483 l 586 438 b 561 403 583 418 579 413 l 69 132 "},"?":{"ha":756,"x_min":0,"x_max":0,"o":"m 276 217 b 257 249 258 217 253 225 b 432 496 282 386 354 442 b 629 743 513 550 604 599 b 465 938 649 856 593 938 b 204 761 339 938 258 865 b 169 750 192 744 186 744 l 126 765 b 117 804 110 772 106 782 b 472 1028 186 935 296 1028 b 735 735 672 1028 763 896 b 488 424 703 558 592 494 b 346 236 424 382 363 333 b 318 217 343 219 338 217 l 276 217 m 256 -10 b 207 50 214 -10 199 6 b 210 60 208 53 208 57 b 272 114 218 103 231 114 l 281 114 b 329 54 324 114 338 96 l 328 44 b 265 -10 319 1 307 -10 l 256 -10 "},"@":{"ha":1224,"x_min":0,"x_max":0,"o":"m 497 -183 b 61 358 160 -183 0 17 l 79 458 b 697 1006 138 794 364 1006 b 1126 451 1040 1006 1185 781 l 1108 353 b 835 63 1074 157 953 63 b 750 121 779 63 758 83 b 508 69 704 101 621 69 b 315 301 349 69 290 158 l 353 514 b 617 740 378 657 463 740 b 839 696 721 740 799 714 b 876 629 874 681 883 667 l 797 186 b 838 133 790 144 810 133 b 1036 358 917 133 1007 199 l 1054 460 b 696 938 1106 751 983 938 b 154 453 406 938 207 753 l 136 351 b 500 -115 82 49 215 -115 b 783 -76 632 -115 760 -82 b 803 -89 799 -74 804 -76 l 796 -128 b 779 -149 794 -142 790 -144 b 497 -183 757 -151 650 -183 m 521 144 b 717 189 628 144 694 178 l 792 604 b 775 643 796 625 794 635 b 624 667 743 654 686 667 b 432 507 511 667 450 607 l 394 297 b 521 144 376 196 413 144 "},"A":{"ha":871,"x_min":0,"x_max":0,"o":"m -33 0 b -49 31 -53 0 -58 13 l 458 969 b 494 990 469 989 475 990 l 546 990 b 575 965 564 990 572 982 l 751 25 b 733 0 756 7 753 0 l 683 0 b 644 28 656 0 646 8 l 597 286 l 200 286 l 58 22 b 14 0 49 1 42 0 l -33 0 m 583 374 l 515 775 b 508 894 510 814 507 843 l 504 894 b 453 768 493 864 478 821 l 244 374 "},"B":{"ha":874,"x_min":0,"x_max":0,"o":"m 67 0 b 44 31 42 0 42 10 l 208 961 b 236 986 213 979 219 986 l 565 986 b 807 779 726 986 807 913 b 639 511 807 656 754 560 l 638 507 b 758 324 710 481 758 424 b 424 0 758 131 629 0 l 67 0 m 504 546 b 704 753 628 546 703 632 b 550 892 708 844 658 892 l 299 892 l 238 546 m 422 94 b 660 322 567 94 660 190 b 508 458 660 411 604 458 l 222 458 l 157 94 "},"C":{"ha":864,"x_min":0,"x_max":0,"o":"m 365 -19 b 68 333 135 -19 29 115 l 126 660 b 529 1006 164 876 301 1006 b 838 761 729 1006 814 919 b 821 732 842 744 838 736 l 772 718 b 742 739 754 713 747 719 b 524 911 728 854 664 911 b 228 656 353 911 256 814 l 168 325 b 375 76 142 167 213 76 b 654 263 522 75 597 143 b 690 272 663 278 672 279 l 733 257 b 746 217 750 250 757 240 b 365 -19 674 64 561 -19 "},"D":{"ha":888,"x_min":0,"x_max":0,"o":"m 65 0 b 44 31 46 0 40 7 l 208 961 b 240 986 213 981 222 986 l 506 986 b 817 617 750 986 857 843 l 772 364 b 340 0 732 138 582 0 l 65 0 m 349 94 b 671 369 524 94 640 197 l 715 624 b 499 892 746 794 678 892 l 297 892 l 158 94 "},"E":{"ha":776,"x_min":0,"x_max":0,"o":"m 65 0 b 44 29 46 0 40 8 l 208 961 b 242 986 213 982 222 986 l 750 986 b 772 956 774 986 775 976 l 765 917 b 738 892 761 897 754 892 l 297 892 l 238 547 l 615 547 b 638 519 635 547 640 540 l 629 478 b 601 453 626 458 618 453 l 221 453 l 158 94 l 607 94 b 631 67 629 94 635 88 l 624 25 b 596 0 619 6 611 0 l 65 0 "},"F":{"ha":744,"x_min":0,"x_max":0,"o":"m 65 0 b 44 31 44 0 40 10 l 208 961 b 242 986 213 982 222 986 l 742 986 b 764 958 761 986 768 979 l 757 915 b 729 892 753 897 747 892 l 297 892 l 235 533 l 600 533 b 622 506 619 533 626 526 l 614 463 b 585 438 611 444 603 438 l 218 438 l 146 24 b 119 0 142 4 139 0 l 65 0 "},"G":{"ha":889,"x_min":0,"x_max":0,"o":"m 367 -19 b 68 333 136 -19 29 115 l 126 660 b 531 1006 165 882 303 1006 b 835 774 718 1006 811 928 b 819 732 843 747 839 738 l 771 718 b 743 739 758 714 749 719 b 526 911 731 854 668 911 b 226 654 354 911 256 815 l 169 328 b 378 75 142 169 213 75 b 674 313 542 75 647 165 l 692 421 l 453 421 b 431 451 435 421 426 429 l 438 490 b 469 515 440 510 449 515 l 779 515 b 801 482 799 515 806 506 l 771 308 b 367 -19 736 107 586 -19 "},"H":{"ha":926,"x_min":0,"x_max":0,"o":"m 67 0 b 44 31 47 0 40 4 l 208 960 b 239 986 213 981 221 986 l 286 986 b 310 957 310 986 313 978 l 238 547 l 708 547 l 781 961 b 814 986 785 982 794 986 l 861 986 b 882 957 882 986 886 978 l 719 29 b 690 0 715 8 710 0 l 640 0 b 617 29 619 0 613 7 l 692 453 l 221 453 l 144 25 b 118 0 142 10 138 0 l 67 0 "},"I":{"ha":353,"x_min":0,"x_max":0,"o":"m 65 0 b 44 31 46 0 40 7 l 208 963 b 242 986 213 985 225 986 l 288 986 b 310 957 306 986 314 981 l 144 25 b 117 0 142 7 133 0 l 65 0 "},"J":{"ha":772,"x_min":0,"x_max":0,"o":"m 261 -19 b 3 246 88 -19 14 79 b 19 276 0 263 3 272 l 69 290 b 99 268 86 296 93 292 b 271 76 103 143 151 76 b 519 313 410 76 494 169 l 635 963 b 664 986 639 982 649 986 l 715 986 b 736 957 735 986 739 976 l 621 307 b 261 -19 585 104 463 -19 "},"K":{"ha":826,"x_min":0,"x_max":0,"o":"m 67 0 b 44 31 46 0 40 7 l 208 963 b 238 986 213 982 222 986 l 289 986 b 310 957 308 986 313 978 l 236 547 l 365 547 b 390 546 374 547 383 547 l 733 965 b 781 986 749 985 754 986 l 839 986 b 851 957 860 986 861 971 l 485 524 b 599 369 547 503 576 450 l 697 26 b 681 0 701 10 701 0 l 624 0 b 590 26 599 0 594 7 l 506 336 b 367 453 482 422 457 453 l 221 453 l 144 24 b 117 0 140 4 131 0 l 67 0 "},"L":{"ha":704,"x_min":0,"x_max":0,"o":"m 64 0 b 44 31 44 0 40 10 l 208 961 b 240 986 213 982 221 986 l 290 986 b 310 957 308 986 313 978 l 157 94 l 571 94 b 593 67 593 94 597 85 l 586 24 b 558 0 583 7 575 0 l 64 0 "},"M":{"ha":1092,"x_min":0,"x_max":0,"o":"m 65 0 b 44 29 44 0 40 8 l 208 961 b 240 986 213 982 221 986 l 283 986 b 315 961 306 986 310 978 l 518 343 l 938 965 b 976 986 950 983 957 986 l 1028 986 b 1049 956 1047 986 1051 976 l 883 26 b 851 0 879 6 874 0 l 810 0 b 786 29 793 0 782 3 l 886 594 b 944 836 900 669 915 743 l 940 836 b 807 619 893 753 854 689 l 551 251 b 519 232 542 236 535 232 l 488 232 b 458 256 471 232 464 239 l 331 629 b 274 836 307 697 289 754 l 268 836 b 239 589 263 743 253 668 l 140 25 b 110 0 135 4 128 0 l 65 0 "},"N":{"ha":939,"x_min":0,"x_max":0,"o":"m 64 0 b 44 29 44 0 40 8 l 208 961 b 240 986 213 982 221 986 l 293 986 b 318 969 308 986 315 978 l 590 349 b 664 140 622 272 642 210 l 669 140 b 699 403 674 224 681 306 l 797 963 b 831 986 800 982 810 986 l 876 986 b 896 956 894 986 899 978 l 732 25 b 703 0 728 10 724 0 l 647 0 b 622 17 633 0 626 6 l 346 651 b 279 846 317 721 296 785 l 275 846 b 243 600 268 768 260 689 l 142 25 b 111 0 138 4 131 0 l 64 0 "},"O":{"ha":901,"x_min":0,"x_max":0,"o":"m 368 -19 b 68 333 133 -19 31 115 l 126 660 b 533 1006 164 876 301 1006 b 833 653 761 1006 871 872 l 775 326 b 368 -19 738 108 597 -19 m 375 75 b 675 333 540 75 646 168 l 732 660 b 526 911 760 822 686 911 b 226 653 358 911 256 814 l 169 328 b 375 75 142 168 213 75 "},"P":{"ha":844,"x_min":0,"x_max":0,"o":"m 67 0 b 44 29 43 0 42 8 l 208 963 b 242 986 213 981 219 986 l 560 986 b 818 696 742 986 836 882 b 474 369 800 494 668 369 l 206 369 l 146 26 b 117 0 142 7 135 0 l 67 0 m 469 465 b 717 688 607 465 699 546 b 547 892 733 819 672 892 l 297 892 l 224 465 "},"Q":{"ha":949,"x_min":0,"x_max":0,"o":"m 722 -92 b 689 -83 707 -101 697 -99 l 606 32 b 396 -19 549 -3 474 -19 b 99 333 163 -19 61 117 l 157 660 b 563 1006 194 876 335 1006 b 864 653 794 1006 903 869 l 807 326 b 689 88 789 228 750 146 l 771 -29 b 764 -65 781 -44 781 -54 l 722 -92 m 406 75 b 706 333 572 75 678 172 l 764 660 b 556 911 792 821 717 911 b 257 653 388 911 286 814 l 200 326 b 406 75 172 165 244 75 "},"R":{"ha":875,"x_min":0,"x_max":0,"o":"m 64 0 b 44 31 42 0 42 13 l 208 961 b 240 986 213 982 221 986 l 593 986 b 824 721 750 986 840 886 b 565 433 807 561 713 458 b 636 329 603 413 624 375 l 721 26 b 706 0 726 6 722 0 l 654 0 b 615 26 622 0 619 7 l 539 296 b 396 417 515 385 486 417 l 214 417 l 146 26 b 115 0 142 6 135 0 l 64 0 m 504 507 b 721 715 622 507 706 585 b 572 892 736 826 679 892 l 297 892 l 231 507 "},"S":{"ha":850,"x_min":0,"x_max":0,"o":"m 346 -19 b 32 210 171 -19 68 50 b 44 253 24 236 24 246 l 94 269 b 124 250 111 274 118 269 b 357 76 153 128 229 76 b 631 271 518 76 615 146 b 419 451 650 407 549 433 b 126 721 249 476 107 529 b 492 1006 143 897 285 1006 b 807 789 665 1006 764 939 b 793 753 814 767 811 758 l 744 739 b 715 751 728 733 721 736 b 486 908 683 861 614 908 b 231 724 343 908 246 840 b 446 542 211 590 315 561 b 735 278 631 513 756 464 b 346 -19 717 88 576 -19 "},"T":{"ha":738,"x_min":0,"x_max":0,"o":"m 258 0 b 236 29 236 0 233 10 l 388 892 l 135 892 b 113 922 114 892 107 899 l 119 961 b 151 986 124 982 132 986 l 763 986 b 783 956 783 986 788 978 l 776 915 b 746 892 772 894 765 892 l 490 892 l 338 24 b 308 0 333 6 325 0 l 258 0 "},"U":{"ha":928,"x_min":0,"x_max":0,"o":"m 378 -19 b 90 339 144 -19 51 117 l 201 963 b 232 986 206 982 215 986 l 279 986 b 301 957 301 986 304 978 l 192 333 b 385 75 164 172 226 75 b 681 339 553 75 651 175 l 790 963 b 822 986 794 983 807 986 l 871 986 b 892 957 890 986 894 978 l 782 333 b 378 -19 742 111 604 -19 "},"V":{"ha":844,"x_min":0,"x_max":0,"o":"m 308 0 b 281 26 290 0 282 8 l 119 963 b 138 986 117 979 121 986 l 197 986 b 225 958 219 986 222 978 l 344 231 b 354 119 350 193 353 157 l 360 119 b 408 236 372 151 386 190 l 782 964 b 818 986 790 985 800 986 l 878 986 b 892 957 897 986 901 974 l 401 21 b 367 0 392 3 385 0 l 308 0 "},"W":{"ha":1221,"x_min":0,"x_max":0,"o":"m 238 0 b 207 26 219 0 207 7 l 133 963 b 154 986 132 981 135 986 l 211 986 b 240 958 233 986 239 979 l 285 290 b 283 143 288 247 288 196 l 289 143 b 346 296 306 199 328 250 l 636 949 b 674 971 646 969 654 971 l 717 971 b 749 943 738 971 749 963 l 806 288 b 808 143 808 240 810 192 l 814 143 b 865 293 828 197 847 247 l 1149 964 b 1181 986 1156 983 1158 986 l 1236 986 b 1253 956 1257 986 1260 975 l 850 21 b 815 0 843 1 833 0 l 763 0 b 731 26 743 0 732 7 l 675 696 b 672 829 672 738 671 783 l 668 829 b 615 690 654 785 633 733 l 324 21 b 288 0 315 1 307 0 l 238 0 "},"X":{"ha":833,"x_min":0,"x_max":0,"o":"m -32 0 b -42 32 -53 0 -54 15 l 351 503 l 135 963 b 149 986 131 976 132 986 l 214 986 b 251 960 239 986 244 982 l 429 582 l 743 965 b 783 986 757 986 763 986 l 851 986 b 865 957 871 986 875 971 l 483 504 l 708 28 b 688 0 715 11 710 0 l 629 0 b 593 26 606 0 600 6 l 404 425 l 79 22 b 35 0 67 4 54 0 l -32 0 "},"Y":{"ha":851,"x_min":0,"x_max":0,"o":"m 311 0 b 293 31 292 0 289 10 l 358 401 l 124 961 b 139 986 118 976 119 986 l 196 986 b 236 960 226 986 231 979 l 426 499 l 779 964 b 828 986 793 985 797 986 l 882 986 b 896 956 901 986 906 971 l 461 400 l 393 25 b 363 0 389 4 382 0 l 311 0 "},"Z":{"ha":767,"x_min":0,"x_max":0,"o":"m 6 0 b -18 29 -18 0 -22 8 l -11 69 b 1 101 -8 82 -7 90 l 643 892 l 167 892 b 144 922 143 892 140 901 l 151 961 b 182 986 156 982 163 986 l 756 986 b 776 956 775 986 781 976 l 769 917 b 757 886 767 904 764 896 l 115 96 l 610 96 b 632 65 632 96 636 86 l 625 25 b 593 0 621 4 613 0 l 6 0 "},"[":{"ha":371,"x_min":0,"x_max":0,"o":"m -10 -354 b -32 -324 -31 -354 -36 -346 l 204 1015 b 232 1038 208 1036 211 1038 l 400 1038 b 422 1010 421 1038 426 1031 l 417 974 b 390 953 413 953 411 953 l 285 953 l 69 -268 l 171 -268 b 192 -296 192 -268 196 -276 l 185 -332 b 158 -354 182 -353 179 -354 l -10 -354 "},"\\":{"ha":565,"x_min":0,"x_max":0,"o":"m 331 -83 b 311 -60 315 -83 313 -75 l 144 968 b 163 986 143 982 147 986 l 218 986 b 240 963 235 986 238 979 l 406 -64 b 388 -83 407 -76 404 -83 l 331 -83 "},"]":{"ha":371,"x_min":0,"x_max":0,"o":"m -82 -354 b -104 -326 -103 -354 -108 -347 l -97 -289 b -72 -268 -93 -269 -93 -268 l 32 -268 l 249 953 l 149 953 b 126 981 128 953 122 960 l 132 1017 b 158 1038 136 1038 138 1038 l 328 1038 b 351 1010 349 1038 354 1031 l 114 -332 b 88 -354 110 -353 108 -354 l -82 -354 "},"^":{"ha":815,"x_min":0,"x_max":0,"o":"m 150 722 b 138 756 126 722 119 736 l 460 1100 b 497 1119 474 1115 482 1119 l 529 1119 b 561 1094 549 1119 551 1110 l 765 750 b 751 722 776 731 775 722 l 704 722 b 658 747 675 722 669 728 l 501 1024 l 497 1024 l 246 743 b 194 722 226 722 222 722 l 150 722 "},"_":{"ha":694,"x_min":0,"x_max":0,"o":"m -19 -92 b -43 -61 -40 -92 -46 -82 l -36 -25 b -6 0 -33 -4 -26 0 l 524 0 b 547 -31 544 0 550 -10 l 542 -67 b 510 -92 536 -87 531 -92 l -19 -92 "},"`":{"ha":393,"x_min":0,"x_max":0,"o":"m 111 953 b 108 983 97 958 93 969 l 135 1010 b 181 1006 153 1026 165 1017 l 349 868 b 351 838 360 860 364 850 l 338 825 b 303 825 329 815 319 818 "},"a":{"ha":692,"x_min":0,"x_max":0,"o":"m 260 -19 b 19 163 75 -19 19 54 b 321 411 19 342 136 411 b 489 396 394 411 463 401 b 506 504 501 463 504 482 b 367 650 513 594 469 650 b 181 554 278 650 224 613 b 150 543 169 540 164 538 l 115 560 b 108 597 99 568 96 579 b 382 735 171 686 251 735 b 599 500 540 735 614 646 b 531 97 589 424 576 358 b 467 17 522 49 508 35 b 260 -19 411 -7 343 -19 m 265 58 b 407 83 319 58 365 68 b 442 124 429 92 436 99 l 476 318 b 310 335 447 325 383 335 b 115 171 179 335 115 275 b 265 58 115 100 151 58 "},"b":{"ha":731,"x_min":0,"x_max":0,"o":"m 286 -19 b 75 25 189 -19 114 4 b 38 101 38 44 31 58 l 197 1006 b 225 1028 200 1021 208 1028 l 271 1028 b 290 1000 289 1028 294 1018 l 236 692 b 422 735 268 706 338 735 b 638 460 594 735 667 632 l 603 260 b 286 -19 572 78 465 -19 m 288 67 b 510 267 417 67 488 135 l 544 464 b 404 647 565 585 521 647 b 221 603 319 647 250 618 l 138 129 b 154 92 133 107 135 103 b 288 67 181 79 229 67 "},"c":{"ha":696,"x_min":0,"x_max":0,"o":"m 275 -19 b 43 256 92 -19 13 81 l 81 465 b 389 735 111 639 214 735 b 632 539 544 735 619 663 b 614 510 635 521 631 517 l 575 499 b 547 517 558 493 551 499 b 390 650 535 610 493 650 b 174 461 268 650 194 581 l 136 249 b 282 64 115 133 163 64 b 482 200 389 64 435 115 b 519 219 494 224 499 225 l 561 207 b 567 161 576 201 578 188 b 275 -19 506 39 419 -19 "},"d":{"ha":731,"x_min":0,"x_max":0,"o":"m 281 -19 b 47 268 92 -19 14 82 l 82 465 b 382 735 114 643 217 735 b 563 690 471 735 533 706 l 619 1006 b 647 1028 622 1021 631 1028 l 693 1028 b 713 1000 710 1028 715 1019 l 553 96 b 493 18 544 50 533 35 b 281 -19 444 -3 361 -19 m 288 67 b 431 93 346 67 399 79 b 465 133 456 104 461 108 l 549 606 b 388 649 526 618 468 649 b 175 457 268 649 197 588 l 140 264 b 288 67 117 132 164 67 "},"e":{"ha":688,"x_min":0,"x_max":0,"o":"m 397 735 b 633 528 558 735 647 661 b 335 299 619 378 510 299 b 147 310 264 299 207 303 l 133 232 b 272 51 113 117 158 51 b 488 181 375 51 443 106 b 517 185 494 192 504 192 l 549 168 b 556 135 565 158 564 149 b 267 -19 496 44 414 -19 b 40 228 92 -19 24 76 b 76 447 46 282 56 339 b 397 735 108 631 214 735 m 539 524 b 392 663 551 619 496 663 b 172 454 276 663 196 592 l 158 378 b 321 367 215 369 268 367 b 539 524 446 367 526 418 "},"f":{"ha":453,"x_min":0,"x_max":0,"o":"m 86 0 b 68 28 69 0 65 10 l 174 626 l 76 626 b 57 656 57 626 53 635 l 64 692 b 93 714 67 711 76 714 l 189 714 l 196 753 b 478 1028 232 951 306 1025 l 490 1028 b 513 999 508 1028 515 1018 l 506 963 b 482 939 501 943 499 939 b 289 746 358 940 314 894 l 283 714 l 436 714 b 457 686 454 714 460 706 l 451 654 b 424 626 447 635 442 626 l 268 626 l 161 22 b 132 0 158 6 150 0 l 86 0 "},"g":{"ha":728,"x_min":0,"x_max":0,"o":"m 214 -343 b -12 -189 85 -343 17 -282 b -6 -154 -21 -171 -19 -161 l 38 -133 b 65 -143 51 -126 57 -129 b 214 -257 90 -212 125 -257 b 432 -46 343 -257 407 -179 l 449 36 b 251 -3 403 17 338 -3 b 46 269 82 -3 18 97 l 79 453 b 396 735 113 643 210 735 b 607 693 482 735 558 717 b 643 617 643 675 650 661 l 525 -49 b 214 -343 492 -236 397 -343 m 275 83 b 461 124 358 83 418 104 l 543 581 b 522 622 547 606 546 611 b 389 649 493 636 446 649 b 172 444 261 649 197 583 l 140 268 b 275 83 118 146 158 83 "},"h":{"ha":746,"x_min":0,"x_max":0,"o":"m 50 0 b 29 26 32 0 26 8 l 201 1006 b 232 1028 206 1024 215 1028 l 276 1028 b 296 1000 293 1028 300 1018 l 242 696 b 435 735 290 718 358 735 b 638 463 608 735 667 633 l 560 22 b 529 0 556 4 546 0 l 483 0 b 467 28 467 0 464 11 l 543 463 b 413 649 564 588 524 649 b 228 608 342 649 276 632 l 124 24 b 92 0 119 4 110 0 l 50 0 "},"i":{"ha":314,"x_min":0,"x_max":0,"o":"m 211 881 b 178 932 179 881 169 892 l 179 946 b 226 992 188 982 194 992 l 258 992 b 293 939 290 992 300 976 l 290 925 b 244 881 283 888 276 881 l 211 881 m 44 0 b 28 28 31 0 25 10 l 146 692 b 174 714 149 711 160 714 l 221 714 b 239 686 236 714 243 707 l 121 24 b 94 0 118 4 108 0 l 44 0 "},"j":{"ha":310,"x_min":0,"x_max":0,"o":"m 213 881 b 178 932 179 881 169 892 l 179 946 b 226 993 188 983 196 993 l 260 993 b 294 940 292 993 301 976 l 292 926 b 244 881 285 888 276 881 l 213 881 m -172 -319 b -194 -290 -192 -319 -199 -310 l -189 -254 b -167 -231 -185 -235 -182 -231 b 19 -8 -25 -231 -6 -149 l 143 692 b 172 714 146 708 154 714 l 219 714 b 238 686 236 714 240 706 l 113 -18 b -172 -319 78 -212 39 -319 "},"k":{"ha":683,"x_min":0,"x_max":0,"o":"m 47 0 b 29 29 29 0 25 10 l 200 1006 b 229 1028 204 1024 215 1028 l 276 1028 b 294 1000 292 1028 299 1018 l 190 410 l 306 410 l 321 410 l 556 697 b 590 714 567 713 569 714 l 647 714 b 658 682 671 714 671 700 l 406 389 b 485 278 450 372 471 336 l 551 26 b 532 0 556 6 556 0 l 488 0 b 454 25 463 0 458 6 l 399 242 b 307 322 386 299 363 322 l 175 322 l 122 24 b 92 0 118 4 108 0 l 47 0 "},"l":{"ha":324,"x_min":0,"x_max":0,"o":"m 51 0 b 33 28 33 0 31 10 l 204 1006 b 233 1028 208 1024 219 1028 l 279 1028 b 299 999 297 1028 303 1018 l 126 22 b 99 0 124 6 114 0 l 51 0 "},"m":{"ha":1132,"x_min":0,"x_max":0,"o":"m 44 0 b 25 28 28 0 21 10 l 128 614 b 188 690 135 653 149 672 b 406 735 238 714 314 735 b 578 671 490 735 549 711 b 815 735 631 699 699 735 b 1022 465 989 735 1053 639 l 944 22 b 913 0 940 3 932 0 l 871 0 b 851 28 853 0 847 8 l 928 467 b 801 649 950 589 913 649 b 618 593 711 649 661 619 b 614 475 625 563 622 522 l 535 22 b 504 0 531 6 521 0 l 460 0 b 440 28 442 0 439 11 l 521 478 b 392 649 542 600 500 649 b 246 619 328 649 285 638 b 217 578 224 608 219 596 l 118 22 b 86 0 114 3 104 0 l 44 0 "},"n":{"ha":742,"x_min":0,"x_max":0,"o":"m 43 0 b 25 28 28 0 22 8 l 128 614 b 188 689 135 656 150 672 b 421 735 242 711 321 735 b 633 460 599 735 664 636 l 556 22 b 526 0 553 7 546 0 l 481 0 b 463 28 465 0 460 8 l 539 463 b 408 649 560 583 521 649 b 250 618 340 649 283 633 b 217 581 226 608 221 597 l 118 22 b 90 0 115 7 107 0 l 43 0 "},"o":{"ha":729,"x_min":0,"x_max":0,"o":"m 278 -19 b 42 238 103 -19 14 81 l 85 482 b 399 735 114 646 226 735 b 639 476 575 735 667 631 l 596 232 b 278 -19 568 72 450 -19 m 286 65 b 503 238 403 65 485 132 l 546 482 b 392 649 565 588 501 649 b 178 476 276 649 197 582 l 135 232 b 286 65 117 128 179 65 "},"p":{"ha":729,"x_min":0,"x_max":0,"o":"m -10 -306 b -29 -278 -28 -306 -32 -296 l 128 613 b 182 689 136 658 144 671 b 407 735 231 711 315 735 b 633 447 603 735 667 632 l 599 249 b 304 -19 569 83 472 -19 b 119 26 215 -19 147 11 l 64 -283 b 38 -306 63 -296 53 -306 l -10 -306 m 301 67 b 506 257 422 67 485 136 l 540 451 b 396 649 564 585 519 649 b 249 621 335 649 279 635 b 217 579 225 610 221 604 l 135 113 b 301 67 161 96 225 67 "},"q":{"ha":729,"x_min":0,"x_max":0,"o":"m 411 -306 b 392 -278 393 -306 388 -297 l 446 24 b 256 -19 411 8 338 -19 b 44 256 82 -19 17 92 l 79 454 b 396 735 113 639 207 735 b 608 692 493 735 568 713 b 643 613 646 672 651 658 l 485 -283 b 456 -306 483 -300 472 -306 l 411 -306 m 272 67 b 460 114 350 67 429 97 l 543 581 b 522 624 547 606 546 613 b 390 649 494 636 447 649 b 172 446 258 649 196 579 l 139 251 b 272 67 118 132 158 67 "},"r":{"ha":460,"x_min":0,"x_max":0,"o":"m 43 0 b 25 28 28 0 21 10 l 126 600 b 179 676 133 643 142 663 b 376 714 226 696 294 713 b 444 714 401 715 424 715 b 463 686 464 714 467 706 l 456 651 b 432 629 451 632 449 629 b 383 628 415 629 399 628 b 244 600 325 626 275 613 b 214 560 224 590 217 579 l 118 22 b 89 0 115 7 106 0 l 43 0 "},"s":{"ha":671,"x_min":0,"x_max":0,"o":"m 264 -19 b 14 150 128 -19 40 28 b 26 186 7 172 11 182 l 74 200 b 99 186 89 204 94 200 b 272 64 118 97 181 64 b 457 201 390 64 457 110 b 306 321 457 276 406 306 b 85 514 178 339 82 383 b 361 733 88 664 189 735 b 603 578 507 733 585 678 b 590 547 606 561 607 553 l 549 533 b 521 547 528 526 526 535 b 357 650 501 613 457 650 b 178 517 243 651 179 611 b 339 396 175 432 246 410 b 551 204 474 375 551 326 b 264 -19 551 58 443 -19 "},"t":{"ha":472,"x_min":0,"x_max":0,"o":"m 332 0 b 119 268 147 -4 83 61 l 182 626 l 76 626 b 56 656 58 626 50 633 l 63 692 b 92 714 65 711 75 714 l 197 714 l 222 858 b 253 881 225 878 236 881 l 296 881 b 317 853 315 881 319 872 l 292 714 l 453 714 b 474 686 472 714 476 706 l 468 651 b 439 626 464 632 456 626 l 276 626 l 213 267 b 343 90 185 117 225 90 b 363 65 360 90 365 82 l 356 24 b 332 0 351 4 347 0 "},"u":{"ha":742,"x_min":0,"x_max":0,"o":"m 271 -19 b 61 256 96 -19 32 85 l 139 692 b 168 714 142 710 153 714 l 213 714 b 232 686 231 714 236 706 l 156 251 b 286 67 133 128 171 67 b 447 96 357 67 413 81 b 479 138 468 106 475 117 l 576 692 b 604 714 579 708 589 714 l 649 714 b 671 686 669 714 674 706 l 567 100 b 510 24 560 58 550 42 b 271 -19 458 0 388 -19 "},"v":{"ha":679,"x_min":0,"x_max":0,"o":"m 231 -4 b 201 22 213 -4 206 4 l 76 685 b 97 714 72 708 75 714 l 140 714 b 171 685 167 714 168 707 l 256 229 b 269 104 261 192 268 146 l 275 104 b 332 235 292 149 311 192 l 575 692 b 611 714 585 713 589 714 l 657 714 b 674 681 679 714 685 704 l 313 17 b 278 -4 303 0 290 -4 l 231 -4 "},"w":{"ha":996,"x_min":0,"x_max":0,"o":"m 183 -4 b 156 22 165 -4 157 3 l 85 688 b 108 714 83 711 85 714 l 160 714 b 183 685 182 714 183 706 l 224 257 b 226 113 226 208 226 163 l 231 113 b 286 264 246 163 267 217 l 478 676 b 511 699 486 696 490 699 l 556 699 b 581 672 574 699 579 693 l 628 264 b 636 113 632 214 636 164 l 640 113 b 693 267 656 165 672 214 l 883 692 b 913 714 890 714 894 714 l 967 714 b 979 682 985 714 989 704 l 672 15 b 639 -4 665 -1 657 -4 l 599 -4 b 568 22 579 -4 568 4 l 522 474 b 515 589 518 513 517 550 l 513 589 b 465 468 499 549 483 508 l 258 15 b 225 -4 251 -3 243 -4 l 183 -4 "},"x":{"ha":656,"x_min":0,"x_max":0,"o":"m -22 0 b -37 31 -47 0 -53 13 l 243 367 l 92 688 b 110 714 85 706 85 714 l 154 714 b 192 690 178 714 188 708 l 315 433 l 531 696 b 569 714 543 714 544 714 l 619 714 b 635 683 642 714 647 701 l 371 368 l 528 26 b 513 0 535 7 536 0 l 463 0 b 426 24 439 0 433 6 l 299 301 l 67 19 b 25 0 54 0 49 0 l -22 0 "},"y":{"ha":746,"x_min":0,"x_max":0,"o":"m 228 -343 b -1 -189 94 -343 28 -282 b 7 -154 -8 -172 -7 -162 l 49 -135 b 74 -142 58 -129 67 -128 b 226 -257 97 -207 129 -257 b 447 -46 356 -257 422 -179 l 464 36 b 268 -3 421 22 358 -3 b 64 274 97 -3 33 101 l 138 692 b 168 714 142 711 153 714 l 211 714 b 232 686 229 714 235 706 l 158 271 b 289 83 136 146 172 83 b 475 121 375 83 438 107 l 576 692 b 606 714 579 711 592 714 l 650 714 b 669 686 668 714 674 706 l 540 -46 b 228 -343 508 -226 418 -343 "},"z":{"ha":610,"x_min":0,"x_max":0,"o":"m -3 0 b -22 28 -21 0 -25 10 l -15 64 b -4 90 -12 76 -12 81 l 449 629 l 114 629 b 96 657 96 629 92 638 l 101 692 b 132 714 106 711 115 714 l 556 714 b 576 686 575 714 579 706 l 569 651 b 556 621 568 638 564 632 l 101 86 l 453 86 b 472 57 471 86 476 76 l 467 22 b 440 0 464 7 457 0 l -3 0 "},"{":{"ha":431,"x_min":0,"x_max":0,"o":"m 174 -356 b 36 -174 50 -356 15 -297 l 96 163 b 26 292 111 243 104 292 l 8 292 b -6 315 -7 292 -8 303 l 4 365 b 25 388 6 383 10 388 l 38 388 b 160 524 117 388 146 443 l 219 863 b 414 1038 242 985 292 1038 l 463 1038 b 485 1010 481 1038 489 1028 l 478 974 b 450 951 474 956 469 951 l 406 951 b 310 851 349 951 321 919 l 247 506 b 131 338 232 418 193 365 b 188 168 188 314 203 256 l 128 -172 b 186 -269 117 -237 131 -269 l 236 -269 b 254 -297 251 -269 258 -278 l 247 -333 b 224 -356 244 -351 242 -356 l 174 -356 "},"|":{"ha":313,"x_min":0,"x_max":0,"o":"m 17 -204 b -7 -176 -3 -204 -10 -194 l 231 1167 b 257 1189 233 1186 238 1189 l 296 1189 b 319 1161 315 1189 322 1179 l 82 -182 b 56 -204 79 -201 75 -204 l 17 -204 "},"}":{"ha":431,"x_min":0,"x_max":0,"o":"m -85 -356 b -107 -326 -104 -356 -111 -346 l -101 -290 b -74 -269 -97 -271 -93 -269 l -29 -269 b 68 -169 25 -269 57 -232 l 129 174 b 244 343 144 261 175 317 b 189 511 196 368 174 424 l 250 856 b 189 951 261 919 246 951 l 146 951 b 124 979 126 951 121 961 l 129 1015 b 157 1038 133 1035 138 1038 l 204 1038 b 340 856 326 1038 363 978 l 281 518 b 351 388 265 436 278 388 l 363 388 b 381 360 379 388 383 378 l 374 314 b 350 292 369 296 367 292 l 339 292 b 215 156 265 292 231 238 l 157 -181 b -37 -356 135 -303 86 -356 l -85 -356 "},"~":{"ha":758,"x_min":0,"x_max":0,"o":"m 478 378 b 274 435 383 378 354 435 b 151 381 224 435 188 408 b 121 392 135 369 129 381 l 100 422 b 101 457 90 435 85 443 b 263 519 153 497 203 519 b 468 464 364 519 388 464 b 592 517 525 464 557 485 b 618 511 601 525 611 524 l 640 472 b 635 440 649 458 649 451 b 478 378 585 399 535 378 "}," ":{"ha":326,"x_min":0,"x_max":0,"o":""},"¡":{"ha":308,"x_min":0,"x_max":0,"o":"m 171 597 b 122 658 128 597 114 613 l 124 667 b 188 721 132 710 144 721 l 196 721 b 244 661 239 721 251 703 l 243 651 b 179 597 235 608 221 597 l 171 597 m -10 -317 b -32 -287 -29 -317 -37 -307 l 110 454 b 136 476 114 474 117 476 l 161 476 b 185 449 181 476 186 467 l 65 -294 b 39 -317 63 -312 58 -317 l -10 -317 "},"¢":{"ha":722,"x_min":0,"x_max":0,"o":"m 235 -117 b 215 -89 218 -117 211 -107 l 232 -15 b 53 256 86 1 25 99 l 90 465 b 358 732 117 625 207 719 l 376 824 b 404 847 381 842 388 847 l 454 847 b 474 824 472 847 476 839 l 453 728 b 642 539 575 714 631 646 b 622 510 643 521 639 517 l 583 499 b 557 517 568 493 560 499 b 399 650 544 610 501 650 b 182 461 276 650 204 581 l 144 249 b 292 64 125 133 172 64 b 490 200 397 64 444 115 b 528 219 503 224 508 225 l 569 207 b 575 161 585 201 588 188 b 328 -17 519 50 449 -7 l 311 -94 b 285 -117 307 -110 303 -117 l 235 -117 "},"£":{"ha":863,"x_min":0,"x_max":0,"o":"m 8 0 b -10 31 -11 0 -12 10 l -1 72 b 14 92 0 85 1 92 l 35 92 b 151 240 103 92 139 174 l 185 425 l 99 425 b 76 456 79 425 72 436 l 82 490 b 110 514 86 511 90 514 l 200 514 l 242 743 b 565 1006 268 894 374 1006 b 819 786 719 1006 793 938 b 801 756 824 769 821 763 l 757 740 b 726 765 736 732 731 742 b 563 911 703 876 657 911 b 347 733 429 911 363 831 l 307 514 l 625 514 b 647 483 643 514 651 504 l 642 450 b 614 425 638 429 632 425 l 292 425 l 257 236 b 175 92 244 169 214 122 l 172 89 b 329 94 210 92 265 94 l 672 94 b 696 64 692 94 699 85 l 689 25 b 661 0 683 4 681 0 l 8 0 "},"¤":{"ha":814,"x_min":0,"x_max":0,"o":"m 349 156 b 199 214 288 157 236 178 l 117 138 b 85 142 104 124 97 129 l 56 174 b 56 210 43 188 43 196 l 142 288 b 118 439 124 331 114 383 b 206 653 121 518 154 597 l 151 729 b 153 764 140 743 139 753 l 196 796 b 228 790 210 807 218 804 l 278 721 b 451 781 326 758 390 781 b 607 722 514 781 569 758 l 686 797 b 717 793 700 810 707 804 l 749 761 b 749 725 761 749 763 738 l 661 650 b 686 496 682 608 690 553 b 599 281 682 417 650 338 l 654 207 b 651 172 665 192 664 182 l 610 139 b 578 144 596 128 589 131 l 526 213 b 349 156 476 175 411 154 m 360 239 b 603 525 499 239 603 383 b 444 696 603 628 539 696 b 204 411 306 696 204 553 b 360 239 204 310 265 239 "},"¥":{"ha":867,"x_min":0,"x_max":0,"o":"m 324 0 b 300 31 304 0 297 10 l 332 210 l 143 210 b 122 238 125 210 119 219 l 126 263 b 151 285 131 282 133 285 l 347 285 l 369 411 l 179 411 b 157 439 161 411 154 421 l 163 464 b 186 486 165 483 169 486 l 350 486 l 146 961 b 160 986 140 976 140 986 l 218 986 b 261 958 249 986 254 982 l 439 519 l 771 964 b 821 986 786 988 792 986 l 876 986 b 890 956 894 986 899 971 l 518 486 l 671 486 b 692 458 688 486 696 476 l 688 433 b 663 411 685 415 681 411 l 468 411 l 446 285 l 635 285 b 656 257 653 285 660 275 l 651 232 b 626 210 649 214 644 210 l 435 210 l 401 25 b 374 0 397 4 394 0 l 324 0 "},"¦":{"ha":325,"x_min":0,"x_max":0,"o":"m 164 599 b 142 626 144 599 138 608 l 236 1167 b 263 1189 240 1186 244 1189 l 303 1189 b 325 1161 322 1189 329 1179 l 231 621 b 204 599 226 601 222 599 l 164 599 m 22 -203 b 0 -175 3 -203 -4 -193 l 94 365 b 121 388 99 385 103 388 l 161 388 b 183 360 181 388 188 378 l 89 -181 b 63 -203 85 -200 81 -203 l 22 -203 "},"§":{"ha":808,"x_min":0,"x_max":0,"o":"m 288 -308 b -12 -76 115 -308 11 -229 b 7 -39 -17 -54 -12 -44 l 57 -25 b 85 -44 74 -21 82 -26 b 301 -212 103 -157 174 -212 b 522 -42 439 -212 522 -150 b 338 101 522 46 471 86 b 61 331 147 124 58 197 b 239 564 64 435 118 508 b 146 754 175 597 140 667 b 468 1013 156 914 274 1013 b 757 786 629 1013 724 943 b 740 750 763 765 760 756 l 696 735 b 667 756 679 728 671 735 b 464 915 646 865 581 915 b 249 746 331 915 249 851 b 422 599 249 660 300 614 b 689 388 603 576 690 507 b 532 149 688 293 631 206 b 629 -31 599 111 632 53 b 288 -308 625 -200 492 -308 m 447 183 b 589 368 535 222 589 294 b 408 506 588 447 532 489 l 321 518 b 167 342 217 479 167 421 b 340 199 167 261 221 218 b 447 183 378 192 414 188 "},"¨":{"ha":639,"x_min":0,"x_max":0,"o":"m 253 853 b 213 903 218 853 207 868 l 214 913 b 265 954 221 946 229 954 l 274 954 b 315 906 308 954 321 940 l 313 896 b 263 853 307 861 296 853 l 253 853 m 501 853 b 461 903 465 853 454 868 l 463 913 b 513 954 468 946 478 954 l 522 954 b 563 906 556 954 568 940 l 560 896 b 510 853 554 861 544 853 l 501 853 "},"©":{"ha":1101,"x_min":0,"x_max":0,"o":"m 468 -11 b 81 494 169 -11 25 176 b 633 986 135 804 340 986 b 1018 481 929 986 1074 799 b 468 -11 964 171 760 -11 m 469 49 b 961 494 728 49 913 214 b 633 926 1010 767 889 926 b 138 481 372 926 186 761 b 469 49 89 208 211 49 m 503 206 b 329 406 367 206 307 285 l 356 565 b 586 760 378 688 456 760 b 767 618 704 760 751 707 b 757 596 769 606 771 600 l 728 588 b 704 603 713 583 710 588 b 583 696 697 665 661 696 b 422 560 489 696 438 644 l 394 400 b 504 269 379 317 417 269 b 661 375 583 269 631 304 b 689 381 668 388 674 386 l 710 374 b 719 343 722 368 729 361 b 503 206 676 256 611 206 "},"ª":{"ha":504,"x_min":0,"x_max":0,"o":"m 251 493 b 110 600 160 493 110 533 b 283 743 110 703 178 743 b 374 736 328 743 360 739 b 382 799 379 767 382 783 b 310 867 383 843 361 867 b 208 815 269 867 239 853 b 188 815 201 808 194 811 l 169 829 b 165 854 158 838 158 844 b 322 931 206 906 256 931 b 454 788 415 931 464 879 b 419 582 450 742 440 696 b 369 515 413 543 403 531 b 251 493 340 501 303 493 m 256 551 b 321 563 286 551 304 556 b 349 600 336 569 344 576 l 364 682 b 282 688 351 685 322 688 b 182 607 218 688 182 664 b 256 551 182 575 206 551 "},"«":{"ha":764,"x_min":0,"x_max":0,"o":"m 286 79 b 258 82 275 69 267 71 l 63 350 b 64 385 54 363 53 374 l 356 651 b 385 653 368 663 374 664 l 406 631 b 404 600 415 619 418 611 l 150 367 l 318 131 b 318 103 325 119 329 111 l 286 79 m 565 79 b 538 82 554 69 546 71 l 342 350 b 343 385 332 363 332 374 l 635 651 b 664 653 647 663 653 664 l 685 631 b 683 600 694 619 697 611 l 429 367 l 596 131 b 596 103 604 119 608 111 l 565 79 "},"¬":{"ha":774,"x_min":0,"x_max":0,"o":"m 546 194 b 522 222 526 194 518 203 l 563 451 l 125 451 b 101 481 107 451 99 461 l 108 518 b 135 540 113 538 117 540 l 646 540 b 668 513 664 540 672 532 l 617 217 b 590 194 613 197 610 194 l 546 194 "},"®":{"ha":654,"x_min":0,"x_max":0,"o":"m 326 447 b 122 692 182 447 107 536 b 415 986 138 867 247 986 b 619 742 560 986 635 897 b 326 447 604 567 493 447 m 329 486 b 579 744 469 486 564 588 b 414 947 593 869 533 947 b 163 689 272 947 178 846 b 329 486 149 564 208 486 m 258 576 b 253 590 250 576 251 583 l 297 840 b 317 857 299 851 303 857 l 404 857 b 488 769 463 857 494 824 b 414 683 483 722 454 693 l 447 590 b 440 576 451 579 450 576 l 422 576 b 407 586 411 576 411 579 l 374 678 l 308 678 l 292 586 b 281 576 290 578 290 576 l 258 576 m 379 711 b 447 767 415 711 443 729 b 399 817 451 799 435 817 l 332 817 l 314 711 "},"¯":{"ha":525,"x_min":0,"x_max":0,"o":"m 174 869 b 153 897 154 869 150 879 l 157 919 b 189 940 160 938 172 940 l 493 940 b 515 913 513 940 519 932 l 511 892 b 485 869 508 875 499 869 l 174 869 "},"°":{"ha":531,"x_min":0,"x_max":0,"o":"m 282 560 b 121 738 181 560 121 625 b 346 981 121 878 217 981 b 507 808 447 981 507 917 b 282 560 507 667 410 560 m 288 631 b 435 800 368 631 435 707 b 338 910 435 868 399 910 b 194 742 257 910 194 838 b 288 631 194 671 229 631 "},"±":{"ha":826,"x_min":0,"x_max":0,"o":"m 371 325 b 346 356 350 325 343 335 l 374 508 l 151 508 b 128 539 131 508 124 518 l 132 565 b 163 590 136 586 142 590 l 388 590 l 417 754 b 446 779 419 775 425 779 l 478 779 b 503 749 499 779 506 769 l 474 590 l 694 590 b 719 560 715 590 722 581 l 714 533 b 685 508 711 513 706 508 l 460 508 l 432 350 b 401 325 429 329 422 325 l 371 325 m 90 158 b 67 189 69 158 63 168 l 71 215 b 100 240 74 236 79 240 l 632 240 b 657 210 653 240 661 231 l 653 183 b 622 158 649 163 643 158 l 90 158 "},"´":{"ha":361,"x_min":0,"x_max":0,"o":"m 133 843 b 138 871 126 854 129 867 l 360 1011 b 399 1004 375 1019 389 1019 l 417 979 b 413 950 425 968 424 954 l 175 822 b 144 826 158 814 151 818 "},"µ":{"ha":740,"x_min":0,"x_max":0,"o":"m -10 -306 b -31 -278 -28 -306 -33 -296 l 142 692 b 171 714 143 711 156 714 l 215 714 b 235 686 233 714 239 706 l 158 251 b 288 67 136 128 175 67 b 449 96 356 67 415 81 b 482 138 472 107 479 119 l 579 690 b 610 714 582 710 592 714 l 653 714 b 674 686 671 714 676 706 l 569 99 b 515 25 563 57 553 43 b 299 -19 460 -1 381 -19 b 128 75 213 -19 149 11 l 64 -283 b 39 -306 60 -303 57 -306 l -10 -306 "},"¶":{"ha":596,"x_min":0,"x_max":0,"o":"m 154 -124 b 133 -96 136 -124 131 -114 l 260 604 b 133 800 167 607 113 686 b 325 986 154 913 229 986 l 538 986 b 558 958 556 986 561 976 l 372 -101 b 347 -124 368 -121 365 -124 l 297 -124 b 278 -96 281 -124 274 -114 l 451 890 l 404 890 l 228 -101 b 204 -124 225 -121 221 -124 l 154 -124 "},"·":{"ha":331,"x_min":0,"x_max":0,"o":"m 125 317 b 76 378 82 317 68 333 l 78 386 b 140 440 86 429 99 440 l 150 440 b 199 381 193 440 206 422 l 196 371 b 133 317 188 328 175 317 l 125 317 "},"¸":{"ha":357,"x_min":0,"x_max":0,"o":"m 28 -339 b -71 -308 -22 -339 -54 -321 b -82 -286 -81 -303 -85 -299 l -79 -261 b -65 -253 -78 -253 -72 -250 b 19 -282 -44 -267 -19 -282 b 117 -204 75 -282 114 -258 b 61 -147 119 -169 99 -150 b 17 -151 46 -147 31 -149 b 1 -126 0 -153 -6 -139 l 68 0 l 131 0 l 78 -100 b 121 -100 90 -99 107 -97 b 200 -200 175 -106 204 -144 b 28 -339 197 -296 124 -339 "},"º":{"ha":510,"x_min":0,"x_max":0,"o":"m 258 494 b 121 663 149 494 103 558 l 139 768 b 326 931 158 871 222 931 b 465 763 438 931 483 865 l 447 657 b 258 494 429 553 364 494 m 265 563 b 374 661 326 563 363 600 l 392 767 b 319 863 403 825 379 863 b 213 764 260 863 224 824 l 194 658 b 265 563 183 599 207 563 "},"»":{"ha":764,"x_min":0,"x_max":0,"o":"m 25 103 b 25 133 14 114 13 122 l 281 365 l 111 601 b 111 631 103 614 99 621 l 143 654 b 171 651 154 664 164 661 l 368 381 b 365 347 375 369 376 357 l 75 82 b 46 81 61 69 57 69 m 315 103 b 315 133 306 114 303 122 l 571 365 l 401 601 b 403 631 394 614 390 622 l 433 654 b 461 651 446 663 454 661 l 657 382 b 654 347 667 369 667 357 l 365 82 b 335 81 353 69 347 69 "},"¼":{"ha":1046,"x_min":0,"x_max":0,"o":"m 235 442 b 214 472 214 442 211 451 l 289 888 l 174 828 b 142 839 160 818 149 825 l 132 861 b 144 897 124 879 128 888 l 304 982 b 339 990 317 989 326 990 l 361 990 b 381 961 382 990 385 981 l 293 465 b 260 442 290 444 281 442 l 235 442 m 132 0 b 119 31 113 0 107 15 l 857 964 b 903 986 874 986 875 986 l 935 986 b 946 957 953 986 958 972 l 211 24 b 163 0 194 1 189 0 l 132 0 m 772 0 b 754 26 757 0 751 8 l 775 142 l 543 142 b 524 167 525 142 519 149 l 526 189 b 538 217 529 203 529 208 l 825 535 b 863 549 839 550 844 549 l 897 549 b 917 519 918 549 921 540 l 861 210 l 910 210 b 926 185 928 210 929 203 l 922 161 b 900 142 919 146 917 142 l 850 142 l 829 22 b 803 0 825 6 817 0 l 772 0 m 786 210 l 831 447 l 618 210 "},"½":{"ha":1114,"x_min":0,"x_max":0,"o":"m 233 444 b 214 475 214 444 211 454 l 288 892 l 172 831 b 142 842 158 822 149 829 l 131 864 b 146 899 124 881 131 890 l 307 985 b 342 993 318 992 328 993 l 361 993 b 381 964 382 993 385 983 l 293 468 b 260 444 289 447 281 444 l 233 444 m 117 0 b 104 31 97 0 92 15 l 842 964 b 888 986 858 986 860 986 l 919 986 b 932 957 938 986 943 972 l 196 24 b 149 0 179 1 175 0 l 117 0 m 624 0 b 603 29 603 0 600 14 l 613 83 b 740 256 626 165 663 222 l 818 288 b 942 418 881 314 942 339 b 861 483 942 458 918 483 b 742 389 781 483 753 413 b 713 381 735 376 729 376 l 685 389 b 675 424 667 396 667 407 b 869 560 696 469 746 560 b 1022 428 971 560 1022 507 b 854 228 1022 311 956 269 l 781 197 b 706 108 740 179 714 156 l 699 74 l 938 74 b 956 46 958 74 957 64 l 950 22 b 925 0 947 6 940 0 l 624 0 "},"¾":{"ha":1100,"x_min":0,"x_max":0,"o":"m 261 435 b 90 593 150 435 96 488 b 104 613 90 603 93 608 l 133 619 b 158 608 147 624 154 622 b 264 507 165 538 196 507 b 386 621 340 507 386 551 b 321 690 386 658 363 690 l 251 690 b 238 715 236 690 235 700 l 243 740 b 263 761 246 758 250 761 l 329 761 b 418 863 388 761 418 807 b 338 933 418 904 386 933 b 204 835 275 933 236 907 b 172 826 196 821 189 819 l 153 835 b 143 871 136 842 135 851 b 346 1006 189 968 247 1006 b 493 878 439 1006 493 953 b 406 728 493 803 465 754 b 463 622 442 710 463 669 b 261 435 463 500 383 435 m 188 0 b 175 31 168 0 163 15 l 913 964 b 958 986 929 986 931 986 l 990 986 b 1001 957 1008 986 1014 972 l 267 24 b 218 0 249 1 244 0 l 188 0 m 829 0 b 811 26 814 0 808 8 l 832 142 l 600 142 b 581 167 582 142 576 149 l 583 189 b 594 217 586 203 586 208 l 882 535 b 919 549 896 550 901 549 l 954 549 b 974 519 974 549 978 540 l 918 210 l 967 210 b 983 185 985 210 986 203 l 979 161 b 957 142 976 146 974 142 l 907 142 l 885 22 b 858 0 882 6 874 0 l 829 0 m 843 210 l 886 447 l 675 210 "},"¿":{"ha":804,"x_min":0,"x_max":0,"o":"m 474 597 b 425 658 431 597 417 614 b 426 667 425 661 426 664 b 490 721 435 710 447 721 l 499 721 b 547 661 542 721 554 703 b 544 651 546 658 546 654 b 482 597 536 608 525 597 l 474 597 m 282 -317 b 21 -24 82 -317 -7 -185 b 267 288 51 153 164 218 b 410 475 331 331 392 378 b 438 496 411 493 418 496 l 479 496 b 497 463 497 496 501 486 b 322 215 474 325 400 271 b 126 -32 242 161 151 113 b 289 -225 107 -143 163 -225 b 551 -50 415 -225 496 -154 b 586 -39 564 -33 568 -32 l 629 -54 b 639 -93 646 -60 649 -69 b 282 -317 568 -222 458 -317 "},"À":{"ha":871,"x_min":0,"x_max":0,"o":"m 432 1189 b 429 1221 418 1196 415 1206 l 456 1246 b 501 1243 474 1263 486 1254 l 669 1106 b 672 1075 681 1097 685 1088 l 658 1063 b 624 1063 650 1053 640 1054 m -33 0 b -49 31 -53 0 -58 13 l 458 969 b 494 990 469 989 475 990 l 546 990 b 575 965 564 990 572 982 l 751 25 b 733 0 756 7 753 0 l 683 0 b 644 28 656 0 646 8 l 597 286 l 200 286 l 58 22 b 14 0 49 1 42 0 l -33 0 m 583 374 l 515 775 b 508 894 510 814 507 843 l 504 894 b 453 768 493 864 478 821 l 244 374 "},"Á":{"ha":871,"x_min":0,"x_max":0,"o":"m 410 1082 b 414 1110 403 1092 406 1104 l 635 1249 b 676 1242 651 1258 665 1257 l 693 1217 b 689 1189 701 1207 700 1193 l 451 1060 b 421 1065 436 1053 428 1057 m -33 0 b -49 31 -53 0 -58 13 l 458 969 b 494 990 469 989 475 990 l 546 990 b 575 965 564 990 572 982 l 751 25 b 733 0 756 7 753 0 l 683 0 b 644 28 656 0 646 8 l 597 286 l 200 286 l 58 22 b 14 0 49 1 42 0 l -33 0 m 583 374 l 515 775 b 508 894 510 814 507 843 l 504 894 b 453 768 493 864 478 821 l 244 374 "},"Â":{"ha":871,"x_min":0,"x_max":0,"o":"m 343 1060 b 331 1083 321 1060 318 1074 l 515 1236 b 553 1253 531 1249 538 1253 l 575 1253 b 611 1235 593 1253 599 1250 l 742 1079 b 731 1060 750 1069 750 1060 l 690 1060 b 654 1076 669 1060 665 1064 l 560 1189 l 422 1072 b 381 1060 407 1060 400 1060 l 343 1060 m -33 0 b -49 31 -53 0 -58 13 l 458 969 b 494 990 469 989 475 990 l 546 990 b 575 965 564 990 572 982 l 751 25 b 733 0 756 7 753 0 l 683 0 b 644 28 656 0 646 8 l 597 286 l 200 286 l 58 22 b 14 0 49 1 42 0 l -33 0 m 583 374 l 515 775 b 508 894 510 814 507 843 l 504 894 b 453 768 493 864 478 821 l 244 374 "},"Ã":{"ha":871,"x_min":0,"x_max":0,"o":"m 354 1071 b 340 1100 342 1071 339 1078 b 458 1226 351 1179 394 1226 b 628 1133 553 1226 565 1133 b 694 1214 663 1133 688 1165 b 710 1226 697 1224 699 1226 l 742 1226 b 753 1200 753 1226 756 1221 b 638 1071 739 1118 701 1071 b 467 1164 546 1071 533 1164 b 399 1086 433 1164 406 1133 b 383 1071 397 1076 394 1071 l 354 1071 m -33 0 b -49 31 -53 0 -58 13 l 458 969 b 494 990 469 989 475 990 l 546 990 b 575 965 564 990 572 982 l 751 25 b 733 0 756 7 753 0 l 683 0 b 644 28 656 0 646 8 l 597 286 l 200 286 l 58 22 b 14 0 49 1 42 0 l -33 0 m 583 374 l 515 775 b 508 894 510 814 507 843 l 504 894 b 453 768 493 864 478 821 l 244 374 "},"Ä":{"ha":871,"x_min":0,"x_max":0,"o":"m 414 1100 b 372 1147 378 1100 367 1113 l 375 1158 b 426 1201 381 1193 390 1201 l 435 1201 b 475 1153 469 1201 481 1186 l 472 1142 b 422 1100 467 1107 456 1100 l 414 1100 m 668 1100 b 626 1147 632 1100 621 1113 l 628 1158 b 681 1201 635 1193 644 1201 l 689 1201 b 728 1153 724 1201 733 1186 l 726 1142 b 675 1100 721 1107 710 1100 l 668 1100 m -33 0 b -49 31 -53 0 -58 13 l 458 969 b 494 990 469 989 475 990 l 546 990 b 575 965 564 990 572 982 l 751 25 b 733 0 756 7 753 0 l 683 0 b 644 28 656 0 646 8 l 597 286 l 200 286 l 58 22 b 14 0 49 1 42 0 l -33 0 m 583 374 l 515 775 b 508 894 510 814 507 843 l 504 894 b 453 768 493 864 478 821 l 244 374 "},"Å":{"ha":871,"x_min":0,"x_max":0,"o":"m -31 0 b -49 31 -53 0 -58 13 l 451 953 b 389 1076 406 972 381 1017 b 553 1224 400 1163 467 1222 b 679 1082 633 1224 688 1167 b 578 950 672 1019 636 971 l 751 25 b 733 0 756 6 753 0 l 686 0 b 644 28 657 0 646 7 l 597 286 l 200 286 l 60 22 b 13 0 51 3 44 0 l -31 0 m 521 986 b 624 1085 578 986 618 1026 b 554 1167 628 1135 600 1167 b 447 1072 496 1167 454 1129 b 521 986 442 1021 469 986 m 583 374 l 514 783 b 510 894 510 819 507 846 l 504 894 b 460 781 496 865 481 824 l 244 374 "},"Æ":{"ha":1135,"x_min":0,"x_max":0,"o":"m -51 0 b -69 29 -72 0 -78 13 l 643 964 b 681 986 657 982 661 986 l 1111 986 b 1131 956 1131 986 1133 976 l 1124 915 b 1094 892 1119 899 1113 892 l 746 892 l 685 546 l 972 546 b 993 515 993 546 997 536 l 986 476 b 957 451 983 458 976 451 l 668 451 l 606 94 l 967 94 b 989 64 989 94 993 85 l 982 25 b 953 0 979 10 974 0 l 519 0 b 494 31 499 0 492 10 l 532 242 l 207 242 l 47 22 b -3 0 35 4 29 0 l -51 0 m 547 326 l 639 826 l 274 326 "},"Ç":{"ha":864,"x_min":0,"x_max":0,"o":"m 307 -339 b 210 -308 257 -339 226 -321 b 199 -286 199 -303 196 -299 l 201 -261 b 214 -253 203 -253 208 -250 b 299 -282 235 -267 260 -282 b 397 -204 356 -282 394 -258 b 346 -149 400 -171 382 -151 b 296 -151 329 -147 313 -149 b 281 -126 279 -153 274 -139 l 339 -19 b 68 333 128 -8 31 125 l 126 660 b 529 1006 164 876 301 1006 b 838 761 729 1006 814 919 b 821 732 842 744 838 736 l 774 718 b 743 739 756 713 749 719 b 524 911 725 856 664 911 b 228 656 353 911 256 814 l 168 325 b 375 76 142 167 213 76 b 654 263 522 75 597 143 b 690 272 664 278 672 279 l 733 257 b 746 217 750 250 757 240 b 400 -19 678 72 576 -10 l 357 -100 b 413 -104 376 -99 396 -100 b 481 -200 460 -112 483 -149 b 307 -339 476 -296 404 -339 "},"È":{"ha":776,"x_min":0,"x_max":0,"o":"m 406 1189 b 403 1221 392 1196 389 1206 l 429 1246 b 475 1243 447 1263 460 1254 l 643 1106 b 646 1075 654 1097 658 1088 l 632 1063 b 597 1063 624 1053 614 1054 m 65 0 b 44 29 46 0 40 8 l 208 961 b 242 986 213 982 222 986 l 750 986 b 772 956 774 986 775 976 l 765 917 b 738 892 761 897 754 892 l 297 892 l 238 547 l 615 547 b 638 519 635 547 640 540 l 629 478 b 601 453 626 458 618 453 l 221 453 l 158 94 l 607 94 b 631 67 629 94 635 88 l 624 25 b 596 0 619 6 611 0 l 65 0 "},"É":{"ha":776,"x_min":0,"x_max":0,"o":"m 383 1082 b 388 1110 376 1092 379 1104 l 608 1249 b 650 1242 625 1258 639 1257 l 667 1217 b 663 1189 675 1207 674 1193 l 425 1060 b 394 1065 410 1053 401 1057 m 65 0 b 44 29 46 0 40 8 l 208 961 b 242 986 213 982 222 986 l 750 986 b 772 956 774 986 775 976 l 765 917 b 738 892 761 897 754 892 l 297 892 l 238 547 l 615 547 b 638 519 635 547 640 540 l 629 478 b 601 453 626 458 618 453 l 221 453 l 158 94 l 607 94 b 631 67 629 94 635 88 l 624 25 b 596 0 619 6 611 0 l 65 0 "},"Ê":{"ha":776,"x_min":0,"x_max":0,"o":"m 318 1060 b 306 1083 296 1060 293 1074 l 490 1236 b 528 1253 506 1249 513 1253 l 550 1253 b 586 1235 568 1253 574 1250 l 717 1079 b 706 1060 725 1069 725 1060 l 665 1060 b 629 1076 644 1060 640 1064 l 535 1189 l 397 1072 b 356 1060 382 1060 375 1060 l 318 1060 m 65 0 b 44 29 46 0 40 8 l 208 961 b 242 986 213 982 222 986 l 750 986 b 772 956 774 986 775 976 l 765 917 b 738 892 761 897 754 892 l 297 892 l 238 547 l 615 547 b 638 519 635 547 640 540 l 629 478 b 601 453 626 458 618 453 l 221 453 l 158 94 l 607 94 b 631 67 629 94 635 88 l 624 25 b 596 0 619 6 611 0 l 65 0 "},"Ë":{"ha":776,"x_min":0,"x_max":0,"o":"m 388 1100 b 346 1147 351 1100 340 1113 l 349 1158 b 400 1201 354 1193 364 1201 l 408 1201 b 449 1153 443 1201 454 1186 l 446 1142 b 396 1100 440 1107 429 1100 l 388 1100 m 642 1100 b 600 1147 606 1100 594 1113 l 601 1158 b 654 1201 608 1193 618 1201 l 663 1201 b 701 1153 697 1201 707 1186 l 700 1142 b 649 1100 694 1107 683 1100 l 642 1100 m 65 0 b 44 29 46 0 40 8 l 208 961 b 242 986 213 982 222 986 l 750 986 b 772 956 774 986 775 976 l 765 917 b 738 892 761 897 754 892 l 297 892 l 238 547 l 615 547 b 638 519 635 547 640 540 l 629 478 b 601 453 626 458 618 453 l 221 453 l 158 94 l 607 94 b 631 67 629 94 635 88 l 624 25 b 596 0 619 6 611 0 l 65 0 "},"Ì":{"ha":353,"x_min":0,"x_max":0,"o":"m 174 1189 b 171 1221 160 1196 157 1206 l 197 1246 b 243 1243 215 1263 228 1254 l 411 1106 b 414 1075 422 1097 426 1088 l 400 1063 b 365 1063 392 1053 382 1054 m 65 0 b 44 31 46 0 40 7 l 208 963 b 242 986 213 985 225 986 l 288 986 b 310 957 306 986 314 981 l 144 25 b 117 0 142 7 133 0 l 65 0 "},"Í":{"ha":353,"x_min":0,"x_max":0,"o":"m 151 1082 b 156 1110 144 1092 147 1104 l 376 1249 b 418 1242 393 1258 407 1257 l 435 1217 b 431 1189 443 1207 442 1193 l 193 1060 b 163 1065 178 1053 169 1057 m 65 0 b 44 31 46 0 40 7 l 208 963 b 242 986 213 985 225 986 l 288 986 b 310 957 306 986 314 981 l 144 25 b 117 0 142 7 133 0 l 65 0 "},"Î":{"ha":353,"x_min":0,"x_max":0,"o":"m 86 1060 b 74 1083 64 1060 61 1074 l 258 1236 b 296 1253 274 1249 281 1253 l 318 1253 b 354 1235 336 1253 342 1250 l 485 1079 b 474 1060 493 1069 493 1060 l 433 1060 b 397 1076 413 1060 408 1064 l 303 1189 l 165 1072 b 124 1060 150 1060 143 1060 l 86 1060 m 65 0 b 44 31 46 0 40 7 l 208 963 b 242 986 213 985 225 986 l 288 986 b 310 957 306 986 314 981 l 144 25 b 117 0 142 7 133 0 l 65 0 "},"Ï":{"ha":353,"x_min":0,"x_max":0,"o":"m 156 1100 b 114 1147 119 1100 108 1113 l 117 1158 b 168 1201 122 1193 132 1201 l 176 1201 b 217 1153 211 1201 222 1186 l 214 1142 b 164 1100 208 1107 197 1100 l 156 1100 m 410 1100 b 368 1147 374 1100 363 1113 l 369 1158 b 422 1201 376 1193 386 1201 l 431 1201 b 469 1153 465 1201 475 1186 l 468 1142 b 417 1100 463 1107 451 1100 l 410 1100 m 65 0 b 44 31 46 0 40 7 l 208 963 b 242 986 213 985 225 986 l 288 986 b 310 957 306 986 314 981 l 144 25 b 117 0 142 7 133 0 l 65 0 "},"Ð":{"ha":885,"x_min":0,"x_max":0,"o":"m 61 0 b 42 31 42 0 39 10 l 118 461 l 40 461 b 22 485 19 461 19 471 l 28 519 b 49 535 31 533 35 535 l 131 535 l 206 961 b 236 986 210 982 219 986 l 504 986 b 814 617 749 986 854 843 l 769 364 b 336 0 729 138 575 0 l 61 0 m 347 94 b 668 369 521 94 639 197 l 713 624 b 496 892 744 794 676 892 l 296 892 l 233 535 l 432 535 b 449 514 447 535 450 528 l 442 476 b 421 461 439 463 435 461 l 219 461 l 156 94 "},"Ñ":{"ha":939,"x_min":0,"x_max":0,"o":"m 390 1071 b 376 1100 378 1071 375 1078 b 494 1226 388 1179 431 1226 b 664 1133 589 1226 601 1133 b 731 1214 699 1133 724 1165 b 746 1226 733 1224 735 1226 l 778 1226 b 789 1200 789 1226 792 1221 b 674 1071 775 1118 738 1071 b 503 1164 582 1071 569 1164 b 435 1086 469 1164 442 1133 b 419 1071 433 1076 431 1071 l 390 1071 m 64 0 b 44 29 44 0 40 8 l 208 961 b 240 986 213 982 221 986 l 293 986 b 318 969 308 986 315 978 l 590 349 b 664 140 622 272 642 210 l 669 140 b 699 403 674 224 681 306 l 797 963 b 831 986 800 982 810 986 l 876 986 b 896 956 894 986 899 978 l 732 25 b 703 0 728 10 724 0 l 647 0 b 622 17 633 0 626 6 l 346 651 b 279 846 317 721 296 785 l 275 846 b 243 600 268 768 260 689 l 142 25 b 111 0 138 4 131 0 l 64 0 "},"Ò":{"ha":901,"x_min":0,"x_max":0,"o":"m 449 1203 b 446 1235 435 1210 432 1219 l 472 1260 b 518 1257 490 1276 503 1268 l 686 1119 b 689 1089 697 1111 701 1101 l 675 1076 b 640 1076 667 1067 657 1068 m 368 -19 b 68 333 133 -19 31 115 l 126 660 b 533 1006 164 876 301 1006 b 833 653 761 1006 871 872 l 775 326 b 368 -19 738 108 597 -19 m 375 75 b 675 333 540 75 646 168 l 732 660 b 526 911 760 822 686 911 b 226 653 358 911 256 814 l 169 328 b 375 75 142 168 213 75 "},"Ó":{"ha":901,"x_min":0,"x_max":0,"o":"m 426 1096 b 431 1124 419 1106 422 1118 l 651 1263 b 693 1256 668 1272 682 1271 l 710 1231 b 706 1203 718 1221 717 1207 l 468 1074 b 438 1079 453 1067 444 1071 m 368 -19 b 68 333 133 -19 31 115 l 126 660 b 533 1006 164 876 301 1006 b 833 653 761 1006 871 872 l 775 326 b 368 -19 738 108 597 -19 m 375 75 b 675 333 540 75 646 168 l 732 660 b 526 911 760 822 686 911 b 226 653 358 911 256 814 l 169 328 b 375 75 142 168 213 75 "},"Ô":{"ha":901,"x_min":0,"x_max":0,"o":"m 361 1074 b 349 1097 339 1074 336 1088 l 533 1250 b 571 1267 549 1263 556 1267 l 593 1267 b 629 1249 611 1267 617 1264 l 760 1093 b 749 1074 768 1083 768 1074 l 708 1074 b 672 1090 688 1074 683 1078 l 578 1203 l 440 1086 b 399 1074 425 1074 418 1074 l 361 1074 m 368 -19 b 68 333 133 -19 31 115 l 126 660 b 533 1006 164 876 301 1006 b 833 653 761 1006 871 872 l 775 326 b 368 -19 738 108 597 -19 m 375 75 b 675 333 540 75 646 168 l 732 660 b 526 911 760 822 686 911 b 226 653 358 911 256 814 l 169 328 b 375 75 142 168 213 75 "},"Õ":{"ha":901,"x_min":0,"x_max":0,"o":"m 372 1085 b 358 1114 360 1085 357 1092 b 476 1240 369 1193 413 1240 b 646 1147 571 1240 583 1147 b 713 1228 681 1147 706 1179 b 728 1240 715 1238 717 1240 l 760 1240 b 771 1214 771 1240 774 1235 b 656 1085 757 1132 719 1085 b 485 1178 564 1085 551 1178 b 417 1100 451 1178 424 1147 b 401 1085 415 1090 413 1085 l 372 1085 m 368 -19 b 68 333 133 -19 31 115 l 126 660 b 533 1006 164 876 301 1006 b 833 653 761 1006 871 872 l 775 326 b 368 -19 738 108 597 -19 m 375 75 b 675 333 540 75 646 168 l 732 660 b 526 911 760 822 686 911 b 226 653 358 911 256 814 l 169 328 b 375 75 142 168 213 75 "},"Ö":{"ha":901,"x_min":0,"x_max":0,"o":"m 432 1114 b 390 1161 396 1114 385 1126 l 393 1172 b 444 1215 399 1207 408 1215 l 453 1215 b 493 1167 488 1215 499 1200 l 490 1156 b 440 1114 485 1121 474 1114 l 432 1114 m 686 1114 b 644 1161 650 1114 639 1126 l 646 1172 b 699 1215 653 1207 663 1215 l 707 1215 b 746 1167 742 1215 751 1200 l 744 1156 b 693 1114 739 1121 728 1114 l 686 1114 m 368 -19 b 68 333 133 -19 31 115 l 126 660 b 533 1006 164 876 301 1006 b 833 653 761 1006 871 872 l 775 326 b 368 -19 738 108 597 -19 m 375 75 b 675 333 540 75 646 168 l 732 660 b 526 911 760 822 686 911 b 226 653 358 911 256 814 l 169 328 b 375 75 142 168 213 75 "},"×":{"ha":690,"x_min":0,"x_max":0,"o":"m 508 188 b 474 192 492 174 483 178 l 328 390 l 114 188 b 78 193 99 174 90 181 l 58 215 b 63 253 46 228 47 239 l 282 450 l 138 653 b 138 690 128 668 122 678 l 168 714 b 201 708 185 728 192 724 l 346 511 l 561 714 b 594 710 576 728 583 724 l 614 688 b 611 649 626 674 626 663 l 393 450 l 538 249 b 538 210 549 233 553 222 l 508 188 "},"Ø":{"ha":901,"x_min":0,"x_max":0,"o":"m 8 -58 b 0 -46 0 -58 -3 -50 l 107 89 b 68 333 64 149 51 232 l 126 660 b 533 1006 164 876 303 1006 b 749 939 629 1006 701 982 l 822 1036 b 840 1043 826 1042 831 1043 l 896 1043 b 903 1031 904 1043 907 1036 l 796 894 b 833 653 836 833 851 753 l 775 326 b 371 -19 738 108 599 -19 b 153 43 275 -19 200 4 l 83 -50 b 63 -58 76 -58 75 -58 l 8 -58 m 689 856 b 526 911 654 892 601 911 b 226 653 358 911 256 814 l 176 364 b 188 194 164 297 167 240 m 376 75 b 675 333 544 75 647 172 l 726 628 b 719 792 738 692 736 749 l 214 129 b 376 75 249 93 306 75 "},"Ù":{"ha":928,"x_min":0,"x_max":0,"o":"m 460 1189 b 457 1221 446 1196 443 1206 l 483 1246 b 529 1243 501 1263 514 1254 l 697 1106 b 700 1075 708 1097 713 1088 l 686 1063 b 651 1063 678 1053 668 1054 m 378 -19 b 90 339 144 -19 51 117 l 201 963 b 232 986 206 982 215 986 l 279 986 b 301 957 301 986 304 978 l 192 333 b 385 75 164 172 226 75 b 681 339 553 75 651 175 l 790 963 b 822 986 794 983 807 986 l 871 986 b 892 957 890 986 894 978 l 782 333 b 378 -19 742 111 604 -19 "},"Ú":{"ha":928,"x_min":0,"x_max":0,"o":"m 438 1082 b 442 1110 431 1092 433 1104 l 663 1249 b 704 1242 679 1258 693 1257 l 721 1217 b 717 1189 729 1207 728 1193 l 479 1060 b 449 1065 464 1053 456 1057 m 378 -19 b 90 339 144 -19 51 117 l 201 963 b 232 986 206 982 215 986 l 279 986 b 301 957 301 986 304 978 l 192 333 b 385 75 164 172 226 75 b 681 339 553 75 651 175 l 790 963 b 822 986 794 983 807 986 l 871 986 b 892 957 890 986 894 978 l 782 333 b 378 -19 742 111 604 -19 "},"Û":{"ha":928,"x_min":0,"x_max":0,"o":"m 372 1060 b 360 1083 350 1060 347 1074 l 544 1236 b 582 1253 560 1249 567 1253 l 604 1253 b 640 1235 622 1253 628 1250 l 771 1079 b 760 1060 779 1069 779 1060 l 719 1060 b 683 1076 699 1060 694 1064 l 589 1189 l 451 1072 b 410 1060 436 1060 429 1060 l 372 1060 m 378 -19 b 90 339 144 -19 51 117 l 201 963 b 232 986 206 982 215 986 l 279 986 b 301 957 301 986 304 978 l 192 333 b 385 75 164 172 226 75 b 681 339 553 75 651 175 l 790 963 b 822 986 794 983 807 986 l 871 986 b 892 957 890 986 894 978 l 782 333 b 378 -19 742 111 604 -19 "},"Ü":{"ha":928,"x_min":0,"x_max":0,"o":"m 443 1100 b 401 1147 407 1100 396 1113 l 404 1158 b 456 1201 410 1193 419 1201 l 464 1201 b 504 1153 499 1201 510 1186 l 501 1142 b 451 1100 496 1107 485 1100 l 443 1100 m 697 1100 b 656 1147 661 1100 650 1113 l 657 1158 b 710 1201 664 1193 674 1201 l 718 1201 b 757 1153 753 1201 763 1186 l 756 1142 b 704 1100 750 1107 739 1100 l 697 1100 m 378 -19 b 90 339 144 -19 51 117 l 201 963 b 232 986 206 982 215 986 l 279 986 b 301 957 301 986 304 978 l 192 333 b 385 75 164 172 226 75 b 681 339 553 75 651 175 l 790 963 b 822 986 794 983 807 986 l 871 986 b 892 957 890 986 894 978 l 782 333 b 378 -19 742 111 604 -19 "},"Ý":{"ha":851,"x_min":0,"x_max":0,"o":"m 403 1082 b 407 1110 396 1092 399 1104 l 628 1249 b 669 1242 644 1258 658 1257 l 686 1217 b 682 1189 694 1207 693 1193 l 444 1060 b 414 1065 429 1053 421 1057 m 311 0 b 293 31 292 0 289 10 l 358 401 l 124 961 b 139 986 118 976 119 986 l 196 986 b 236 960 226 986 231 979 l 426 499 l 779 964 b 828 986 793 985 797 986 l 882 986 b 896 956 901 986 906 971 l 461 400 l 393 25 b 363 0 389 4 382 0 l 311 0 "},"Þ":{"ha":833,"x_min":0,"x_max":0,"o":"m 67 0 b 44 29 46 0 40 7 l 208 961 b 239 986 211 979 219 986 l 289 986 b 310 956 307 986 313 978 l 285 818 l 517 818 b 776 497 706 818 804 696 b 422 179 749 299 615 179 l 172 179 l 144 24 b 117 0 140 7 135 0 l 67 0 m 425 272 b 676 511 563 272 657 361 b 499 726 693 646 632 726 l 268 726 l 189 272 "},"ß":{"ha":743,"x_min":0,"x_max":0,"o":"m 46 0 b 29 31 26 0 26 14 l 156 749 b 460 1042 190 946 288 1042 b 686 790 622 1042 701 951 b 528 539 679 699 626 585 l 528 536 b 635 318 604 510 647 435 b 322 0 617 119 510 0 l 232 0 b 210 22 217 0 208 7 l 217 71 b 243 94 221 89 225 94 l 321 94 b 543 315 449 94 525 179 b 408 486 557 419 511 486 l 321 486 b 299 508 306 486 296 493 l 306 553 b 328 578 310 574 315 578 b 424 579 361 578 392 578 b 594 778 529 586 586 697 b 451 950 611 889 560 950 b 249 743 336 950 274 879 l 122 25 b 92 0 118 6 111 0 l 46 0 "},"à":{"ha":692,"x_min":0,"x_max":0,"o":"m 261 967 b 258 999 247 974 243 983 l 285 1024 b 329 1021 303 1042 315 1031 l 497 883 b 500 853 510 875 514 865 l 488 839 b 453 839 479 831 468 832 m 260 -19 b 19 163 75 -19 19 54 b 321 411 19 342 136 411 b 489 396 394 411 463 401 b 506 504 501 463 504 482 b 367 650 513 594 469 650 b 181 554 278 650 224 613 b 150 543 169 540 164 538 l 115 560 b 108 597 99 568 96 579 b 382 735 171 686 251 735 b 599 500 540 735 614 646 b 531 97 589 424 576 358 b 467 17 522 49 508 35 b 260 -19 411 -7 343 -19 m 265 58 b 407 83 319 58 365 68 b 442 124 429 92 436 99 l 476 318 b 310 335 447 325 383 335 b 115 171 179 335 115 275 b 265 58 115 100 151 58 "},"á":{"ha":692,"x_min":0,"x_max":0,"o":"m 293 857 b 297 886 286 868 288 881 l 518 1025 b 558 1018 535 1033 547 1033 l 576 993 b 572 964 583 982 583 968 l 335 836 b 304 840 318 829 310 832 m 260 -19 b 19 163 75 -19 19 54 b 321 411 19 342 136 411 b 489 396 394 411 463 401 b 506 504 501 463 504 482 b 367 650 513 594 469 650 b 181 554 278 650 224 613 b 150 543 169 540 164 538 l 115 560 b 108 597 99 568 96 579 b 382 735 171 686 251 735 b 599 500 540 735 614 646 b 531 97 589 424 576 358 b 467 17 522 49 508 35 b 260 -19 411 -7 343 -19 m 265 58 b 407 83 319 58 365 68 b 442 124 429 92 436 99 l 476 318 b 310 335 447 325 383 335 b 115 171 179 335 115 275 b 265 58 115 100 151 58 "},"â":{"ha":692,"x_min":0,"x_max":0,"o":"m 214 829 b 200 853 192 829 188 842 l 386 1006 b 422 1022 401 1018 407 1022 l 446 1022 b 482 1004 464 1022 468 1019 l 613 849 b 601 829 621 839 621 829 l 560 829 b 525 846 539 829 535 833 l 429 958 l 292 842 b 251 829 278 829 271 829 l 214 829 m 260 -19 b 19 163 75 -19 19 54 b 321 411 19 342 136 411 b 489 396 394 411 463 401 b 506 504 501 463 504 482 b 367 650 513 594 469 650 b 181 554 278 650 224 613 b 150 543 169 540 164 538 l 115 560 b 108 597 99 568 96 579 b 382 735 171 686 251 735 b 599 500 540 735 614 646 b 531 97 589 424 576 358 b 467 17 522 49 508 35 b 260 -19 411 -7 343 -19 m 265 58 b 407 83 319 58 365 68 b 442 124 429 92 436 99 l 476 318 b 310 335 447 325 383 335 b 115 171 179 335 115 275 b 265 58 115 100 151 58 "},"ã":{"ha":692,"x_min":0,"x_max":0,"o":"m 225 849 b 211 878 213 849 208 856 b 329 1004 225 956 258 1004 b 499 911 424 1004 438 911 b 565 990 535 911 564 943 b 581 1004 568 1001 571 1004 l 613 1004 b 624 976 624 1004 626 997 b 508 849 615 894 574 849 b 338 942 417 849 401 942 b 269 864 296 942 279 907 b 254 849 268 853 265 849 l 225 849 m 260 -19 b 19 163 75 -19 19 54 b 321 411 19 342 136 411 b 489 396 394 411 463 401 b 506 504 501 463 504 482 b 367 650 513 594 469 650 b 181 554 278 650 224 613 b 150 543 169 540 164 538 l 115 560 b 108 597 99 568 96 579 b 382 735 171 686 251 735 b 599 500 540 735 614 646 b 531 97 589 424 576 358 b 467 17 522 49 508 35 b 260 -19 411 -7 343 -19 m 265 58 b 407 83 319 58 365 68 b 442 124 429 92 436 99 l 476 318 b 310 335 447 325 383 335 b 115 171 179 335 115 275 b 265 58 115 100 151 58 "},"ä":{"ha":692,"x_min":0,"x_max":0,"o":"m 283 874 b 243 925 247 874 235 888 l 244 933 b 297 979 251 971 261 979 l 306 979 b 347 928 342 979 354 964 l 346 918 b 292 874 339 882 328 874 l 283 874 m 531 874 b 489 925 494 874 482 888 l 490 933 b 544 979 497 971 508 979 l 553 979 b 594 928 589 979 600 964 l 592 918 b 539 874 585 882 575 874 l 531 874 m 260 -19 b 19 163 75 -19 19 54 b 321 411 19 342 136 411 b 489 396 394 411 463 401 b 506 504 501 463 504 482 b 367 650 513 594 469 650 b 181 554 278 650 224 613 b 150 543 169 540 164 538 l 115 560 b 108 597 99 568 96 579 b 382 735 171 686 251 735 b 599 500 540 735 614 646 b 531 97 589 424 576 358 b 467 17 522 49 508 35 b 260 -19 411 -7 343 -19 m 265 58 b 407 83 319 58 365 68 b 442 124 429 92 436 99 l 476 318 b 310 335 447 325 383 335 b 115 171 179 335 115 275 b 265 58 115 100 151 58 "},"å":{"ha":692,"x_min":0,"x_max":0,"o":"m 406 800 b 288 929 328 800 281 850 b 439 1069 296 1013 357 1069 b 554 939 514 1069 561 1018 b 406 800 547 857 486 800 m 410 849 b 504 939 460 849 499 885 b 438 1019 511 988 485 1019 b 339 932 386 1019 346 983 b 410 849 332 882 361 849 m 260 -19 b 19 163 75 -19 19 54 b 321 411 19 342 136 411 b 489 396 394 411 463 401 b 506 504 501 463 504 482 b 367 650 513 594 469 650 b 181 554 278 650 224 613 b 150 543 169 540 164 538 l 115 560 b 108 597 99 568 96 579 b 382 735 171 686 251 735 b 599 500 540 735 614 646 b 531 97 589 424 576 358 b 467 17 522 49 508 35 b 260 -19 411 -7 343 -19 m 265 58 b 407 83 319 58 365 68 b 442 124 429 92 436 99 l 476 318 b 310 335 447 325 383 335 b 115 171 179 335 115 275 b 265 58 115 100 151 58 "},"æ":{"ha":1053,"x_min":0,"x_max":0,"o":"m 235 -19 b 17 182 88 -19 10 46 b 314 413 22 340 124 413 b 456 397 374 413 429 401 b 471 492 463 443 468 469 b 358 656 483 585 475 656 b 171 553 272 656 221 618 b 140 549 161 540 156 540 l 113 563 b 104 593 96 571 94 578 b 363 735 163 682 242 735 b 535 613 476 735 519 683 b 757 735 581 689 651 735 b 986 550 904 735 989 664 b 697 299 982 371 851 299 b 526 322 638 299 583 307 l 511 231 b 632 51 492 119 518 51 b 843 181 726 51 796 103 b 871 185 850 193 863 190 l 906 167 b 911 135 921 158 919 149 b 628 -19 850 44 767 -19 b 454 69 540 -19 479 17 b 235 -19 408 25 343 -19 m 690 367 b 893 544 839 367 893 456 b 753 663 893 615 853 663 b 550 456 633 663 574 589 l 539 388 b 690 367 593 376 638 367 m 249 57 b 422 140 358 57 404 119 b 428 242 419 168 422 207 l 443 325 b 308 339 417 328 367 339 b 108 193 183 339 115 289 b 249 57 100 96 160 57 "},"ç":{"ha":696,"x_min":0,"x_max":0,"o":"m 208 -339 b 110 -308 158 -339 126 -321 b 99 -286 100 -303 96 -299 l 101 -261 b 115 -253 103 -253 108 -250 b 200 -282 136 -267 161 -282 b 297 -204 256 -282 294 -258 b 247 -149 300 -171 282 -151 b 197 -151 231 -147 214 -149 b 182 -126 181 -153 175 -139 l 240 -18 b 43 256 83 -7 14 92 l 81 465 b 389 735 111 639 214 735 b 632 539 544 735 619 663 b 614 510 635 521 631 517 l 575 499 b 547 517 558 493 550 499 b 390 650 535 610 493 650 b 174 461 269 650 194 581 l 136 249 b 282 64 115 133 165 64 b 482 200 390 64 442 115 b 519 219 494 224 499 225 l 561 207 b 567 161 576 201 578 188 b 300 -19 508 44 431 -12 l 258 -100 b 321 -110 281 -99 303 -101 b 382 -200 363 -118 385 -151 b 208 -339 378 -296 304 -339 "},"è":{"ha":688,"x_min":0,"x_max":0,"o":"m 271 968 b 268 1000 257 975 253 985 l 294 1025 b 339 1022 313 1043 325 1032 l 507 885 b 510 854 519 876 524 867 l 497 840 b 463 840 489 832 478 833 l 271 968 m 397 735 b 633 528 558 735 647 661 b 335 299 619 378 510 299 b 147 310 264 299 207 303 l 133 232 b 272 51 113 117 158 51 b 488 181 375 51 443 106 b 517 185 494 192 504 192 l 549 168 b 556 135 565 158 564 149 b 267 -19 496 44 414 -19 b 40 228 92 -19 24 76 b 76 447 46 282 56 339 b 397 735 108 631 214 735 m 539 524 b 392 663 551 619 496 663 b 172 454 276 663 196 592 l 158 378 b 321 367 215 369 268 367 b 539 524 446 367 526 418 "},"é":{"ha":688,"x_min":0,"x_max":0,"o":"m 304 858 b 308 888 297 869 299 882 l 529 1026 b 569 1019 546 1035 558 1035 l 588 994 b 583 965 594 983 594 969 l 346 838 b 315 842 329 831 321 833 m 397 735 b 633 528 558 735 647 661 b 335 299 619 378 510 299 b 147 310 264 299 207 303 l 133 232 b 272 51 113 117 158 51 b 488 181 375 51 443 106 b 517 185 494 192 504 192 l 549 168 b 556 135 565 158 564 149 b 267 -19 496 44 414 -19 b 40 228 92 -19 24 76 b 76 447 46 282 56 339 b 397 735 108 631 214 735 m 539 524 b 392 663 551 619 496 663 b 172 454 276 663 196 592 l 158 378 b 321 367 215 369 268 367 b 539 524 446 367 526 418 "},"ê":{"ha":688,"x_min":0,"x_max":0,"o":"m 225 831 b 211 854 203 831 199 843 l 397 1007 b 433 1024 413 1019 418 1024 l 457 1024 b 493 1006 475 1024 479 1021 l 624 850 b 613 831 632 840 632 831 l 571 831 b 536 847 550 831 546 835 l 440 960 l 303 843 b 263 831 289 831 282 831 l 225 831 m 397 735 b 633 528 558 735 647 661 b 335 299 619 378 510 299 b 147 310 264 299 207 303 l 133 232 b 272 51 113 117 158 51 b 488 181 375 51 443 106 b 517 185 494 192 504 192 l 549 168 b 556 135 565 158 564 149 b 267 -19 496 44 414 -19 b 40 228 92 -19 24 76 b 76 447 46 282 56 339 b 397 735 108 631 214 735 m 539 524 b 392 663 551 619 496 663 b 172 454 276 663 196 592 l 158 378 b 321 367 215 369 268 367 b 539 524 446 367 526 418 "},"ë":{"ha":688,"x_min":0,"x_max":0,"o":"m 293 875 b 253 926 257 875 244 889 l 254 935 b 307 981 261 972 271 981 l 315 981 b 357 929 351 981 364 965 l 356 919 b 301 875 349 883 338 875 l 293 875 m 540 875 b 499 926 504 875 492 889 l 500 935 b 554 981 507 972 518 981 l 563 981 b 604 929 599 981 610 965 l 601 919 b 549 875 594 883 585 875 l 540 875 m 397 735 b 633 528 558 735 647 661 b 335 299 619 378 510 299 b 147 310 264 299 207 303 l 133 232 b 272 51 113 117 158 51 b 488 181 375 51 443 106 b 517 185 494 192 504 192 l 549 168 b 556 135 565 158 564 149 b 267 -19 496 44 414 -19 b 40 228 92 -19 24 76 b 76 447 46 282 56 339 b 397 735 108 631 214 735 m 539 524 b 392 663 551 619 496 663 b 172 454 276 663 196 592 l 158 378 b 321 367 215 369 268 367 b 539 524 446 367 526 418 "},"ì":{"ha":314,"x_min":0,"x_max":0,"o":"m 296 826 b 264 829 288 818 278 822 l 100 953 b 99 985 85 961 83 969 l 124 1010 b 168 1007 139 1026 156 1018 l 310 871 b 311 842 321 863 324 856 l 296 826 m 46 0 b 28 28 28 0 25 11 l 146 692 b 175 714 149 707 157 714 l 221 714 b 239 686 238 714 243 704 l 121 24 b 92 0 118 7 110 0 l 46 0 "},"í":{"ha":314,"x_min":0,"x_max":0,"o":"m 108 844 b 111 871 100 857 99 863 l 306 1007 b 351 1000 324 1017 340 1015 l 368 975 b 363 946 378 963 382 954 l 151 824 b 119 829 135 817 126 819 m 46 0 b 28 28 28 0 25 11 l 146 692 b 175 714 149 707 157 714 l 221 714 b 239 686 238 714 243 704 l 121 24 b 92 0 118 7 110 0 l 46 0 "},"î":{"ha":314,"x_min":0,"x_max":0,"o":"m 65 828 b 51 850 44 828 42 839 l 189 990 b 240 1010 210 1011 217 1010 l 251 1010 b 293 983 271 1010 281 1007 l 381 846 b 369 828 388 835 390 828 l 336 828 b 297 844 314 828 303 831 l 238 949 l 139 839 b 99 828 125 824 118 828 l 65 828 m 46 0 b 28 28 28 0 25 11 l 146 692 b 175 714 149 707 157 714 l 221 714 b 239 686 238 714 243 704 l 121 24 b 92 0 118 7 110 0 l 46 0 "},"ï":{"ha":314,"x_min":0,"x_max":0,"o":"m 256 969 b 294 922 290 969 301 954 l 293 911 b 243 868 288 876 279 868 l 235 868 l 226 868 l 215 868 l 206 868 b 167 917 171 868 161 882 l 168 928 b 218 969 174 961 183 969 l 228 969 l 236 969 l 247 969 l 256 969 m 221 714 b 239 686 238 714 243 704 l 121 24 b 92 0 118 7 110 0 l 46 0 b 28 28 28 0 25 11 l 146 692 b 175 714 149 707 157 714 l 221 714 "},"ð":{"ha":740,"x_min":0,"x_max":0,"o":"m 282 -19 b 43 251 93 -19 14 85 l 78 442 b 382 706 107 615 218 706 b 572 600 483 706 549 664 b 536 865 593 724 582 810 l 433 772 b 415 772 425 764 422 765 l 397 789 b 396 810 389 796 386 801 l 494 896 b 292 946 451 928 388 946 b 265 972 269 946 261 953 l 271 1007 b 293 1031 274 1025 279 1031 b 563 965 417 1029 506 1007 l 642 1036 b 660 1038 649 1044 654 1043 l 681 1017 b 681 997 688 1010 689 1006 l 606 931 b 656 556 674 853 686 728 l 600 246 b 282 -19 571 76 464 -19 m 290 67 b 507 253 413 67 488 138 l 540 439 b 386 619 561 556 504 619 b 169 432 260 619 190 549 l 136 247 b 290 67 117 132 169 67 "},"ñ":{"ha":742,"x_min":0,"x_max":0,"o":"m 244 850 b 231 879 232 850 228 857 b 349 1006 244 957 278 1006 b 518 913 443 1006 457 913 b 585 992 554 913 583 944 b 600 1006 588 1003 590 1006 l 632 1006 b 643 978 643 1006 646 999 b 528 850 635 896 593 850 b 357 943 436 850 421 943 b 289 865 315 943 299 908 b 274 850 288 854 285 850 l 244 850 m 43 0 b 25 28 28 0 22 8 l 128 614 b 188 689 135 656 150 672 b 421 735 242 711 321 735 b 633 460 599 735 664 636 l 556 22 b 526 0 553 7 546 0 l 481 0 b 463 28 465 0 460 8 l 539 463 b 408 649 560 583 521 649 b 250 618 340 649 283 633 b 217 581 226 608 221 597 l 118 22 b 90 0 115 7 107 0 l 43 0 "},"ò":{"ha":729,"x_min":0,"x_max":0,"o":"m 281 967 b 278 999 267 974 263 983 l 304 1024 b 349 1021 322 1042 335 1031 l 517 883 b 519 853 529 875 533 865 l 507 839 b 472 839 499 831 488 832 m 278 -19 b 42 238 103 -19 14 81 l 85 482 b 399 735 114 646 226 735 b 639 476 575 735 667 631 l 596 232 b 278 -19 568 72 450 -19 m 286 65 b 503 238 403 65 485 132 l 546 482 b 392 649 565 588 501 649 b 178 476 276 649 197 582 l 135 232 b 286 65 117 128 179 65 "},"ó":{"ha":729,"x_min":0,"x_max":0,"o":"m 313 857 b 317 886 306 868 307 881 l 538 1025 b 578 1018 554 1033 567 1033 l 596 993 b 592 964 603 982 603 968 l 354 836 b 324 840 338 829 329 832 m 278 -19 b 42 238 103 -19 14 81 l 85 482 b 399 735 114 646 226 735 b 639 476 575 735 667 631 l 596 232 b 278 -19 568 72 450 -19 m 286 65 b 503 238 403 65 485 132 l 546 482 b 392 649 565 588 501 649 b 178 476 276 649 197 582 l 135 232 b 286 65 117 128 179 65 "},"ô":{"ha":729,"x_min":0,"x_max":0,"o":"m 233 829 b 219 853 211 829 207 842 l 406 1006 b 442 1022 421 1018 426 1022 l 465 1022 b 501 1004 483 1022 488 1019 l 632 849 b 621 829 640 839 640 829 l 579 829 b 544 846 558 829 554 833 l 449 958 l 311 842 b 271 829 297 829 290 829 l 233 829 m 278 -19 b 42 238 103 -19 14 81 l 85 482 b 399 735 114 646 226 735 b 639 476 575 735 667 631 l 596 232 b 278 -19 568 72 450 -19 m 286 65 b 503 238 403 65 485 132 l 546 482 b 392 649 565 588 501 649 b 178 476 276 649 197 582 l 135 232 b 286 65 117 128 179 65 "},"õ":{"ha":729,"x_min":0,"x_max":0,"o":"m 244 849 b 231 878 232 849 228 856 b 349 1004 244 956 278 1004 b 518 911 443 1004 457 911 b 585 990 554 911 583 943 b 600 1004 588 1001 590 1004 l 632 1004 b 643 976 643 1004 646 997 b 528 849 635 894 593 849 b 357 942 436 849 421 942 b 289 864 315 942 299 907 b 274 849 288 853 285 849 l 244 849 m 278 -19 b 42 238 103 -19 14 81 l 85 482 b 399 735 114 646 226 735 b 639 476 575 735 667 631 l 596 232 b 278 -19 568 72 450 -19 m 286 65 b 503 238 403 65 485 132 l 546 482 b 392 649 565 588 501 649 b 178 476 276 649 197 582 l 135 232 b 286 65 117 128 179 65 "},"ö":{"ha":729,"x_min":0,"x_max":0,"o":"m 303 874 b 263 925 267 874 254 888 l 264 933 b 317 979 271 971 281 979 l 325 979 b 367 928 361 979 374 964 l 365 918 b 311 874 358 882 347 874 l 303 874 m 550 874 b 508 925 514 874 501 888 l 510 933 b 564 979 517 971 528 979 l 572 979 b 614 928 608 979 619 964 l 611 918 b 558 874 604 882 594 874 l 550 874 m 278 -19 b 42 238 103 -19 14 81 l 85 482 b 399 735 114 646 226 735 b 639 476 575 735 667 631 l 596 232 b 278 -19 568 72 450 -19 m 286 65 b 503 238 403 65 485 132 l 546 482 b 392 649 565 588 501 649 b 178 476 276 649 197 582 l 135 232 b 286 65 117 128 179 65 "},"÷":{"ha":782,"x_min":0,"x_max":0,"o":"m 419 663 b 372 721 378 663 364 678 l 374 731 b 436 783 381 772 393 783 l 443 783 b 492 725 486 783 499 767 l 490 715 b 428 663 482 674 469 663 l 419 663 m 107 406 b 82 436 86 406 79 415 l 88 472 b 118 497 92 493 97 497 l 661 497 b 685 465 682 497 690 486 l 679 429 b 650 406 675 410 671 406 l 107 406 m 324 121 b 276 179 282 121 268 136 l 278 189 b 340 242 286 231 299 242 l 349 242 b 396 183 390 242 403 225 l 394 174 b 332 121 386 132 375 121 l 324 121 "},"ø":{"ha":729,"x_min":0,"x_max":0,"o":"m 10 -50 b 6 -36 0 -50 1 -43 l 79 56 b 42 238 43 99 28 163 l 85 482 b 399 735 114 643 229 735 b 564 689 469 735 526 718 l 619 758 b 636 765 624 765 629 765 l 675 765 b 682 753 685 765 688 758 l 604 656 b 639 476 638 611 653 550 l 596 232 b 279 -19 568 74 450 -19 b 121 22 211 -19 158 -6 l 71 -42 b 51 -50 65 -49 61 -50 l 10 -50 m 510 613 b 392 649 482 636 440 649 b 178 476 279 649 197 582 b 140 264 165 400 151 329 b 154 151 129 204 138 172 m 288 65 b 503 238 401 65 485 133 l 539 440 b 529 558 550 506 544 533 l 174 100 b 288 65 200 78 239 65 "},"ù":{"ha":742,"x_min":0,"x_max":0,"o":"m 286 967 b 283 999 272 974 268 983 l 310 1024 b 354 1021 328 1042 340 1031 l 522 883 b 525 853 535 875 539 865 l 513 839 b 478 839 504 831 493 832 m 271 -19 b 61 256 96 -19 32 85 l 139 692 b 168 714 142 710 153 714 l 213 714 b 232 686 231 714 236 706 l 156 251 b 286 67 133 128 171 67 b 447 96 357 67 413 81 b 479 138 468 106 475 117 l 576 692 b 604 714 579 708 589 714 l 649 714 b 671 686 669 714 674 706 l 567 100 b 510 24 560 58 550 42 b 271 -19 458 0 388 -19 "},"ú":{"ha":742,"x_min":0,"x_max":0,"o":"m 318 857 b 322 886 311 868 313 881 l 543 1025 b 583 1018 560 1033 572 1033 l 601 993 b 597 964 608 982 608 968 l 360 836 b 329 840 343 829 335 832 m 271 -19 b 61 256 96 -19 32 85 l 139 692 b 168 714 142 710 153 714 l 213 714 b 232 686 231 714 236 706 l 156 251 b 286 67 133 128 171 67 b 447 96 357 67 413 81 b 479 138 468 106 475 117 l 576 692 b 604 714 579 708 589 714 l 649 714 b 671 686 669 714 674 706 l 567 100 b 510 24 560 58 550 42 b 271 -19 458 0 388 -19 "},"û":{"ha":742,"x_min":0,"x_max":0,"o":"m 239 829 b 225 853 217 829 213 842 l 411 1006 b 447 1022 426 1018 432 1022 l 471 1022 b 507 1004 489 1022 493 1019 l 638 849 b 626 829 646 839 646 829 l 585 829 b 550 846 564 829 560 833 l 454 958 l 317 842 b 276 829 303 829 296 829 l 239 829 m 271 -19 b 61 256 96 -19 32 85 l 139 692 b 168 714 142 710 153 714 l 213 714 b 232 686 231 714 236 706 l 156 251 b 286 67 133 128 171 67 b 447 96 357 67 413 81 b 479 138 468 106 475 117 l 576 692 b 604 714 579 708 589 714 l 649 714 b 671 686 669 714 674 706 l 567 100 b 510 24 560 58 550 42 b 271 -19 458 0 388 -19 "},"ü":{"ha":742,"x_min":0,"x_max":0,"o":"m 308 874 b 268 925 272 874 260 888 l 269 933 b 322 979 276 971 286 979 l 331 979 b 372 928 367 979 379 964 l 371 918 b 317 874 364 882 353 874 l 308 874 m 556 874 b 514 925 519 874 507 888 l 515 933 b 569 979 522 971 533 979 l 578 979 b 619 928 614 979 625 964 l 617 918 b 564 874 610 882 600 874 l 556 874 m 271 -19 b 61 256 96 -19 32 85 l 139 692 b 168 714 142 710 153 714 l 213 714 b 232 686 231 714 236 706 l 156 251 b 286 67 133 128 171 67 b 447 96 357 67 413 81 b 479 138 468 106 475 117 l 576 692 b 604 714 579 708 589 714 l 649 714 b 671 686 669 714 674 706 l 567 100 b 510 24 560 58 550 42 b 271 -19 458 0 388 -19 "},"ý":{"ha":746,"x_min":0,"x_max":0,"o":"m 318 857 b 322 886 311 868 313 881 l 543 1025 b 583 1018 560 1033 572 1033 l 601 993 b 597 964 608 982 608 968 l 360 836 b 329 840 343 829 335 832 m 228 -343 b -1 -189 94 -343 28 -282 b 7 -154 -8 -172 -7 -162 l 49 -135 b 74 -142 58 -129 67 -128 b 226 -257 97 -207 129 -257 b 447 -46 356 -257 422 -179 l 464 36 b 268 -3 421 22 358 -3 b 64 274 97 -3 33 101 l 138 692 b 168 714 142 711 153 714 l 211 714 b 232 686 229 714 235 706 l 158 271 b 289 83 136 146 172 83 b 475 121 375 83 438 107 l 576 692 b 606 714 579 711 592 714 l 650 714 b 669 686 668 714 674 706 l 540 -46 b 228 -343 508 -226 418 -343 "},"þ":{"ha":728,"x_min":0,"x_max":0,"o":"m -7 -306 b -25 -278 -24 -306 -29 -296 l 200 1004 b 231 1028 204 1024 213 1028 l 275 1028 b 293 999 292 1028 297 1018 l 239 697 b 415 735 271 710 336 735 b 638 451 599 735 669 636 l 603 253 b 303 -19 572 79 474 -19 b 122 26 219 -19 149 13 l 68 -281 b 40 -306 64 -299 56 -306 l -7 -306 m 304 67 b 510 263 424 67 488 133 l 544 457 b 401 649 567 583 522 649 b 224 606 317 649 251 619 l 138 113 b 304 67 164 97 225 67 "},"ÿ":{"ha":746,"x_min":0,"x_max":0,"o":"m 307 874 b 267 925 271 874 258 888 l 268 933 b 321 979 275 971 285 979 l 329 979 b 371 928 365 979 378 964 l 369 918 b 315 874 363 882 351 874 l 307 874 m 554 874 b 513 925 518 874 506 888 l 514 933 b 568 979 521 971 532 979 l 576 979 b 618 928 613 979 624 964 l 615 918 b 563 874 608 882 599 874 l 554 874 m 228 -343 b -1 -189 94 -343 28 -282 b 7 -154 -8 -172 -7 -162 l 49 -135 b 74 -142 58 -129 67 -128 b 226 -257 97 -207 129 -257 b 447 -46 356 -257 422 -179 l 464 36 b 268 -3 421 22 358 -3 b 64 274 97 -3 33 101 l 138 692 b 168 714 142 711 153 714 l 211 714 b 232 686 229 714 235 706 l 158 271 b 289 83 136 146 172 83 b 475 121 375 83 438 107 l 576 692 b 606 714 579 711 592 714 l 650 714 b 669 686 668 714 674 706 l 540 -46 b 228 -343 508 -226 418 -343 "},"Ā":{"ha":871,"x_min":0,"x_max":0,"o":"m 389 1111 b 369 1138 371 1111 365 1119 l 372 1160 b 404 1181 375 1178 388 1181 l 708 1181 b 731 1154 729 1181 735 1172 l 728 1133 b 700 1111 724 1115 714 1111 l 389 1111 m -33 0 b -49 31 -53 0 -58 13 l 458 969 b 494 990 469 989 475 990 l 546 990 b 575 965 564 990 572 982 l 751 25 b 733 0 756 7 753 0 l 683 0 b 644 28 656 0 646 8 l 597 286 l 200 286 l 58 22 b 14 0 49 1 42 0 l -33 0 m 583 374 l 515 775 b 508 894 510 814 507 843 l 504 894 b 453 768 493 864 478 821 l 244 374 "},"ā":{"ha":692,"x_min":0,"x_max":0,"o":"m 261 886 b 239 913 242 886 236 894 l 243 935 b 275 956 246 953 258 956 l 579 956 b 601 928 599 956 606 947 l 597 907 b 571 886 594 890 585 886 l 261 886 m 260 -19 b 19 163 75 -19 19 54 b 321 411 19 342 136 411 b 489 396 394 411 463 401 b 506 504 501 463 504 482 b 367 650 513 594 469 650 b 181 554 278 650 224 613 b 150 543 169 540 164 538 l 115 560 b 108 597 99 568 96 579 b 382 735 171 686 251 735 b 599 500 540 735 614 646 b 531 97 589 424 576 358 b 467 17 522 49 508 35 b 260 -19 411 -7 343 -19 m 265 58 b 407 83 319 58 365 68 b 442 124 429 92 436 99 l 476 318 b 310 335 447 325 383 335 b 115 171 179 335 115 275 b 265 58 115 100 151 58 "},"Ă":{"ha":871,"x_min":0,"x_max":0,"o":"m 542 1060 b 372 1213 443 1060 383 1110 b 381 1236 368 1228 369 1233 l 417 1247 b 440 1233 429 1251 435 1249 b 544 1131 446 1165 483 1131 b 688 1239 611 1131 656 1163 b 713 1246 694 1250 699 1251 l 749 1232 b 757 1207 761 1228 763 1224 b 542 1060 717 1110 642 1060 m -33 0 b -49 31 -53 0 -58 13 l 458 969 b 494 990 469 989 475 990 l 546 990 b 575 965 564 990 572 982 l 751 25 b 733 0 756 7 753 0 l 683 0 b 644 28 656 0 646 8 l 597 286 l 200 286 l 58 22 b 14 0 49 1 42 0 l -33 0 m 583 374 l 515 775 b 508 894 510 814 507 843 l 504 894 b 453 768 493 864 478 821 l 244 374 "},"ă":{"ha":692,"x_min":0,"x_max":0,"o":"m 410 833 b 239 986 311 833 250 883 b 249 1010 236 1000 238 1007 l 285 1021 b 308 1007 297 1024 304 1021 b 413 904 314 936 350 904 b 556 1011 479 904 519 939 b 579 1019 561 1024 567 1025 l 618 1006 b 624 981 629 1001 631 996 b 410 833 578 886 508 833 m 260 -19 b 19 163 75 -19 19 54 b 321 411 19 342 136 411 b 489 396 394 411 463 401 b 506 504 501 463 504 482 b 367 650 513 594 469 650 b 181 554 278 650 224 613 b 150 543 169 540 164 538 l 115 560 b 108 597 99 568 96 579 b 382 735 171 686 251 735 b 599 500 540 735 614 646 b 531 97 589 424 576 358 b 467 17 522 49 508 35 b 260 -19 411 -7 343 -19 m 265 58 b 407 83 319 58 365 68 b 442 124 429 92 436 99 l 476 318 b 310 335 447 325 383 335 b 115 171 179 335 115 275 b 265 58 115 100 151 58 "},"Ą":{"ha":871,"x_min":0,"x_max":0,"o":"m 590 -343 b 500 -265 542 -343 506 -322 b 676 4 492 -185 572 -90 b 643 32 657 4 644 15 l 597 286 l 199 286 l 58 22 b 14 0 49 1 42 0 l -33 0 b -49 31 -53 0 -58 13 l 458 969 b 494 990 469 989 476 990 l 546 990 b 575 965 565 990 572 982 l 751 25 b 746 -1 754 13 751 4 b 585 -237 647 -100 581 -178 b 621 -271 588 -260 600 -271 b 693 -239 643 -271 668 -262 b 707 -246 700 -235 704 -239 l 717 -278 b 710 -301 721 -290 717 -296 b 590 -343 669 -331 626 -343 m 583 374 l 515 775 b 508 894 510 814 507 843 l 504 894 b 453 768 493 864 478 821 l 244 374 "},"ą":{"ha":692,"x_min":0,"x_max":0,"o":"m 339 -343 b 250 -264 293 -343 253 -321 b 403 3 246 -193 307 -96 b 254 -19 360 -12 313 -19 b 14 163 69 -19 14 54 b 315 411 14 342 131 411 b 483 396 389 411 457 401 b 500 504 496 463 499 482 b 361 650 507 594 464 650 b 175 554 274 650 218 613 b 144 543 164 540 158 538 l 110 560 b 103 597 93 568 90 579 b 376 735 165 686 246 735 b 593 500 535 735 608 646 b 526 107 585 429 572 363 b 494 28 519 67 508 43 b 335 -237 396 -78 332 -176 b 372 -271 336 -265 354 -271 b 443 -239 396 -271 421 -258 b 458 -247 451 -235 456 -240 l 467 -276 b 461 -299 469 -289 469 -293 b 339 -343 425 -328 381 -343 m 260 58 b 401 83 314 58 361 67 b 436 124 422 92 431 99 l 471 318 b 304 335 442 325 378 335 b 110 171 174 335 110 275 b 260 58 110 100 146 58 "},"Ć":{"ha":864,"x_min":0,"x_max":0,"o":"m 426 1082 b 431 1110 419 1092 422 1104 l 651 1249 b 693 1242 668 1258 682 1257 l 710 1217 b 706 1189 718 1207 717 1193 l 468 1060 b 438 1065 453 1053 444 1057 m 365 -19 b 68 333 135 -19 29 115 l 126 660 b 529 1006 164 876 301 1006 b 838 761 729 1006 814 919 b 821 732 842 744 838 736 l 772 718 b 742 739 754 713 747 719 b 524 911 728 854 664 911 b 228 656 353 911 256 814 l 168 325 b 375 76 142 167 213 76 b 654 263 522 75 597 143 b 690 272 663 278 672 279 l 733 257 b 746 217 750 250 757 240 b 365 -19 674 64 561 -19 "},"ć":{"ha":696,"x_min":0,"x_max":0,"o":"m 310 857 b 314 886 303 868 304 881 l 535 1025 b 575 1018 551 1033 564 1033 l 593 993 b 589 964 600 982 600 968 l 351 836 b 321 840 335 829 326 832 m 275 -19 b 43 256 92 -19 13 81 l 81 465 b 389 735 111 639 214 735 b 632 539 544 735 619 663 b 614 510 635 521 631 517 l 575 499 b 547 517 558 493 551 499 b 390 650 535 610 493 650 b 174 461 268 650 194 581 l 136 249 b 282 64 115 133 163 64 b 482 200 389 64 435 115 b 519 219 494 224 499 225 l 561 207 b 567 161 576 201 578 188 b 275 -19 506 39 419 -19 "},"Ĉ":{"ha":864,"x_min":0,"x_max":0,"o":"m 361 1060 b 349 1083 339 1060 336 1074 l 533 1236 b 571 1253 549 1249 556 1253 l 593 1253 b 629 1235 611 1253 617 1250 l 760 1079 b 749 1060 768 1069 768 1060 l 708 1060 b 672 1076 688 1060 683 1064 l 578 1189 l 440 1072 b 399 1060 425 1060 418 1060 l 361 1060 m 365 -19 b 68 333 135 -19 29 115 l 126 660 b 529 1006 164 876 301 1006 b 838 761 729 1006 814 919 b 821 732 842 744 838 736 l 772 718 b 742 739 754 713 747 719 b 524 911 728 854 664 911 b 228 656 353 911 256 814 l 168 325 b 375 76 142 167 213 76 b 654 263 522 75 597 143 b 690 272 663 278 672 279 l 733 257 b 746 217 750 250 757 240 b 365 -19 674 64 561 -19 "},"ĉ":{"ha":696,"x_min":0,"x_max":0,"o":"m 231 829 b 217 853 208 829 204 842 l 403 1006 b 439 1022 418 1018 424 1022 l 463 1022 b 499 1004 481 1022 485 1019 l 629 849 b 618 829 638 839 638 829 l 576 829 b 542 846 556 829 551 833 l 446 958 l 308 842 b 268 829 294 829 288 829 l 231 829 m 275 -19 b 43 256 92 -19 13 81 l 81 465 b 389 735 111 639 214 735 b 632 539 544 735 619 663 b 614 510 635 521 631 517 l 575 499 b 547 517 558 493 551 499 b 390 650 535 610 493 650 b 174 461 268 650 194 581 l 136 249 b 282 64 115 133 163 64 b 482 200 389 64 435 115 b 519 219 494 224 499 225 l 561 207 b 567 161 576 201 578 188 b 275 -19 506 39 419 -19 "},"Ċ":{"ha":864,"x_min":0,"x_max":0,"o":"m 558 1094 b 517 1146 521 1094 510 1108 l 519 1153 b 571 1197 525 1190 535 1197 l 578 1197 b 619 1147 614 1197 625 1183 l 618 1139 b 564 1094 611 1103 601 1094 l 558 1094 m 365 -19 b 68 333 135 -19 29 115 l 126 660 b 529 1006 164 876 301 1006 b 838 761 729 1006 814 919 b 821 732 842 744 838 736 l 772 718 b 742 739 754 713 747 719 b 524 911 728 854 664 911 b 228 656 353 911 256 814 l 168 325 b 375 76 142 167 213 76 b 654 263 522 75 597 143 b 690 272 663 278 672 279 l 733 257 b 746 217 750 250 757 240 b 365 -19 674 64 561 -19 "},"ċ":{"ha":696,"x_min":0,"x_max":0,"o":"m 417 881 b 382 932 383 881 374 892 l 383 946 b 431 993 392 983 400 993 l 464 993 b 499 940 496 993 506 976 l 496 926 b 449 881 489 888 481 881 l 417 881 m 275 -19 b 43 256 92 -19 13 81 l 81 465 b 389 735 111 639 214 735 b 632 539 544 735 619 663 b 614 510 635 521 631 517 l 575 499 b 547 517 558 493 551 499 b 390 650 535 610 493 650 b 174 461 268 650 194 581 l 136 249 b 282 64 115 133 163 64 b 482 200 389 64 435 115 b 519 219 494 224 499 225 l 561 207 b 567 161 576 201 578 188 b 275 -19 506 39 419 -19 "},"Č":{"ha":864,"x_min":0,"x_max":0,"o":"m 546 1058 b 504 1082 525 1058 518 1065 l 378 1232 b 390 1251 368 1243 368 1251 l 429 1251 b 464 1238 450 1251 454 1250 l 560 1121 l 699 1239 b 736 1251 713 1251 717 1251 l 776 1251 b 789 1228 799 1251 801 1239 l 608 1079 b 560 1058 586 1061 581 1058 l 546 1058 m 365 -19 b 68 333 135 -19 29 115 l 126 660 b 529 1006 164 876 301 1006 b 838 761 729 1006 814 919 b 821 732 842 744 838 736 l 772 718 b 742 739 754 713 747 719 b 524 911 728 854 664 911 b 228 656 353 911 256 814 l 168 325 b 375 76 142 167 213 76 b 654 263 522 75 597 143 b 690 272 663 278 672 279 l 733 257 b 746 217 750 250 757 240 b 365 -19 674 64 561 -19 "},"č":{"ha":696,"x_min":0,"x_max":0,"o":"m 404 828 b 364 851 385 828 378 833 l 236 1001 b 249 1021 228 1011 226 1021 l 289 1021 b 324 1006 310 1021 314 1019 l 419 890 l 557 1008 b 594 1021 571 1021 575 1021 l 635 1021 b 647 997 657 1021 658 1007 l 467 849 b 418 828 444 831 440 828 l 404 828 m 275 -19 b 43 256 92 -19 13 81 l 81 465 b 389 735 111 639 214 735 b 632 539 544 735 619 663 b 614 510 635 521 631 517 l 575 499 b 547 517 558 493 551 499 b 390 650 535 610 493 650 b 174 461 268 650 194 581 l 136 249 b 282 64 115 133 163 64 b 482 200 389 64 435 115 b 519 219 494 224 499 225 l 561 207 b 567 161 576 201 578 188 b 275 -19 506 39 419 -19 "},"Ď":{"ha":888,"x_min":0,"x_max":0,"o":"m 518 1058 b 476 1082 497 1058 490 1065 l 350 1232 b 363 1251 340 1243 340 1251 l 401 1251 b 436 1238 422 1251 426 1250 l 532 1121 l 671 1239 b 708 1251 685 1251 689 1251 l 749 1251 b 761 1228 771 1251 774 1239 l 581 1079 b 532 1058 558 1061 553 1058 l 518 1058 m 65 0 b 44 31 46 0 40 7 l 208 961 b 240 986 213 981 222 986 l 506 986 b 817 617 750 986 857 843 l 772 364 b 340 0 732 138 582 0 l 65 0 m 349 94 b 671 369 524 94 640 197 l 715 624 b 499 892 746 794 678 892 l 297 892 l 158 94 "},"ď":{"ha":817,"x_min":0,"x_max":0,"o":"m 281 -19 b 46 268 92 -19 13 82 l 81 465 b 382 735 113 643 217 735 b 563 690 469 735 533 706 l 618 1006 b 647 1028 621 1021 629 1028 l 693 1028 b 713 1000 710 1028 715 1019 l 551 96 b 493 18 544 50 533 35 b 281 -19 443 -3 361 -19 m 767 781 b 751 803 751 781 746 788 l 826 1006 b 858 1028 833 1025 839 1028 l 897 1028 b 919 999 919 1028 929 1017 l 821 801 b 790 781 813 785 807 781 l 767 781 m 286 67 b 429 93 344 67 397 79 b 465 133 456 104 460 108 l 549 606 b 388 649 526 618 468 649 b 174 457 267 649 197 588 l 140 264 b 286 67 115 132 164 67 "},"Đ":{"ha":885,"x_min":0,"x_max":0,"o":"m 61 0 b 42 31 42 0 39 10 l 118 461 l 40 461 b 22 485 19 461 19 471 l 28 519 b 49 535 31 533 35 535 l 131 535 l 206 961 b 236 986 210 982 219 986 l 504 986 b 814 617 749 986 854 843 l 769 364 b 336 0 729 138 575 0 l 61 0 m 347 94 b 668 369 521 94 639 197 l 713 624 b 496 892 744 794 676 892 l 296 892 l 233 535 l 432 535 b 449 514 447 535 450 528 l 442 476 b 421 461 439 463 435 461 l 219 461 l 156 94 "},"đ":{"ha":721,"x_min":0,"x_max":0,"o":"m 281 -19 b 47 268 92 -19 14 82 l 82 465 b 382 735 114 643 217 735 b 563 690 471 735 533 706 l 592 847 l 407 847 b 392 869 392 847 389 854 l 396 892 b 415 908 399 906 404 908 l 601 908 l 619 1006 b 647 1028 622 1021 631 1028 l 693 1028 b 713 1000 710 1028 715 1019 l 696 908 l 776 908 b 792 886 792 908 794 903 l 788 864 b 769 847 785 850 781 847 l 686 847 l 553 96 b 493 18 544 50 533 35 b 281 -19 444 -3 361 -19 m 288 67 b 431 93 346 67 399 79 b 465 133 456 104 461 108 l 549 606 b 388 649 526 618 468 649 b 175 457 268 649 197 588 l 140 264 b 288 67 117 132 164 67 "},"Ē":{"ha":776,"x_min":0,"x_max":0,"o":"m 363 1111 b 343 1138 344 1111 339 1119 l 346 1160 b 378 1181 349 1178 361 1181 l 682 1181 b 704 1154 703 1181 708 1172 l 701 1133 b 674 1111 697 1115 688 1111 l 363 1111 m 65 0 b 44 29 46 0 40 8 l 208 961 b 242 986 213 982 222 986 l 750 986 b 772 956 774 986 775 976 l 765 917 b 738 892 761 897 754 892 l 297 892 l 238 547 l 615 547 b 638 519 635 547 640 540 l 629 478 b 601 453 626 458 618 453 l 221 453 l 158 94 l 607 94 b 631 67 629 94 635 88 l 624 25 b 596 0 619 6 611 0 l 65 0 "},"ē":{"ha":688,"x_min":0,"x_max":0,"o":"m 272 888 b 250 914 253 888 247 896 l 254 936 b 286 957 257 954 269 957 l 590 957 b 613 929 610 957 617 949 l 608 908 b 582 888 606 892 596 888 l 272 888 m 397 735 b 633 528 558 735 647 661 b 335 299 619 378 510 299 b 147 310 264 299 207 303 l 133 232 b 272 51 113 117 158 51 b 488 181 375 51 443 106 b 517 185 494 192 504 192 l 549 168 b 556 135 565 158 564 149 b 267 -19 496 44 414 -19 b 40 228 92 -19 24 76 b 76 447 46 282 56 339 b 397 735 108 631 214 735 m 539 524 b 392 663 551 619 496 663 b 172 454 276 663 196 592 l 158 378 b 321 367 215 369 268 367 b 539 524 446 367 526 418 "},"Ĕ":{"ha":776,"x_min":0,"x_max":0,"o":"m 517 1060 b 347 1213 418 1060 358 1110 b 356 1236 343 1228 344 1233 l 392 1247 b 415 1233 404 1251 410 1249 b 519 1131 421 1165 458 1131 b 663 1239 586 1131 631 1163 b 688 1246 669 1250 674 1251 l 724 1232 b 732 1207 736 1228 738 1224 b 517 1060 692 1110 617 1060 m 65 0 b 44 29 46 0 40 8 l 208 961 b 242 986 213 982 222 986 l 750 986 b 772 956 774 986 775 976 l 765 917 b 738 892 761 897 754 892 l 297 892 l 238 547 l 615 547 b 638 519 635 547 640 540 l 629 478 b 601 453 626 458 618 453 l 221 453 l 158 94 l 607 94 b 631 67 629 94 635 88 l 624 25 b 596 0 619 6 611 0 l 65 0 "},"ĕ":{"ha":688,"x_min":0,"x_max":0,"o":"m 419 835 b 249 988 321 835 260 885 b 258 1011 246 1001 247 1008 l 294 1022 b 318 1008 307 1025 314 1022 b 422 906 324 938 360 906 b 565 1013 489 906 529 940 b 589 1021 571 1025 576 1026 l 628 1007 b 633 982 639 1003 640 997 b 419 835 588 888 518 835 m 397 735 b 633 528 558 735 647 661 b 335 299 619 378 510 299 b 147 310 264 299 207 303 l 133 232 b 272 51 113 117 158 51 b 488 181 375 51 443 106 b 517 185 494 192 504 192 l 549 168 b 556 135 565 158 564 149 b 267 -19 496 44 414 -19 b 40 228 92 -19 24 76 b 76 447 46 282 56 339 b 397 735 108 631 214 735 m 539 524 b 392 663 551 619 496 663 b 172 454 276 663 196 592 l 158 378 b 321 367 215 369 268 367 b 539 524 446 367 526 418 "},"Ė":{"ha":776,"x_min":0,"x_max":0,"o":"m 515 1094 b 474 1146 478 1094 467 1108 l 476 1153 b 528 1197 482 1190 492 1197 l 535 1197 b 576 1147 571 1197 582 1183 l 575 1139 b 521 1094 568 1103 558 1094 l 515 1094 m 65 0 b 44 29 46 0 40 8 l 208 961 b 242 986 213 982 222 986 l 750 986 b 772 956 774 986 775 976 l 765 917 b 738 892 761 897 754 892 l 297 892 l 238 547 l 615 547 b 638 519 635 547 640 540 l 629 478 b 601 453 626 458 618 453 l 221 453 l 158 94 l 607 94 b 631 67 629 94 635 88 l 624 25 b 596 0 619 6 611 0 l 65 0 "},"ė":{"ha":688,"x_min":0,"x_max":0,"o":"m 410 882 b 375 933 376 882 367 893 l 376 947 b 424 994 385 985 393 994 l 457 994 b 492 942 489 994 499 978 l 489 928 b 442 882 482 889 474 882 l 410 882 m 397 735 b 633 528 558 735 647 661 b 335 299 619 378 510 299 b 147 310 264 299 207 303 l 133 232 b 272 51 113 117 158 51 b 488 181 375 51 443 106 b 517 185 494 192 504 192 l 549 168 b 556 135 565 158 564 149 b 267 -19 496 44 414 -19 b 40 228 92 -19 24 76 b 76 447 46 282 56 339 b 397 735 108 631 214 735 m 539 524 b 392 663 551 619 496 663 b 172 454 276 663 196 592 l 158 378 b 321 367 215 369 268 367 b 539 524 446 367 526 418 "},"Ę":{"ha":776,"x_min":0,"x_max":0,"o":"m 456 -343 b 367 -269 406 -343 372 -319 b 539 0 357 -187 447 -81 l 64 0 b 44 31 46 0 40 8 l 208 961 b 242 986 213 981 219 986 l 753 986 b 772 956 771 986 775 979 l 765 915 b 738 892 761 897 756 892 l 297 892 l 238 547 l 617 547 b 636 517 635 547 640 539 l 629 476 b 603 453 626 460 618 453 l 221 453 l 158 94 l 608 94 b 632 65 628 94 635 88 l 624 25 b 614 -1 622 13 621 6 b 451 -236 539 -69 447 -176 b 488 -271 453 -261 467 -271 b 560 -239 511 -271 535 -261 b 574 -247 565 -236 571 -237 l 582 -276 b 572 -303 586 -287 583 -294 b 456 -343 540 -331 497 -343 "},"ę":{"ha":711,"x_min":0,"x_max":0,"o":"m 322 -343 b 233 -265 272 -343 236 -317 b 381 0 231 -192 286 -93 b 267 -19 349 -12 306 -19 b 40 228 92 -19 24 76 b 76 447 46 282 56 339 b 397 735 108 631 214 735 b 633 528 558 735 647 661 b 343 299 619 378 511 299 b 150 324 281 299 207 307 l 133 232 b 272 51 113 117 160 51 b 488 181 369 51 436 99 b 517 185 494 192 506 192 l 550 168 b 560 142 563 161 564 153 b 318 -232 499 46 322 -106 b 356 -271 318 -264 335 -271 b 426 -239 379 -271 404 -260 b 442 -249 435 -235 439 -240 l 450 -278 b 446 -299 451 -285 453 -292 b 322 -343 406 -331 360 -343 m 338 367 b 539 524 447 367 526 418 b 392 663 551 619 496 663 b 172 454 276 663 197 592 l 160 390 b 338 367 217 372 283 367 "},"Ě":{"ha":776,"x_min":0,"x_max":0,"o":"m 503 1058 b 461 1082 482 1058 475 1065 l 335 1232 b 347 1251 325 1243 325 1251 l 386 1251 b 421 1238 407 1251 411 1250 l 517 1121 l 656 1239 b 693 1251 669 1251 674 1251 l 733 1251 b 746 1228 756 1251 758 1239 l 565 1079 b 517 1058 543 1061 538 1058 l 503 1058 m 65 0 b 44 29 46 0 40 8 l 208 961 b 242 986 213 982 222 986 l 750 986 b 772 956 774 986 775 976 l 765 917 b 738 892 761 897 754 892 l 297 892 l 238 547 l 615 547 b 638 519 635 547 640 540 l 629 478 b 601 453 626 458 618 453 l 221 453 l 158 94 l 607 94 b 631 67 629 94 635 88 l 624 25 b 596 0 619 6 611 0 l 65 0 "},"ě":{"ha":688,"x_min":0,"x_max":0,"o":"m 628 1022 b 640 999 650 1022 651 1008 l 460 850 b 411 829 438 832 433 829 l 397 829 b 357 853 378 829 371 835 l 229 1003 b 242 1022 221 1013 219 1022 l 282 1022 b 317 1007 303 1022 307 1021 l 413 892 l 550 1010 b 588 1022 564 1022 568 1022 l 628 1022 m 397 735 b 633 528 558 735 647 661 b 335 299 619 378 510 299 b 147 310 264 299 207 303 l 133 232 b 272 51 113 117 158 51 b 488 181 375 51 443 106 b 517 185 494 192 504 192 l 549 168 b 556 135 565 158 564 149 b 267 -19 496 44 414 -19 b 40 228 92 -19 24 76 b 76 447 46 282 56 339 b 397 735 108 631 214 735 m 539 524 b 392 663 551 619 496 663 b 172 454 276 663 196 592 l 158 378 b 321 367 215 369 268 367 b 539 524 446 367 526 418 "},"Ĝ":{"ha":889,"x_min":0,"x_max":0,"o":"m 360 1074 b 347 1097 338 1074 335 1088 l 532 1250 b 569 1267 547 1263 554 1267 l 592 1267 b 628 1249 610 1267 615 1264 l 758 1093 b 747 1074 767 1083 767 1074 l 707 1074 b 671 1090 686 1074 682 1078 l 576 1203 l 439 1086 b 397 1074 424 1074 417 1074 l 360 1074 m 367 -19 b 68 333 136 -19 29 115 l 126 660 b 531 1006 165 882 303 1006 b 835 774 718 1006 811 928 b 819 732 843 747 839 738 l 771 718 b 743 739 758 714 749 719 b 526 911 731 854 668 911 b 226 654 354 911 256 815 l 169 328 b 378 75 142 169 213 75 b 674 313 542 75 647 165 l 692 421 l 453 421 b 431 451 435 421 426 429 l 438 490 b 469 515 440 510 449 515 l 779 515 b 801 482 799 515 806 506 l 771 308 b 367 -19 736 107 586 -19 "},"ĝ":{"ha":728,"x_min":0,"x_max":0,"o":"m 242 829 b 228 853 219 829 215 842 l 414 1006 b 450 1022 429 1018 435 1022 l 474 1022 b 510 1004 492 1022 496 1019 l 640 849 b 629 829 649 839 649 829 l 588 829 b 553 846 567 829 563 833 l 457 958 l 319 842 b 279 829 306 829 299 829 l 242 829 m 214 -343 b -12 -189 85 -343 17 -282 b -6 -154 -21 -171 -19 -161 l 38 -133 b 65 -143 51 -126 57 -129 b 214 -257 90 -212 125 -257 b 432 -46 343 -257 407 -179 l 449 36 b 251 -3 403 17 338 -3 b 46 269 82 -3 18 97 l 79 453 b 396 735 113 643 210 735 b 607 693 482 735 558 717 b 643 617 643 675 650 661 l 525 -49 b 214 -343 492 -236 397 -343 m 275 83 b 461 124 358 83 418 104 l 543 581 b 522 622 547 606 546 611 b 389 649 493 636 446 649 b 172 444 261 649 197 583 l 140 268 b 275 83 118 146 158 83 "},"Ğ":{"ha":889,"x_min":0,"x_max":0,"o":"m 560 1074 b 390 1226 461 1074 401 1124 b 399 1250 386 1242 388 1247 l 435 1261 b 458 1247 447 1265 453 1263 b 563 1144 464 1179 501 1144 b 706 1253 629 1144 674 1176 b 731 1260 713 1264 717 1265 l 767 1246 b 775 1221 779 1242 781 1238 b 560 1074 735 1124 660 1074 m 367 -19 b 68 333 136 -19 29 115 l 126 660 b 531 1006 165 882 303 1006 b 835 774 718 1006 811 928 b 819 732 843 747 839 738 l 771 718 b 743 739 758 714 749 719 b 526 911 731 854 668 911 b 226 654 354 911 256 815 l 169 328 b 378 75 142 169 213 75 b 674 313 542 75 647 165 l 692 421 l 453 421 b 431 451 435 421 426 429 l 438 490 b 469 515 440 510 449 515 l 779 515 b 801 482 799 515 806 506 l 771 308 b 367 -19 736 107 586 -19 "},"ğ":{"ha":728,"x_min":0,"x_max":0,"o":"m 438 833 b 267 986 339 833 278 883 b 276 1010 264 1000 265 1007 l 313 1021 b 336 1007 325 1024 332 1021 b 440 904 342 936 378 904 b 583 1011 507 904 547 939 b 607 1019 589 1024 594 1025 l 646 1006 b 651 981 657 1001 658 996 b 438 833 606 886 536 833 m 214 -343 b -12 -189 85 -343 17 -282 b -6 -154 -21 -171 -19 -161 l 38 -133 b 65 -143 51 -126 57 -129 b 214 -257 90 -212 125 -257 b 432 -46 343 -257 407 -179 l 449 36 b 251 -3 403 17 338 -3 b 46 269 82 -3 18 97 l 79 453 b 396 735 113 643 210 735 b 607 693 482 735 558 717 b 643 617 643 675 650 661 l 525 -49 b 214 -343 492 -236 397 -343 m 275 83 b 461 124 358 83 418 104 l 543 581 b 522 622 547 606 546 611 b 389 649 493 636 446 649 b 172 444 261 649 197 583 l 140 268 b 275 83 118 146 158 83 "},"Ġ":{"ha":889,"x_min":0,"x_max":0,"o":"m 558 1108 b 517 1160 521 1108 510 1122 l 519 1167 b 571 1211 525 1204 535 1211 l 578 1211 b 619 1161 614 1211 625 1197 l 618 1153 b 564 1108 611 1117 601 1108 l 558 1108 m 367 -19 b 68 333 136 -19 29 115 l 126 660 b 531 1006 165 882 303 1006 b 835 774 718 1006 811 928 b 819 732 843 747 839 738 l 771 718 b 743 739 758 714 749 719 b 526 911 731 854 668 911 b 226 654 354 911 256 815 l 169 328 b 378 75 142 169 213 75 b 674 313 542 75 647 165 l 692 421 l 453 421 b 431 451 435 421 426 429 l 438 490 b 469 515 440 510 449 515 l 779 515 b 801 482 799 515 806 506 l 771 308 b 367 -19 736 107 586 -19 "},"ġ":{"ha":728,"x_min":0,"x_max":0,"o":"m 428 881 b 393 932 394 881 385 892 l 394 946 b 442 993 403 983 411 993 l 475 993 b 510 940 507 993 517 976 l 507 926 b 460 881 500 888 492 881 l 428 881 m 214 -343 b -12 -189 85 -343 17 -282 b -6 -154 -21 -171 -19 -161 l 38 -133 b 65 -143 51 -126 57 -129 b 214 -257 90 -212 125 -257 b 432 -46 343 -257 407 -179 l 449 36 b 251 -3 403 17 338 -3 b 46 269 82 -3 18 97 l 79 453 b 396 735 113 643 210 735 b 607 693 482 735 558 717 b 643 617 643 675 650 661 l 525 -49 b 214 -343 492 -236 397 -343 m 275 83 b 461 124 358 83 418 104 l 543 581 b 522 622 547 606 546 611 b 389 649 493 636 446 649 b 172 444 261 649 197 583 l 140 268 b 275 83 118 146 158 83 "},"Ģ":{"ha":889,"x_min":0,"x_max":0,"o":"m 367 -19 b 68 333 136 -19 29 115 l 126 660 b 531 1006 165 882 303 1006 b 835 774 718 1006 811 928 b 819 732 843 747 839 738 l 771 718 b 743 739 758 714 749 719 b 526 911 731 854 668 911 b 226 654 354 911 256 815 l 169 328 b 378 75 142 169 213 75 b 674 313 542 75 647 165 l 692 421 l 453 421 b 431 451 435 421 426 429 l 438 490 b 469 515 440 510 449 515 l 779 515 b 801 482 799 515 806 506 l 771 308 b 367 -19 736 107 586 -19 m 232 -346 b 217 -324 215 -346 211 -339 l 297 -124 b 331 -100 304 -104 310 -100 l 372 -100 b 394 -131 396 -100 404 -112 l 294 -325 b 263 -346 285 -343 281 -346 l 232 -346 "},"ģ":{"ha":728,"x_min":0,"x_max":0,"o":"m 388 813 b 367 844 364 813 356 826 l 451 1006 b 486 1028 463 1025 467 1028 l 511 1028 b 528 1004 528 1028 533 1021 l 458 838 b 422 813 451 815 444 813 l 388 813 m 214 -343 b -12 -189 85 -343 17 -282 b -6 -154 -21 -171 -19 -161 l 38 -133 b 65 -143 51 -126 57 -129 b 214 -257 90 -212 125 -257 b 432 -46 343 -257 407 -179 l 449 36 b 251 -3 403 17 338 -3 b 46 269 82 -3 18 97 l 79 453 b 396 735 113 643 210 735 b 607 693 482 735 558 717 b 643 617 643 675 650 661 l 525 -49 b 214 -343 492 -236 397 -343 m 275 83 b 461 124 358 83 418 104 l 543 581 b 522 622 547 606 546 611 b 389 649 493 636 446 649 b 172 444 261 649 197 583 l 140 268 b 275 83 118 146 158 83 "},"Ĥ":{"ha":926,"x_min":0,"x_max":0,"o":"m 372 1060 b 360 1083 350 1060 347 1074 l 544 1236 b 582 1253 560 1249 567 1253 l 604 1253 b 640 1235 622 1253 628 1250 l 771 1079 b 760 1060 779 1069 779 1060 l 719 1060 b 683 1076 699 1060 694 1064 l 589 1189 l 451 1072 b 410 1060 436 1060 429 1060 l 372 1060 m 67 0 b 44 31 47 0 40 4 l 208 960 b 239 986 213 981 221 986 l 286 986 b 310 957 310 986 313 978 l 238 547 l 708 547 l 781 961 b 814 986 785 982 794 986 l 861 986 b 882 957 882 986 886 978 l 719 29 b 690 0 715 8 710 0 l 640 0 b 617 29 619 0 613 7 l 692 453 l 221 453 l 144 25 b 118 0 142 10 138 0 l 67 0 "},"ĥ":{"ha":746,"x_min":0,"x_max":0,"o":"m 72 1081 b 60 1104 50 1081 47 1094 l 244 1257 b 282 1274 260 1269 267 1274 l 304 1274 b 340 1256 322 1274 328 1271 l 471 1100 b 460 1081 479 1090 479 1081 l 419 1081 b 383 1097 399 1081 394 1085 l 289 1210 l 151 1093 b 110 1081 136 1081 129 1081 l 72 1081 m 50 0 b 29 26 32 0 26 8 l 201 1006 b 232 1028 206 1024 215 1028 l 276 1028 b 296 1000 293 1028 300 1018 l 242 696 b 435 735 290 718 358 735 b 638 463 608 735 667 633 l 560 22 b 529 0 556 4 546 0 l 483 0 b 467 28 467 0 464 11 l 543 463 b 413 649 564 588 524 649 b 228 608 342 649 276 632 l 124 24 b 92 0 119 4 110 0 l 50 0 "},"Ħ":{"ha":926,"x_min":0,"x_max":0,"o":"m 63 0 b 43 31 43 0 40 10 l 172 760 l 96 760 b 82 782 82 760 78 767 l 86 806 b 104 822 89 821 92 822 l 183 822 l 208 961 b 238 986 211 981 221 986 l 288 986 b 310 958 307 986 313 979 l 286 822 l 757 822 l 781 961 b 814 986 785 982 794 986 l 861 986 b 882 956 882 986 885 976 l 858 822 l 936 822 b 950 800 950 822 953 815 l 946 776 b 928 760 943 763 940 760 l 847 760 l 718 25 b 688 0 714 4 704 0 l 636 0 b 617 31 617 0 614 10 l 692 453 l 221 453 l 144 25 b 114 0 140 4 133 0 l 63 0 m 708 547 l 746 760 l 275 760 l 238 547 "},"ħ":{"ha":744,"x_min":0,"x_max":0,"o":"m 49 0 b 28 26 29 0 25 8 l 174 856 l 110 856 b 93 875 96 856 90 861 l 97 899 b 117 915 100 914 104 915 l 183 915 l 200 1006 b 229 1028 204 1024 213 1028 l 274 1028 b 293 1000 292 1028 297 1018 l 279 915 l 463 915 b 476 893 476 915 481 907 l 474 872 b 454 856 471 857 465 856 l 268 856 l 239 696 b 432 735 288 718 356 735 b 635 463 606 735 665 633 l 557 22 b 528 0 554 4 544 0 l 482 0 b 464 28 465 0 461 11 l 540 463 b 410 649 563 588 522 649 b 225 608 340 649 275 632 l 121 24 b 90 0 117 4 108 0 l 49 0 "},"Ĩ":{"ha":353,"x_min":0,"x_max":0,"o":"m 97 1071 b 83 1100 85 1071 82 1078 b 201 1226 94 1179 138 1226 b 371 1133 296 1226 308 1133 b 438 1214 406 1133 431 1165 b 453 1226 440 1224 442 1226 l 485 1226 b 496 1200 496 1226 499 1221 b 381 1071 482 1118 444 1071 b 210 1164 289 1071 276 1164 b 142 1086 176 1164 149 1133 b 126 1071 140 1076 138 1071 l 97 1071 m 65 0 b 44 31 46 0 40 7 l 208 963 b 242 986 213 985 225 986 l 288 986 b 310 957 306 986 314 981 l 144 25 b 117 0 142 7 133 0 l 65 0 "},"ĩ":{"ha":314,"x_min":0,"x_max":0,"o":"m 76 838 b 64 861 67 838 63 846 b 168 992 83 960 115 992 b 286 901 250 992 232 901 b 344 982 314 901 332 926 b 357 992 347 990 347 992 l 382 992 b 394 969 393 992 397 983 b 292 838 375 871 346 838 b 176 926 214 838 231 926 b 115 849 146 926 129 910 b 101 838 113 840 111 838 l 76 838 m 46 0 b 28 28 28 0 25 11 l 146 692 b 175 714 149 707 157 714 l 221 714 b 239 686 238 714 243 704 l 121 24 b 92 0 118 7 110 0 l 46 0 "},"Ī":{"ha":353,"x_min":0,"x_max":0,"o":"m 132 1111 b 113 1138 114 1111 108 1119 l 115 1160 b 147 1181 118 1178 131 1181 l 451 1181 b 474 1154 472 1181 478 1172 l 471 1133 b 443 1111 467 1115 457 1111 l 132 1111 m 65 0 b 44 31 46 0 40 7 l 208 963 b 242 986 213 985 225 986 l 288 986 b 310 957 306 986 314 981 l 144 25 b 117 0 142 7 133 0 l 65 0 "},"ī":{"ha":314,"x_min":0,"x_max":0,"o":"m 121 885 b 107 904 108 885 104 890 l 111 932 b 136 951 114 947 119 951 l 342 951 b 356 932 356 951 358 943 l 351 904 b 332 885 347 889 342 885 l 121 885 m 46 0 b 28 28 28 0 25 11 l 146 692 b 175 714 149 707 157 714 l 221 714 b 239 686 238 714 243 704 l 121 24 b 92 0 118 7 110 0 l 46 0 "},"Ĭ":{"ha":353,"x_min":0,"x_max":0,"o":"m 285 1060 b 115 1213 186 1060 126 1110 b 124 1236 111 1228 113 1233 l 160 1247 b 183 1233 172 1251 178 1249 b 288 1131 189 1165 226 1131 b 431 1239 354 1131 399 1163 b 456 1246 438 1250 442 1251 l 492 1232 b 500 1207 504 1228 506 1224 b 285 1060 460 1110 385 1060 m 65 0 b 44 31 46 0 40 7 l 208 963 b 242 986 213 985 225 986 l 288 986 b 310 957 306 986 314 981 l 144 25 b 117 0 142 7 133 0 l 65 0 "},"ĭ":{"ha":314,"x_min":0,"x_max":0,"o":"m 214 828 b 72 976 125 828 83 882 b 83 996 69 986 71 992 l 119 1007 b 146 990 135 1011 142 1006 b 218 899 144 926 171 899 b 331 1000 271 899 304 935 b 354 1006 338 1010 343 1008 l 388 993 b 399 964 401 988 407 979 b 214 828 364 875 299 828 m 46 0 b 28 28 28 0 25 11 l 146 692 b 175 714 149 707 157 714 l 221 714 b 239 686 238 714 243 704 l 121 24 b 92 0 118 7 110 0 l 46 0 "},"Į":{"ha":353,"x_min":0,"x_max":0,"o":"m 14 -343 b -75 -264 -39 -343 -74 -317 b 68 1 -79 -193 -40 -103 b 46 40 42 1 42 13 l 208 961 b 242 986 213 982 221 986 l 289 986 b 308 956 310 986 313 976 l 147 26 b 136 -1 144 14 143 4 b 8 -239 43 -99 4 -182 b 44 -271 11 -265 29 -271 b 118 -239 71 -271 97 -258 b 131 -247 125 -236 128 -239 l 140 -276 b 136 -299 143 -287 142 -293 b 14 -343 110 -322 64 -343 "},"į":{"ha":314,"x_min":0,"x_max":0,"o":"m 211 881 b 178 932 179 881 169 892 l 179 946 b 226 992 188 982 194 992 l 258 992 b 293 939 290 992 300 976 l 290 925 b 244 881 283 888 276 881 l 211 881 m 6 -343 b -83 -253 -54 -343 -85 -310 b 50 3 -78 -164 -1 -50 b 28 26 29 0 25 10 l 146 692 b 174 714 149 707 156 714 l 221 714 b 239 686 239 714 243 703 l 122 26 b 114 -1 119 14 119 7 b 1 -228 75 -58 10 -151 b 39 -271 0 -258 13 -271 b 111 -237 60 -271 85 -261 b 124 -247 117 -236 122 -239 l 133 -278 b 128 -299 136 -286 136 -292 b 6 -343 89 -332 43 -343 "},"İ":{"ha":353,"x_min":0,"x_max":0,"o":"m 283 1094 b 242 1146 246 1094 235 1108 l 244 1153 b 296 1197 250 1190 260 1197 l 303 1197 b 344 1147 339 1197 350 1183 l 343 1139 b 289 1094 336 1103 326 1094 l 283 1094 m 65 0 b 44 31 46 0 40 7 l 208 963 b 242 986 213 985 225 986 l 288 986 b 310 957 306 986 314 981 l 144 25 b 117 0 142 7 133 0 l 65 0 "},"ı":{"ha":314,"x_min":0,"x_max":0,"o":"m 46 0 b 28 28 28 0 25 11 l 146 692 b 175 714 149 707 157 714 l 221 714 b 239 686 238 714 243 704 l 121 24 b 92 0 118 7 110 0 l 46 0 "},"Ĳ":{"ha":1090,"x_min":0,"x_max":0,"o":"m 65 0 b 44 31 46 0 40 7 l 208 963 b 242 986 213 985 225 986 l 288 986 b 310 957 306 986 314 981 l 144 25 b 117 0 142 7 133 0 l 65 0 m 579 -19 b 321 246 406 -19 331 79 b 338 276 317 263 321 272 l 388 290 b 417 268 404 296 411 292 b 589 76 421 143 469 76 b 838 313 728 76 813 169 l 953 963 b 982 986 957 982 967 986 l 1033 986 b 1053 957 1051 986 1057 976 l 939 307 b 579 -19 903 104 781 -19 "},"ĳ":{"ha":624,"x_min":0,"x_max":0,"o":"m 490 881 b 454 932 457 881 447 892 l 457 946 b 504 993 464 983 472 993 l 536 993 b 572 940 569 993 578 976 l 569 926 b 522 881 563 888 554 881 l 490 881 m 211 881 b 178 932 179 881 169 892 l 179 946 b 226 992 188 982 194 992 l 258 992 b 293 939 290 992 300 976 l 290 925 b 244 881 283 888 276 881 l 211 881 m 44 0 b 28 28 31 0 25 10 l 146 692 b 174 714 149 711 160 714 l 221 714 b 239 686 236 714 243 707 l 121 24 b 94 0 118 4 108 0 l 44 0 m 106 -319 b 82 -290 85 -319 78 -310 l 89 -254 b 110 -231 92 -235 96 -231 b 296 -8 253 -231 272 -149 l 421 692 b 449 714 424 708 432 714 l 496 714 b 514 686 513 714 517 706 l 389 -18 b 106 -319 356 -212 315 -319 "},"Ĵ":{"ha":772,"x_min":0,"x_max":0,"o":"m 511 1060 b 499 1083 489 1060 486 1074 l 683 1236 b 721 1253 699 1249 706 1253 l 743 1253 b 779 1235 761 1253 767 1250 l 910 1079 b 899 1060 918 1069 918 1060 l 858 1060 b 822 1076 838 1060 833 1064 l 728 1189 l 590 1072 b 549 1060 575 1060 568 1060 l 511 1060 m 261 -19 b 3 246 88 -19 14 79 b 19 276 0 263 3 272 l 69 290 b 99 268 86 296 93 292 b 271 76 103 143 151 76 b 519 313 410 76 494 169 l 635 963 b 664 986 639 982 649 986 l 715 986 b 736 957 735 986 739 976 l 621 307 b 261 -19 585 104 463 -19 "},"ĵ":{"ha":310,"x_min":0,"x_max":0,"o":"m 57 828 b 43 850 36 828 33 839 l 189 989 b 242 1010 213 1010 218 1010 l 251 1010 b 294 985 272 1010 279 1007 l 392 846 b 379 828 399 835 401 828 l 344 828 b 306 844 322 828 314 831 l 239 949 l 133 840 b 92 828 118 826 113 828 l 57 828 m -172 -319 b -194 -290 -192 -319 -199 -310 l -189 -254 b -167 -231 -185 -235 -182 -231 b 19 -8 -25 -231 -6 -149 l 143 692 b 172 714 146 708 154 714 l 219 714 b 238 686 236 714 240 706 l 113 -18 b -172 -319 78 -212 39 -319 "},"Ķ":{"ha":826,"x_min":0,"x_max":0,"o":"m 67 0 b 44 31 46 0 40 7 l 208 963 b 238 986 213 982 222 986 l 289 986 b 310 957 308 986 313 978 l 236 547 l 365 547 b 390 546 374 547 383 547 l 733 965 b 781 986 749 985 754 986 l 839 986 b 851 957 860 986 861 971 l 485 524 b 599 369 547 503 576 450 l 697 26 b 681 0 701 10 701 0 l 624 0 b 590 26 599 0 594 7 l 506 336 b 367 453 482 422 457 453 l 221 453 l 144 24 b 117 0 140 4 131 0 l 67 0 m 228 -346 b 213 -324 211 -346 207 -339 l 293 -124 b 326 -100 300 -104 306 -100 l 368 -100 b 390 -131 392 -100 400 -112 l 290 -325 b 258 -346 281 -343 276 -346 l 228 -346 "},"ķ":{"ha":683,"x_min":0,"x_max":0,"o":"m 47 0 b 29 29 29 0 25 10 l 200 1006 b 229 1028 204 1024 215 1028 l 276 1028 b 294 1000 292 1028 299 1018 l 190 410 l 306 410 l 321 410 l 556 697 b 590 714 567 713 569 714 l 647 714 b 658 682 671 714 671 700 l 406 389 b 485 278 450 372 471 336 l 551 26 b 532 0 556 6 556 0 l 488 0 b 454 25 463 0 458 6 l 399 242 b 307 322 386 299 363 322 l 175 322 l 122 24 b 92 0 118 4 108 0 l 47 0 m 144 -346 b 129 -324 128 -346 124 -339 l 210 -124 b 243 -100 217 -104 222 -100 l 285 -100 b 307 -131 308 -100 317 -112 l 207 -325 b 175 -346 197 -343 193 -346 l 144 -346 "},"ĸ":{"ha":639,"x_min":0,"x_max":0,"o":"m 46 0 b 28 29 28 0 25 10 l 144 692 b 174 714 147 710 157 714 l 218 714 b 238 686 236 714 242 706 l 175 335 l 517 696 b 560 714 533 715 536 714 l 607 714 b 619 682 631 714 635 701 l 363 413 l 510 29 b 490 0 515 8 515 0 l 449 0 b 415 24 424 0 421 4 l 289 344 l 154 215 l 121 24 b 92 0 117 6 108 0 l 46 0 "},"Ĺ":{"ha":704,"x_min":0,"x_max":0,"o":"m 151 1082 b 156 1110 144 1092 147 1104 l 376 1249 b 418 1242 393 1258 407 1257 l 435 1217 b 431 1189 443 1207 442 1193 l 193 1060 b 163 1065 178 1053 169 1057 m 64 0 b 44 31 44 0 40 10 l 208 961 b 240 986 213 982 221 986 l 290 986 b 310 957 308 986 313 978 l 157 94 l 571 94 b 593 67 593 94 597 85 l 586 24 b 558 0 583 7 575 0 l 64 0 "},"ĺ":{"ha":324,"x_min":0,"x_max":0,"o":"m 165 1099 b 168 1125 157 1111 154 1117 l 364 1242 b 406 1233 381 1251 394 1250 l 424 1206 b 419 1176 433 1192 438 1183 l 208 1075 b 178 1079 193 1068 183 1069 m 51 0 b 33 28 33 0 31 10 l 204 1006 b 233 1028 208 1024 219 1028 l 279 1028 b 299 999 297 1028 303 1018 l 126 22 b 99 0 124 6 114 0 l 51 0 "},"Ļ":{"ha":704,"x_min":0,"x_max":0,"o":"m 64 0 b 44 31 44 0 40 10 l 208 961 b 240 986 213 982 221 986 l 290 986 b 310 957 308 986 313 978 l 157 94 l 571 94 b 593 67 593 94 597 85 l 586 24 b 558 0 583 7 575 0 l 64 0 m 176 -346 b 161 -324 160 -346 156 -339 l 242 -124 b 275 -100 249 -104 254 -100 l 317 -100 b 339 -131 340 -100 349 -112 l 239 -325 b 207 -346 229 -343 225 -346 l 176 -346 "},"ļ":{"ha":324,"x_min":0,"x_max":0,"o":"m 51 0 b 33 28 33 0 31 10 l 204 1006 b 233 1028 208 1024 219 1028 l 279 1028 b 299 999 297 1028 303 1018 l 126 22 b 99 0 124 6 114 0 l 51 0 m -50 -346 b -65 -324 -67 -346 -71 -339 l 15 -124 b 49 -100 22 -104 28 -100 l 90 -100 b 113 -131 114 -100 122 -112 l 13 -325 b -19 -346 3 -343 -1 -346 l -50 -346 "},"Ľ":{"ha":704,"x_min":0,"x_max":0,"o":"m 64 0 b 44 31 44 0 40 10 l 208 961 b 240 986 213 982 221 986 l 290 986 b 310 957 308 986 313 978 l 157 94 l 571 94 b 593 67 593 94 597 85 l 586 24 b 558 0 583 7 575 0 l 64 0 m 474 690 b 457 714 458 690 451 699 l 549 963 b 582 986 556 985 560 986 l 625 986 b 647 954 650 986 657 974 l 535 711 b 501 690 525 692 521 690 l 474 690 "},"ľ":{"ha":324,"x_min":0,"x_max":0,"o":"m 51 0 b 33 28 33 0 31 10 l 204 1006 b 233 1028 208 1024 219 1028 l 279 1028 b 299 999 297 1028 303 1018 l 126 22 b 99 0 124 6 114 0 l 51 0 m 344 781 b 329 803 329 781 324 788 l 404 1006 b 436 1028 411 1025 417 1028 l 475 1028 b 497 999 497 1028 506 1017 l 399 801 b 367 781 389 785 385 781 l 344 781 "},"Ŀ":{"ha":704,"x_min":0,"x_max":0,"o":"m 64 0 b 44 31 44 0 40 10 l 208 961 b 240 986 213 982 221 986 l 290 986 b 310 957 308 986 313 978 l 157 94 l 571 94 b 593 67 593 94 597 85 l 586 24 b 558 0 583 7 575 0 l 64 0 m 465 443 b 417 503 422 443 408 458 l 419 513 b 482 567 428 556 439 567 l 490 567 b 539 506 533 567 547 549 l 538 497 b 475 443 529 454 517 443 l 465 443 "},"ŀ":{"ha":476,"x_min":0,"x_max":0,"o":"m 51 0 b 33 28 33 0 31 10 l 204 1006 b 233 1028 208 1024 219 1028 l 279 1028 b 299 999 297 1028 303 1018 l 126 22 b 99 0 124 6 114 0 l 51 0 m 336 463 b 290 521 296 463 282 478 l 292 529 b 351 582 300 571 311 582 l 360 582 b 407 524 401 582 414 564 l 406 515 b 344 463 397 474 385 463 l 336 463 "},"Ł":{"ha":733,"x_min":0,"x_max":0,"o":"m 89 0 b 67 29 67 0 64 8 l 131 392 l 33 346 b 7 357 18 339 10 344 l -4 388 b 6 413 -8 400 -6 408 l 146 476 l 232 961 b 264 986 235 982 242 986 l 311 986 b 332 956 331 986 335 976 l 256 524 l 533 657 b 560 644 550 664 557 657 l 571 613 b 560 589 574 601 572 594 l 240 440 l 179 94 l 593 94 b 615 64 614 94 619 88 l 608 25 b 578 0 604 7 599 0 l 89 0 "},"ł":{"ha":418,"x_min":0,"x_max":0,"o":"m 96 0 b 76 28 76 0 72 8 l 150 451 l 61 404 b 36 413 47 397 42 401 l 25 440 b 33 465 21 453 22 461 l 165 533 l 247 1006 b 278 1028 251 1022 260 1028 l 321 1028 b 342 1000 340 1028 346 1018 l 268 585 l 365 636 b 392 629 379 643 388 640 l 403 600 b 396 576 408 589 408 583 l 254 504 l 169 22 b 139 0 165 7 157 0 l 96 0 "},"Ń":{"ha":939,"x_min":0,"x_max":0,"o":"m 446 1082 b 450 1110 439 1092 442 1104 l 671 1249 b 713 1242 688 1258 701 1257 l 729 1217 b 725 1189 738 1207 736 1193 l 488 1060 b 457 1065 472 1053 464 1057 m 64 0 b 44 29 44 0 40 8 l 208 961 b 240 986 213 982 221 986 l 293 986 b 318 969 308 986 315 978 l 590 349 b 664 140 622 272 642 210 l 669 140 b 699 403 674 224 681 306 l 797 963 b 831 986 800 982 810 986 l 876 986 b 896 956 894 986 899 978 l 732 25 b 703 0 728 10 724 0 l 647 0 b 622 17 633 0 626 6 l 346 651 b 279 846 317 721 296 785 l 275 846 b 243 600 268 768 260 689 l 142 25 b 111 0 138 4 131 0 l 64 0 "},"ń":{"ha":742,"x_min":0,"x_max":0,"o":"m 313 858 b 317 888 306 869 307 882 l 538 1026 b 578 1019 554 1035 567 1035 l 596 994 b 592 965 603 983 603 969 l 354 838 b 324 842 338 831 329 833 m 43 0 b 25 28 28 0 22 8 l 128 614 b 188 689 135 656 150 672 b 421 735 242 711 321 735 b 633 460 599 735 664 636 l 556 22 b 526 0 553 7 546 0 l 481 0 b 463 28 465 0 460 8 l 539 463 b 408 649 560 583 521 649 b 250 618 340 649 283 633 b 217 581 226 608 221 597 l 118 22 b 90 0 115 7 107 0 l 43 0 "},"Ņ":{"ha":939,"x_min":0,"x_max":0,"o":"m 64 0 b 44 29 44 0 40 8 l 208 961 b 240 986 213 982 221 986 l 293 986 b 318 969 308 986 315 978 l 590 349 b 664 140 622 272 642 210 l 669 140 b 699 403 674 224 681 306 l 797 963 b 831 986 800 982 810 986 l 876 986 b 896 956 894 986 899 978 l 732 25 b 703 0 728 10 724 0 l 647 0 b 622 17 633 0 626 6 l 346 651 b 279 846 317 721 296 785 l 275 846 b 243 600 268 768 260 689 l 142 25 b 111 0 138 4 131 0 l 64 0 m 256 -346 b 240 -324 239 -346 235 -339 l 321 -124 b 354 -100 328 -104 333 -100 l 396 -100 b 418 -131 419 -100 428 -112 l 318 -325 b 286 -346 308 -343 304 -346 l 256 -346 "},"ņ":{"ha":742,"x_min":0,"x_max":0,"o":"m 43 0 b 25 28 28 0 22 8 l 128 614 b 188 689 135 656 150 672 b 421 735 242 711 321 735 b 633 460 599 735 664 636 l 556 22 b 526 0 553 7 546 0 l 481 0 b 463 28 465 0 460 8 l 539 463 b 408 649 560 583 521 649 b 250 618 340 649 283 633 b 217 581 226 608 221 597 l 118 22 b 90 0 115 7 107 0 l 43 0 m 174 -346 b 158 -324 157 -346 153 -339 l 239 -124 b 272 -100 246 -104 251 -100 l 314 -100 b 336 -131 338 -100 346 -112 l 236 -325 b 204 -346 226 -343 222 -346 l 174 -346 "},"Ň":{"ha":939,"x_min":0,"x_max":0,"o":"m 565 1058 b 524 1082 544 1058 538 1065 l 397 1232 b 410 1251 388 1243 388 1251 l 449 1251 b 483 1238 469 1251 474 1250 l 579 1121 l 718 1239 b 756 1251 732 1251 736 1251 l 796 1251 b 808 1228 818 1251 821 1239 l 628 1079 b 579 1058 606 1061 600 1058 l 565 1058 m 64 0 b 44 29 44 0 40 8 l 208 961 b 240 986 213 982 221 986 l 293 986 b 318 969 308 986 315 978 l 590 349 b 664 140 622 272 642 210 l 669 140 b 699 403 674 224 681 306 l 797 963 b 831 986 800 982 810 986 l 876 986 b 896 956 894 986 899 978 l 732 25 b 703 0 728 10 724 0 l 647 0 b 622 17 633 0 626 6 l 346 651 b 279 846 317 721 296 785 l 275 846 b 243 600 268 768 260 689 l 142 25 b 111 0 138 4 131 0 l 64 0 "},"ň":{"ha":742,"x_min":0,"x_max":0,"o":"m 407 829 b 367 853 388 829 381 835 l 239 1003 b 251 1022 231 1013 229 1022 l 292 1022 b 326 1007 313 1022 317 1021 l 422 892 l 560 1010 b 597 1022 574 1022 578 1022 l 638 1022 b 650 999 660 1022 661 1008 l 469 850 b 421 829 447 832 443 829 l 407 829 m 43 0 b 25 28 28 0 22 8 l 128 614 b 188 689 135 656 150 672 b 421 735 242 711 321 735 b 633 460 599 735 664 636 l 556 22 b 526 0 553 7 546 0 l 481 0 b 463 28 465 0 460 8 l 539 463 b 408 649 560 583 521 649 b 250 618 340 649 283 633 b 217 581 226 608 221 597 l 118 22 b 90 0 115 7 107 0 l 43 0 "},"ŉ":{"ha":742,"x_min":0,"x_max":0,"o":"m 83 772 b 69 793 68 772 63 781 l 169 999 b 204 1021 179 1018 183 1021 l 250 1021 b 268 990 274 1021 279 1007 l 136 788 b 106 772 125 774 122 772 l 83 772 m 43 0 b 25 28 28 0 22 8 l 128 614 b 188 689 135 656 150 672 b 421 735 242 711 321 735 b 633 460 599 735 664 636 l 556 22 b 526 0 553 7 546 0 l 481 0 b 463 28 465 0 460 8 l 539 463 b 408 649 560 583 521 649 b 250 618 340 649 283 633 b 217 581 226 608 221 597 l 118 22 b 90 0 115 7 107 0 l 43 0 "},"Ŋ":{"ha":939,"x_min":0,"x_max":0,"o":"m 400 -319 b 374 -290 378 -319 371 -310 l 381 -254 b 404 -231 383 -233 388 -231 b 625 -18 550 -231 603 -151 l 628 4 l 346 651 b 279 846 318 721 297 782 l 275 844 b 243 600 268 772 260 689 l 142 25 b 111 0 138 4 131 0 l 63 0 b 44 31 43 0 40 10 l 208 961 b 239 986 213 982 219 986 l 293 986 b 318 969 308 986 315 978 l 590 349 b 664 140 622 272 642 210 l 669 140 b 699 403 674 224 682 306 l 797 963 b 829 986 801 982 810 986 l 876 986 b 896 954 896 986 899 975 l 719 -39 b 400 -319 686 -229 606 -319 "},"ŋ":{"ha":742,"x_min":0,"x_max":0,"o":"m 256 -319 b 232 -292 235 -319 228 -311 l 238 -257 b 260 -235 240 -237 244 -235 b 454 -15 411 -235 431 -153 l 539 463 b 408 649 560 585 521 649 b 250 618 340 649 283 633 b 217 581 226 608 221 597 l 118 22 b 90 0 115 7 107 0 l 43 0 b 25 28 28 0 22 8 l 128 614 b 188 689 135 656 150 672 b 421 735 242 711 321 735 b 633 460 599 735 664 636 l 549 -24 b 256 -319 514 -214 460 -319 "},"Ō":{"ha":901,"x_min":0,"x_max":0,"o":"m 407 1125 b 388 1151 389 1125 383 1133 l 390 1174 b 422 1194 393 1192 406 1194 l 726 1194 b 749 1168 747 1194 753 1186 l 746 1147 b 718 1125 742 1129 732 1125 l 407 1125 m 368 -19 b 68 333 133 -19 31 115 l 126 660 b 533 1006 164 876 301 1006 b 833 653 761 1006 871 872 l 775 326 b 368 -19 738 108 597 -19 m 375 75 b 675 333 540 75 646 168 l 732 660 b 526 911 760 822 686 911 b 226 653 358 911 256 814 l 169 328 b 375 75 142 168 213 75 "},"ō":{"ha":729,"x_min":0,"x_max":0,"o":"m 281 886 b 258 913 261 886 256 894 l 263 935 b 294 956 265 953 278 956 l 599 956 b 621 928 618 956 625 947 l 617 907 b 590 886 614 890 604 886 l 281 886 m 278 -19 b 42 238 103 -19 14 81 l 85 482 b 399 735 114 646 226 735 b 639 476 575 735 667 631 l 596 232 b 278 -19 568 72 450 -19 m 286 65 b 503 238 403 65 485 132 l 546 482 b 392 649 565 588 501 649 b 178 476 276 649 197 582 l 135 232 b 286 65 117 128 179 65 "},"Ŏ":{"ha":901,"x_min":0,"x_max":0,"o":"m 560 1074 b 390 1226 461 1074 401 1124 b 399 1250 386 1242 388 1247 l 435 1261 b 458 1247 447 1265 453 1263 b 563 1144 464 1179 501 1144 b 706 1253 629 1144 674 1176 b 731 1260 713 1264 717 1265 l 767 1246 b 775 1221 779 1242 781 1238 b 560 1074 735 1124 660 1074 m 368 -19 b 68 333 133 -19 31 115 l 126 660 b 533 1006 164 876 301 1006 b 833 653 761 1006 871 872 l 775 326 b 368 -19 738 108 597 -19 m 375 75 b 675 333 540 75 646 168 l 732 660 b 526 911 760 822 686 911 b 226 653 358 911 256 814 l 169 328 b 375 75 142 168 213 75 "},"ŏ":{"ha":729,"x_min":0,"x_max":0,"o":"m 429 833 b 258 986 331 833 269 883 b 268 1010 256 1000 257 1007 l 304 1021 b 328 1007 317 1024 324 1021 b 432 904 333 936 369 904 b 575 1011 499 904 539 939 b 599 1019 581 1024 586 1025 l 638 1006 b 643 981 649 1001 650 996 b 429 833 597 886 528 833 m 278 -19 b 42 238 103 -19 14 81 l 85 482 b 399 735 114 646 226 735 b 639 476 575 735 667 631 l 596 232 b 278 -19 568 72 450 -19 m 286 65 b 503 238 403 65 485 132 l 546 482 b 392 649 565 588 501 649 b 178 476 276 649 197 582 l 135 232 b 286 65 117 128 179 65 "},"Ő":{"ha":901,"x_min":0,"x_max":0,"o":"m 383 1079 b 376 1107 368 1085 367 1096 l 519 1257 b 556 1269 531 1271 539 1276 l 589 1257 b 594 1228 606 1250 607 1238 l 431 1082 b 399 1074 418 1072 410 1071 m 604 1081 b 596 1108 589 1086 586 1097 l 740 1256 b 778 1268 753 1269 761 1274 l 811 1256 b 817 1226 828 1249 831 1236 l 651 1083 b 621 1075 638 1074 629 1072 m 368 -19 b 68 333 133 -19 31 115 l 126 660 b 533 1006 164 876 301 1006 b 833 653 761 1006 871 872 l 775 326 b 368 -19 738 108 597 -19 m 375 75 b 675 333 540 75 646 168 l 732 660 b 526 911 760 822 686 911 b 226 653 358 911 256 814 l 169 328 b 375 75 142 168 213 75 "},"ő":{"ha":729,"x_min":0,"x_max":0,"o":"m 258 831 b 250 858 243 836 240 847 l 393 1008 b 429 1021 404 1022 413 1026 l 463 1008 b 468 979 479 1001 482 989 l 306 833 b 274 825 292 824 285 821 m 478 831 b 471 858 463 836 461 847 l 613 1008 b 650 1021 625 1022 633 1026 l 683 1008 b 689 979 700 1001 701 989 l 525 833 b 494 825 513 824 504 821 m 278 -19 b 42 238 103 -19 14 81 l 85 482 b 399 735 114 646 226 735 b 639 476 575 735 667 631 l 596 232 b 278 -19 568 72 450 -19 m 286 65 b 503 238 403 65 485 132 l 546 482 b 392 649 565 588 501 649 b 178 476 276 649 197 582 l 135 232 b 286 65 117 128 179 65 "},"Œ":{"ha":1163,"x_min":0,"x_max":0,"o":"m 374 -21 b 68 333 136 -21 29 117 l 126 660 b 542 1007 164 876 307 1007 b 697 986 600 1007 657 999 l 1138 986 b 1157 956 1157 986 1160 976 l 1150 915 b 1122 892 1146 897 1140 892 l 751 892 l 692 546 l 997 546 b 1022 519 1018 546 1025 540 l 1014 476 b 988 451 1011 461 1006 451 l 675 451 l 613 94 l 993 94 b 1015 65 1014 94 1021 86 l 1008 25 b 981 0 1004 7 997 0 l 528 0 b 374 -21 479 -14 425 -21 m 381 74 b 510 93 436 74 489 85 l 657 894 b 535 913 632 903 582 913 b 226 653 361 913 256 814 l 169 326 b 381 74 142 165 218 74 "},"œ":{"ha":1104,"x_min":0,"x_max":0,"o":"m 267 -19 b 42 238 107 -19 14 81 l 85 482 b 382 735 114 646 225 735 b 576 600 489 735 561 681 b 819 735 629 688 711 735 b 1040 528 967 735 1056 661 b 768 299 1028 378 918 299 b 576 324 704 299 633 308 l 557 219 b 699 51 539 115 590 51 b 899 181 786 51 853 104 b 928 185 907 192 917 192 l 961 168 b 968 135 978 158 976 149 b 693 -19 908 44 826 -19 b 492 103 581 -19 515 25 b 267 -19 444 24 364 -19 m 761 367 b 947 524 854 367 933 418 b 814 663 960 619 903 663 b 599 454 699 663 625 590 l 586 390 b 761 367 643 372 708 367 m 278 65 b 471 235 385 65 453 136 l 515 481 b 379 650 535 586 479 650 b 178 476 274 650 196 582 l 135 231 b 278 65 115 126 186 65 "},"Ŕ":{"ha":875,"x_min":0,"x_max":0,"o":"m 404 1082 b 408 1110 397 1092 400 1104 l 629 1249 b 671 1242 646 1258 660 1257 l 688 1217 b 683 1189 696 1207 694 1193 l 446 1060 b 415 1065 431 1053 422 1057 m 64 0 b 44 31 42 0 42 13 l 208 961 b 240 986 213 982 221 986 l 593 986 b 824 721 750 986 840 886 b 565 433 807 561 713 458 b 636 329 603 413 624 375 l 721 26 b 706 0 726 6 722 0 l 654 0 b 615 26 622 0 619 7 l 539 296 b 396 417 515 385 486 417 l 214 417 l 146 26 b 115 0 142 6 135 0 l 64 0 m 504 507 b 721 715 622 507 706 585 b 572 892 736 826 679 892 l 297 892 l 231 507 "},"ŕ":{"ha":460,"x_min":0,"x_max":0,"o":"m 207 857 b 211 886 200 868 201 881 l 432 1025 b 472 1018 449 1033 461 1033 l 490 993 b 486 964 497 982 497 968 l 249 836 b 218 840 232 829 224 832 m 43 0 b 25 28 28 0 21 10 l 126 600 b 179 676 133 643 142 663 b 376 714 226 696 294 713 b 444 714 401 715 424 715 b 463 686 464 714 467 706 l 456 651 b 432 629 451 632 449 629 b 383 628 415 629 399 628 b 244 600 325 626 275 613 b 214 560 224 590 217 579 l 118 22 b 89 0 115 7 106 0 l 43 0 "},"Ŗ":{"ha":875,"x_min":0,"x_max":0,"o":"m 64 0 b 44 31 42 0 42 13 l 208 961 b 240 986 213 982 221 986 l 593 986 b 824 721 750 986 840 886 b 565 433 807 561 713 458 b 636 329 603 413 624 375 l 721 26 b 706 0 726 6 722 0 l 654 0 b 615 26 622 0 619 7 l 539 296 b 396 417 515 385 486 417 l 214 417 l 146 26 b 115 0 142 6 135 0 l 64 0 m 504 507 b 721 715 622 507 706 585 b 572 892 736 826 679 892 l 297 892 l 231 507 m 244 -346 b 229 -324 228 -346 224 -339 l 310 -124 b 343 -100 317 -104 322 -100 l 385 -100 b 407 -131 408 -100 417 -112 l 307 -325 b 275 -346 297 -343 293 -346 l 244 -346 "},"ŗ":{"ha":460,"x_min":0,"x_max":0,"o":"m 43 0 b 25 28 28 0 21 10 l 126 600 b 179 676 133 643 142 663 b 376 714 226 696 294 713 b 444 714 401 715 424 715 b 463 686 464 714 467 706 l 456 651 b 432 629 451 632 449 629 b 383 628 415 629 399 628 b 244 600 325 626 275 613 b 214 560 224 590 217 579 l 118 22 b 89 0 115 7 106 0 l 43 0 m -19 -346 b -35 -324 -36 -346 -40 -339 l 46 -124 b 79 -100 53 -104 58 -100 l 121 -100 b 143 -131 144 -100 153 -112 l 43 -325 b 11 -346 33 -343 29 -346 l -19 -346 "},"Ř":{"ha":875,"x_min":0,"x_max":0,"o":"m 524 1058 b 482 1082 503 1058 496 1065 l 356 1232 b 368 1251 346 1243 346 1251 l 407 1251 b 442 1238 428 1251 432 1250 l 538 1121 l 676 1239 b 714 1251 690 1251 694 1251 l 754 1251 b 767 1228 776 1251 779 1239 l 586 1079 b 538 1058 564 1061 558 1058 l 524 1058 m 64 0 b 44 31 42 0 42 13 l 208 961 b 240 986 213 982 221 986 l 593 986 b 824 721 750 986 840 886 b 565 433 807 561 713 458 b 636 329 603 413 624 375 l 721 26 b 706 0 726 6 722 0 l 654 0 b 615 26 622 0 619 7 l 539 296 b 396 417 515 385 486 417 l 214 417 l 146 26 b 115 0 142 6 135 0 l 64 0 m 504 507 b 721 715 622 507 706 585 b 572 892 736 826 679 892 l 297 892 l 231 507 "},"ř":{"ha":460,"x_min":0,"x_max":0,"o":"m 300 828 b 260 851 281 828 274 833 l 132 1001 b 144 1021 124 1011 122 1021 l 185 1021 b 219 1006 206 1021 210 1019 l 315 890 l 453 1008 b 490 1021 467 1021 471 1021 l 531 1021 b 543 997 553 1021 554 1007 l 363 849 b 314 828 340 831 336 828 l 300 828 m 43 0 b 25 28 28 0 21 10 l 126 600 b 179 676 133 643 142 663 b 376 714 226 696 294 713 b 444 714 401 715 424 715 b 463 686 464 714 467 706 l 456 651 b 432 629 451 632 449 629 b 383 628 415 629 399 628 b 244 600 325 626 275 613 b 214 560 224 590 217 579 l 118 22 b 89 0 115 7 106 0 l 43 0 "},"Ś":{"ha":850,"x_min":0,"x_max":0,"o":"m 404 1094 b 408 1122 397 1104 400 1117 l 629 1261 b 671 1254 646 1271 660 1269 l 688 1229 b 683 1201 696 1219 694 1206 l 446 1072 b 415 1078 431 1065 422 1069 m 346 -19 b 32 210 171 -19 68 50 b 44 253 24 236 24 246 l 94 269 b 124 250 111 274 118 269 b 357 76 153 128 229 76 b 631 271 518 76 615 146 b 419 451 650 407 549 433 b 126 721 249 476 107 529 b 492 1006 143 897 285 1006 b 807 789 665 1006 764 939 b 793 753 814 767 811 758 l 744 739 b 715 751 728 733 721 736 b 486 908 683 861 614 908 b 231 724 343 908 246 840 b 446 542 211 590 315 561 b 735 278 631 513 756 464 b 346 -19 717 88 576 -19 "},"ś":{"ha":671,"x_min":0,"x_max":0,"o":"m 285 858 b 289 888 278 869 279 882 l 510 1026 b 550 1019 526 1035 539 1035 l 568 994 b 564 965 575 983 575 969 l 326 838 b 296 842 310 831 301 833 m 264 -19 b 14 150 128 -19 40 28 b 26 186 7 172 11 182 l 74 200 b 99 186 89 204 94 200 b 272 64 118 97 181 64 b 457 201 390 64 457 110 b 306 321 457 276 406 306 b 85 514 178 339 82 383 b 361 733 88 664 189 735 b 603 578 507 733 585 678 b 590 547 606 561 607 553 l 549 533 b 521 547 528 526 526 535 b 357 650 501 613 457 650 b 178 517 243 651 179 611 b 339 396 175 432 246 410 b 551 204 474 375 551 326 b 264 -19 551 58 443 -19 "},"Ŝ":{"ha":850,"x_min":0,"x_max":0,"o":"m 338 1072 b 325 1096 315 1072 313 1086 l 510 1249 b 547 1265 525 1261 532 1265 l 569 1265 b 606 1247 588 1265 593 1263 l 736 1092 b 725 1072 744 1082 744 1072 l 685 1072 b 649 1089 664 1072 660 1076 l 554 1201 l 417 1085 b 375 1072 401 1072 394 1072 l 338 1072 m 346 -19 b 32 210 171 -19 68 50 b 44 253 24 236 24 246 l 94 269 b 124 250 111 274 118 269 b 357 76 153 128 229 76 b 631 271 518 76 615 146 b 419 451 650 407 549 433 b 126 721 249 476 107 529 b 492 1006 143 897 285 1006 b 807 789 665 1006 764 939 b 793 753 814 767 811 758 l 744 739 b 715 751 728 733 721 736 b 486 908 683 861 614 908 b 231 724 343 908 246 840 b 446 542 211 590 315 561 b 735 278 631 513 756 464 b 346 -19 717 88 576 -19 "},"ŝ":{"ha":671,"x_min":0,"x_max":0,"o":"m 206 831 b 192 854 183 831 179 843 l 378 1007 b 414 1024 393 1019 399 1024 l 438 1024 b 474 1006 456 1024 460 1021 l 604 850 b 593 831 613 840 613 831 l 551 831 b 517 847 531 831 526 835 l 421 960 l 283 843 b 243 831 269 831 263 831 l 206 831 m 264 -19 b 14 150 128 -19 40 28 b 26 186 7 172 11 182 l 74 200 b 99 186 89 204 94 200 b 272 64 118 97 181 64 b 457 201 390 64 457 110 b 306 321 457 276 406 306 b 85 514 178 339 82 383 b 361 733 88 664 189 735 b 603 578 507 733 585 678 b 590 547 606 561 607 553 l 549 533 b 521 547 528 526 526 535 b 357 650 501 613 457 650 b 178 517 243 651 179 611 b 339 396 175 432 246 410 b 551 204 474 375 551 326 b 264 -19 551 58 443 -19 "},"Ş":{"ha":850,"x_min":0,"x_max":0,"o":"m 807 789 b 793 753 814 767 811 758 l 744 739 b 715 751 728 733 721 736 b 486 908 683 861 614 908 b 231 724 343 908 246 840 b 446 542 211 590 315 561 b 735 278 631 513 756 464 b 396 -18 718 101 597 -3 l 349 -108 b 394 -108 363 -107 381 -106 b 474 -207 450 -115 481 -151 b 297 -346 465 -303 393 -346 b 200 -317 247 -346 217 -329 b 188 -293 189 -312 185 -308 l 190 -267 b 203 -258 192 -257 197 -256 b 289 -289 222 -272 247 -289 b 390 -211 344 -289 383 -265 b 335 -156 396 -176 372 -158 b 286 -160 321 -154 301 -157 b 272 -135 271 -162 265 -147 l 333 -19 b 32 210 167 -17 67 54 b 44 253 24 236 24 246 l 94 269 b 124 250 111 274 118 269 b 357 76 153 128 229 76 b 631 271 518 76 615 146 b 419 451 650 407 549 433 b 126 721 249 476 107 529 b 492 1006 143 897 285 1006 b 807 789 665 1006 764 939 "},"ş":{"ha":671,"x_min":0,"x_max":0,"o":"m 193 -339 b 94 -308 143 -339 111 -321 b 83 -286 85 -303 82 -299 l 86 -261 b 100 -253 88 -253 93 -250 b 185 -282 121 -267 146 -282 b 283 -204 240 -282 279 -258 b 233 -150 285 -171 267 -151 b 182 -151 217 -147 199 -149 b 167 -126 165 -153 160 -139 l 224 -19 b 14 150 111 -10 38 40 b 25 186 7 172 10 182 l 74 200 b 99 186 88 204 94 200 b 272 64 117 97 181 64 b 457 201 390 64 457 110 b 306 321 457 276 404 306 b 85 514 176 339 82 383 b 360 733 86 665 189 735 b 601 578 506 733 585 678 b 589 547 606 561 606 553 l 549 533 b 519 547 528 526 526 535 b 357 650 501 613 456 650 b 176 517 243 651 179 611 b 338 396 174 432 244 410 b 550 204 472 375 550 326 b 285 -19 550 68 454 -12 l 243 -100 b 297 -103 261 -99 281 -99 b 367 -200 344 -111 369 -147 b 193 -339 363 -296 289 -339 "},"Š":{"ha":850,"x_min":0,"x_max":0,"o":"m 524 1071 b 482 1094 503 1071 496 1078 l 356 1244 b 368 1264 346 1256 346 1264 l 407 1264 b 442 1250 428 1264 432 1263 l 538 1133 l 676 1251 b 714 1264 690 1264 694 1264 l 754 1264 b 767 1240 776 1264 779 1251 l 586 1092 b 538 1071 564 1074 558 1071 l 524 1071 m 346 -19 b 32 210 171 -19 68 50 b 44 253 24 236 24 246 l 94 269 b 124 250 111 274 118 269 b 357 76 153 128 229 76 b 631 271 518 76 615 146 b 419 451 650 407 549 433 b 126 721 249 476 107 529 b 492 1006 143 897 285 1006 b 807 789 665 1006 764 939 b 793 753 814 767 811 758 l 744 739 b 715 751 728 733 721 736 b 486 908 683 861 614 908 b 231 724 343 908 246 840 b 446 542 211 590 315 561 b 735 278 631 513 756 464 b 346 -19 717 88 576 -19 "},"š":{"ha":671,"x_min":0,"x_max":0,"o":"m 378 829 b 338 853 358 829 351 835 l 210 1003 b 222 1022 201 1013 200 1022 l 263 1022 b 297 1007 283 1022 288 1021 l 393 892 l 531 1010 b 568 1022 544 1022 549 1022 l 608 1022 b 621 999 631 1022 632 1008 l 440 850 b 392 829 418 832 414 829 l 378 829 m 264 -19 b 14 150 128 -19 40 28 b 26 186 7 172 11 182 l 74 200 b 99 186 89 204 94 200 b 272 64 118 97 181 64 b 457 201 390 64 457 110 b 306 321 457 276 406 306 b 85 514 178 339 82 383 b 361 733 88 664 189 735 b 603 578 507 733 585 678 b 590 547 606 561 607 553 l 549 533 b 521 547 528 526 526 535 b 357 650 501 613 457 650 b 178 517 243 651 179 611 b 339 396 175 432 246 410 b 551 204 474 375 551 326 b 264 -19 551 58 443 -19 "},"Ţ":{"ha":738,"x_min":0,"x_max":0,"o":"m 258 0 b 236 29 236 0 233 10 l 388 892 l 135 892 b 113 922 114 892 107 899 l 119 961 b 151 986 124 982 132 986 l 763 986 b 783 956 783 986 788 978 l 776 915 b 746 892 772 894 765 892 l 490 892 l 338 24 b 308 0 333 6 325 0 l 258 0 m 149 -346 b 133 -324 132 -346 128 -339 l 214 -124 b 247 -100 221 -104 226 -100 l 289 -100 b 311 -131 313 -100 321 -112 l 211 -325 b 179 -346 201 -343 197 -346 l 149 -346 "},"ţ":{"ha":472,"x_min":0,"x_max":0,"o":"m 453 714 b 474 686 472 714 476 706 l 468 651 b 439 626 464 632 456 626 l 276 626 l 213 267 b 343 90 185 117 225 90 b 363 65 360 90 365 82 l 356 24 b 332 0 351 4 347 0 b 282 1 314 0 297 0 l 229 -100 b 274 -100 243 -99 258 -97 b 353 -200 328 -106 356 -144 b 179 -339 349 -296 276 -339 b 82 -308 129 -339 99 -321 b 69 -286 71 -303 68 -299 l 74 -261 b 86 -253 75 -253 81 -250 b 171 -282 107 -265 132 -282 b 269 -204 228 -282 267 -258 b 213 -147 272 -169 251 -149 b 168 -151 199 -147 182 -149 b 153 -126 151 -153 146 -139 l 226 8 b 119 268 124 32 92 107 l 182 626 l 76 626 b 56 656 58 626 50 633 l 63 692 b 92 714 65 711 75 714 l 197 714 l 222 858 b 253 881 225 878 236 881 l 296 881 b 317 853 315 881 319 872 l 292 714 l 453 714 "},"Ť":{"ha":738,"x_min":0,"x_max":0,"o":"m 464 1058 b 422 1082 443 1058 436 1065 l 296 1232 b 308 1251 286 1243 286 1251 l 347 1251 b 382 1238 368 1251 372 1250 l 478 1121 l 617 1239 b 654 1251 631 1251 635 1251 l 694 1251 b 707 1228 717 1251 719 1239 l 526 1079 b 478 1058 504 1061 499 1058 l 464 1058 m 258 0 b 236 29 236 0 233 10 l 388 892 l 135 892 b 113 922 114 892 107 899 l 119 961 b 151 986 124 982 132 986 l 763 986 b 783 956 783 986 788 978 l 776 915 b 746 892 772 894 765 892 l 490 892 l 338 24 b 308 0 333 6 325 0 l 258 0 "},"ť":{"ha":472,"x_min":0,"x_max":0,"o":"m 418 793 b 403 815 403 793 397 800 l 471 1006 b 503 1028 475 1025 482 1028 l 540 1028 b 563 999 564 1028 572 1015 l 472 814 b 440 793 463 797 458 793 l 418 793 m 332 0 b 119 268 147 -4 83 61 l 182 626 l 76 626 b 56 656 58 626 50 633 l 63 692 b 92 714 65 711 75 714 l 197 714 l 222 858 b 253 881 225 878 236 881 l 296 881 b 317 853 315 881 319 872 l 292 714 l 453 714 b 474 686 472 714 476 706 l 468 651 b 439 626 464 632 456 626 l 276 626 l 213 267 b 343 90 185 117 225 90 b 363 65 360 90 365 82 l 356 24 b 332 0 351 4 347 0 "},"Ŧ":{"ha":731,"x_min":0,"x_max":0,"o":"m 256 0 b 232 26 236 0 229 6 l 301 419 l 131 419 b 115 443 117 419 111 426 l 121 479 b 139 494 124 493 128 494 l 314 494 l 383 892 l 135 892 b 111 919 114 892 107 899 l 119 961 b 149 986 122 982 133 986 l 757 986 b 776 956 776 986 779 976 l 769 915 b 742 892 765 899 760 892 l 486 892 l 417 494 l 588 494 b 604 472 601 494 607 489 l 597 438 b 579 419 594 422 593 419 l 404 419 l 333 24 b 301 0 329 4 319 0 l 256 0 "},"ŧ":{"ha":472,"x_min":0,"x_max":0,"o":"m 326 0 b 118 263 135 -4 83 63 l 133 349 l 44 349 b 29 371 31 349 26 356 l 33 400 b 54 417 36 413 40 417 l 144 417 l 182 626 l 74 626 b 56 656 56 626 51 636 l 63 692 b 90 714 65 711 75 714 l 197 714 l 222 858 b 250 881 225 878 238 881 l 296 881 b 317 853 314 881 319 872 l 292 714 l 454 714 b 474 686 472 714 476 706 l 467 649 b 440 626 464 633 456 626 l 276 626 l 239 417 l 379 417 b 394 394 394 417 397 411 l 389 365 b 368 349 386 351 381 349 l 228 349 l 213 267 b 340 90 185 121 221 89 b 363 65 361 90 365 82 l 356 24 b 326 0 351 4 347 0 "},"Ũ":{"ha":928,"x_min":0,"x_max":0,"o":"m 383 1071 b 369 1100 371 1071 368 1078 b 488 1226 381 1179 424 1226 b 657 1133 582 1226 594 1133 b 724 1214 692 1133 717 1165 b 739 1226 726 1224 728 1226 l 771 1226 b 782 1200 782 1226 785 1221 b 667 1071 768 1118 731 1071 b 496 1164 575 1071 563 1164 b 428 1086 463 1164 435 1133 b 413 1071 426 1076 424 1071 l 383 1071 m 378 -19 b 90 339 144 -19 51 117 l 201 963 b 232 986 206 982 215 986 l 279 986 b 301 957 301 986 304 978 l 192 333 b 385 75 164 172 226 75 b 681 339 553 75 651 175 l 790 963 b 822 986 794 983 807 986 l 871 986 b 892 957 890 986 894 978 l 782 333 b 378 -19 742 111 604 -19 "},"ũ":{"ha":742,"x_min":0,"x_max":0,"o":"m 250 849 b 236 878 238 849 233 856 b 354 1004 250 956 283 1004 b 524 911 449 1004 463 911 b 590 990 560 911 589 943 b 606 1004 593 1001 596 1004 l 638 1004 b 649 976 649 1004 651 997 b 533 849 640 894 599 849 b 363 942 442 849 426 942 b 294 864 321 942 304 907 b 279 849 293 853 290 849 l 250 849 m 271 -19 b 61 256 96 -19 32 85 l 139 692 b 168 714 142 710 153 714 l 213 714 b 232 686 231 714 236 706 l 156 251 b 286 67 133 128 171 67 b 447 96 357 67 413 81 b 479 138 468 106 475 117 l 576 692 b 604 714 579 708 589 714 l 649 714 b 671 686 669 714 674 706 l 567 100 b 510 24 560 58 550 42 b 271 -19 458 0 388 -19 "},"Ū":{"ha":928,"x_min":0,"x_max":0,"o":"m 418 1111 b 399 1138 400 1111 394 1119 l 401 1160 b 433 1181 404 1178 417 1181 l 738 1181 b 760 1154 758 1181 764 1172 l 757 1133 b 729 1111 753 1115 743 1111 l 418 1111 m 378 -19 b 90 339 144 -19 51 117 l 201 963 b 232 986 206 982 215 986 l 279 986 b 301 957 301 986 304 978 l 192 333 b 385 75 164 172 226 75 b 681 339 553 75 651 175 l 790 963 b 822 986 794 983 807 986 l 871 986 b 892 957 890 986 894 978 l 782 333 b 378 -19 742 111 604 -19 "},"ū":{"ha":742,"x_min":0,"x_max":0,"o":"m 286 886 b 264 913 267 886 261 894 l 268 935 b 300 956 271 953 283 956 l 604 956 b 626 928 624 956 631 947 l 622 907 b 596 886 619 890 610 886 l 286 886 m 271 -19 b 61 256 96 -19 32 85 l 139 692 b 168 714 142 710 153 714 l 213 714 b 232 686 231 714 236 706 l 156 251 b 286 67 133 128 171 67 b 447 96 357 67 413 81 b 479 138 468 106 475 117 l 576 692 b 604 714 579 708 589 714 l 649 714 b 671 686 669 714 674 706 l 567 100 b 510 24 560 58 550 42 b 271 -19 458 0 388 -19 "},"Ŭ":{"ha":928,"x_min":0,"x_max":0,"o":"m 571 1060 b 401 1213 472 1060 413 1110 b 410 1236 397 1228 399 1233 l 446 1247 b 469 1233 458 1251 464 1249 b 574 1131 475 1165 513 1131 b 717 1239 640 1131 685 1163 b 742 1246 724 1250 728 1251 l 778 1232 b 786 1207 790 1228 792 1224 b 571 1060 746 1110 671 1060 m 378 -19 b 90 339 144 -19 51 117 l 201 963 b 232 986 206 982 215 986 l 279 986 b 301 957 301 986 304 978 l 192 333 b 385 75 164 172 226 75 b 681 339 553 75 651 175 l 790 963 b 822 986 794 983 807 986 l 871 986 b 892 957 890 986 894 978 l 782 333 b 378 -19 742 111 604 -19 "},"ŭ":{"ha":742,"x_min":0,"x_max":0,"o":"m 435 833 b 264 986 336 833 275 883 b 274 1010 261 1000 263 1007 l 310 1021 b 333 1007 322 1024 329 1021 b 438 904 339 936 375 904 b 581 1011 504 904 544 939 b 604 1019 586 1024 592 1025 l 643 1006 b 649 981 654 1001 656 996 b 435 833 603 886 533 833 m 271 -19 b 61 256 96 -19 32 85 l 139 692 b 168 714 142 710 153 714 l 213 714 b 232 686 231 714 236 706 l 156 251 b 286 67 133 128 171 67 b 447 96 357 67 413 81 b 479 138 468 106 475 117 l 576 692 b 604 714 579 708 589 714 l 649 714 b 671 686 669 714 674 706 l 567 100 b 510 24 560 58 550 42 b 271 -19 458 0 388 -19 "},"Ů":{"ha":928,"x_min":0,"x_max":0,"o":"m 569 1046 b 453 1176 492 1046 446 1097 b 604 1317 460 1258 522 1317 b 718 1186 679 1317 726 1265 b 569 1046 711 1104 650 1046 m 574 1094 b 669 1186 624 1094 663 1131 b 603 1267 676 1235 650 1267 b 503 1178 550 1267 510 1232 b 574 1094 496 1129 525 1094 m 378 -19 b 90 339 144 -19 51 117 l 201 963 b 232 986 206 982 215 986 l 279 986 b 301 957 301 986 304 978 l 192 333 b 385 75 164 172 226 75 b 681 339 553 75 651 175 l 790 963 b 822 986 794 983 807 986 l 871 986 b 892 957 890 986 894 978 l 782 333 b 378 -19 742 111 604 -19 "},"ů":{"ha":742,"x_min":0,"x_max":0,"o":"m 431 793 b 313 924 353 793 306 844 b 464 1064 321 1007 382 1064 b 579 933 539 1064 586 1013 b 431 793 571 851 511 793 m 435 843 b 529 933 485 843 524 879 b 463 1014 536 982 508 1014 b 364 926 411 1014 371 978 b 435 843 357 876 386 843 m 271 -19 b 61 256 96 -19 32 85 l 139 692 b 168 714 142 710 153 714 l 213 714 b 232 686 231 714 236 706 l 156 251 b 286 67 133 128 171 67 b 447 96 357 67 413 81 b 479 138 468 106 475 117 l 576 692 b 604 714 579 708 589 714 l 649 714 b 671 686 669 714 674 706 l 567 100 b 510 24 560 58 550 42 b 271 -19 458 0 388 -19 "},"Ű":{"ha":928,"x_min":0,"x_max":0,"o":"m 394 1065 b 388 1093 379 1071 378 1082 l 531 1243 b 567 1256 542 1257 550 1263 l 600 1243 b 606 1214 617 1236 618 1224 l 442 1068 b 410 1060 429 1058 421 1057 m 615 1067 b 607 1094 600 1072 597 1083 l 751 1242 b 789 1254 764 1256 772 1260 l 822 1242 b 828 1213 839 1235 842 1222 l 663 1069 b 632 1061 649 1060 640 1058 m 378 -19 b 90 339 144 -19 51 117 l 201 963 b 232 986 206 982 215 986 l 279 986 b 301 957 301 986 304 978 l 192 333 b 385 75 164 172 226 75 b 681 339 553 75 651 175 l 790 963 b 822 986 794 983 807 986 l 871 986 b 892 957 890 986 894 978 l 782 333 b 378 -19 742 111 604 -19 "},"ű":{"ha":742,"x_min":0,"x_max":0,"o":"m 264 831 b 256 858 249 836 246 847 l 399 1008 b 435 1021 410 1022 418 1026 l 468 1008 b 474 979 485 1001 488 989 l 311 833 b 279 825 297 824 290 821 m 483 831 b 476 858 468 836 467 847 l 618 1008 b 656 1021 631 1022 639 1026 l 689 1008 b 694 979 706 1001 707 989 l 531 833 b 500 825 518 824 510 821 m 271 -19 b 61 256 96 -19 32 85 l 139 692 b 168 714 142 710 153 714 l 213 714 b 232 686 231 714 236 706 l 156 251 b 286 67 133 128 171 67 b 447 96 357 67 413 81 b 479 138 468 106 475 117 l 576 692 b 604 714 579 708 589 714 l 649 714 b 671 686 669 714 674 706 l 567 100 b 510 24 560 58 550 42 b 271 -19 458 0 388 -19 "},"Ų":{"ha":928,"x_min":0,"x_max":0,"o":"m 426 -343 b 339 -264 381 -343 342 -322 b 500 4 333 -193 390 -97 b 375 -19 464 -12 419 -19 b 90 339 140 -19 53 121 l 201 963 b 233 986 206 982 215 986 l 281 986 b 301 957 300 986 304 978 l 192 333 b 385 75 164 172 225 75 b 681 339 554 75 651 175 l 790 963 b 819 986 794 983 807 986 l 869 986 b 892 957 889 986 894 978 l 782 333 b 625 51 760 211 708 117 b 424 -236 496 -51 418 -179 b 460 -271 425 -264 438 -271 b 532 -237 485 -271 511 -258 b 546 -247 539 -236 543 -240 l 556 -281 b 550 -299 557 -289 556 -293 b 426 -343 510 -332 458 -343 "},"ų":{"ha":743,"x_min":0,"x_max":0,"o":"m 378 -343 b 289 -265 333 -343 292 -324 b 446 8 286 -193 338 -99 b 268 -19 403 -8 346 -19 b 61 256 93 -19 32 86 l 138 690 b 167 714 142 708 149 714 l 213 714 b 232 686 231 714 235 706 l 156 251 b 285 67 132 128 169 67 b 446 96 356 67 411 81 b 478 138 469 107 475 119 l 576 692 b 606 714 579 710 590 714 l 650 714 b 669 686 667 714 674 706 l 567 100 b 542 36 563 74 556 51 b 374 -240 432 -79 368 -181 b 411 -271 376 -262 389 -271 b 483 -237 436 -271 460 -258 b 496 -247 489 -236 493 -239 l 506 -278 b 500 -299 507 -287 507 -293 b 378 -343 461 -332 413 -343 "},"Ŵ":{"ha":1221,"x_min":0,"x_max":0,"o":"m 522 1060 b 510 1083 500 1060 497 1074 l 694 1236 b 732 1253 710 1249 717 1253 l 754 1253 b 790 1235 772 1253 778 1250 l 921 1079 b 910 1060 929 1069 929 1060 l 869 1060 b 833 1076 849 1060 844 1064 l 739 1189 l 601 1072 b 560 1060 586 1060 579 1060 l 522 1060 m 238 0 b 207 26 219 0 207 7 l 133 963 b 154 986 132 981 135 986 l 211 986 b 240 958 233 986 239 979 l 285 290 b 283 143 288 247 288 196 l 289 143 b 346 296 306 199 328 250 l 636 949 b 674 971 646 969 654 971 l 717 971 b 749 943 738 971 749 963 l 806 288 b 808 143 808 240 810 192 l 814 143 b 865 293 828 197 847 247 l 1149 964 b 1181 986 1156 983 1158 986 l 1236 986 b 1253 956 1257 986 1260 975 l 850 21 b 815 0 843 1 833 0 l 763 0 b 731 26 743 0 732 7 l 675 696 b 672 829 672 738 671 783 l 668 829 b 615 690 654 785 633 733 l 324 21 b 288 0 315 1 307 0 l 238 0 "},"ŵ":{"ha":996,"x_min":0,"x_max":0,"o":"m 368 829 b 354 853 346 829 342 842 l 540 1006 b 576 1022 556 1018 561 1022 l 600 1022 b 636 1004 618 1022 622 1019 l 767 849 b 756 829 775 839 775 829 l 714 829 b 679 846 693 829 689 833 l 583 958 l 446 842 b 406 829 432 829 425 829 l 368 829 m 183 -4 b 156 22 165 -4 157 3 l 85 688 b 108 714 83 711 85 714 l 160 714 b 183 685 182 714 183 706 l 224 257 b 226 113 226 208 226 163 l 231 113 b 286 264 246 163 267 217 l 478 676 b 511 699 486 696 490 699 l 556 699 b 581 672 574 699 579 693 l 628 264 b 636 113 632 214 636 164 l 640 113 b 693 267 656 165 672 214 l 883 692 b 913 714 890 714 894 714 l 967 714 b 979 682 985 714 989 704 l 672 15 b 639 -4 665 -1 657 -4 l 599 -4 b 568 22 579 -4 568 4 l 522 474 b 515 589 518 513 517 550 l 513 589 b 465 468 499 549 483 508 l 258 15 b 225 -4 251 -3 243 -4 l 183 -4 "},"Ŷ":{"ha":851,"x_min":0,"x_max":0,"o":"m 336 1060 b 324 1083 314 1060 311 1074 l 508 1236 b 546 1253 524 1249 531 1253 l 568 1253 b 604 1235 586 1253 592 1250 l 735 1079 b 724 1060 743 1069 743 1060 l 683 1060 b 647 1076 663 1060 658 1064 l 553 1189 l 415 1072 b 374 1060 400 1060 393 1060 l 336 1060 m 311 0 b 293 31 292 0 289 10 l 358 401 l 124 961 b 139 986 118 976 119 986 l 196 986 b 236 960 226 986 231 979 l 426 499 l 779 964 b 828 986 793 985 797 986 l 882 986 b 896 956 901 986 906 971 l 461 400 l 393 25 b 363 0 389 4 382 0 l 311 0 "},"ŷ":{"ha":746,"x_min":0,"x_max":0,"o":"m 238 829 b 224 853 215 829 211 842 l 410 1006 b 446 1022 425 1018 431 1022 l 469 1022 b 506 1004 488 1022 492 1019 l 636 849 b 625 829 644 839 644 829 l 583 829 b 549 846 563 829 558 833 l 453 958 l 315 842 b 275 829 301 829 294 829 l 238 829 m 228 -343 b -1 -189 94 -343 28 -282 b 7 -154 -8 -172 -7 -162 l 49 -135 b 74 -142 58 -129 67 -128 b 226 -257 97 -207 129 -257 b 447 -46 356 -257 422 -179 l 464 36 b 268 -3 421 22 358 -3 b 64 274 97 -3 33 101 l 138 692 b 168 714 142 711 153 714 l 211 714 b 232 686 229 714 235 706 l 158 271 b 289 83 136 146 172 83 b 475 121 375 83 438 107 l 576 692 b 606 714 579 711 592 714 l 650 714 b 669 686 668 714 674 706 l 540 -46 b 228 -343 508 -226 418 -343 "},"Ÿ":{"ha":851,"x_min":0,"x_max":0,"o":"m 407 1100 b 365 1147 371 1100 360 1113 l 368 1158 b 419 1201 374 1193 383 1201 l 428 1201 b 468 1153 463 1201 474 1186 l 465 1142 b 415 1100 460 1107 449 1100 l 407 1100 m 661 1100 b 619 1147 625 1100 614 1113 l 621 1158 b 674 1201 628 1193 638 1201 l 682 1201 b 721 1153 717 1201 726 1186 l 719 1142 b 668 1100 714 1107 703 1100 l 661 1100 m 311 0 b 293 31 292 0 289 10 l 358 401 l 124 961 b 139 986 118 976 119 986 l 196 986 b 236 960 226 986 231 979 l 426 499 l 779 964 b 828 986 793 985 797 986 l 882 986 b 896 956 901 986 906 971 l 461 400 l 393 25 b 363 0 389 4 382 0 l 311 0 "},"Ź":{"ha":767,"x_min":0,"x_max":0,"o":"m 364 1082 b 368 1110 357 1092 360 1104 l 589 1249 b 631 1242 606 1258 619 1257 l 647 1217 b 643 1189 656 1207 654 1193 l 406 1060 b 375 1065 390 1053 382 1057 m 6 0 b -18 29 -18 0 -22 8 l -11 69 b 1 101 -8 82 -7 90 l 643 892 l 167 892 b 144 922 143 892 140 901 l 151 961 b 182 986 156 982 163 986 l 756 986 b 776 956 775 986 781 976 l 769 917 b 757 886 767 904 764 896 l 115 96 l 610 96 b 632 65 632 96 636 86 l 625 25 b 593 0 621 4 613 0 l 6 0 "},"ź":{"ha":610,"x_min":0,"x_max":0,"o":"m 256 857 b 260 886 249 868 250 881 l 481 1025 b 521 1018 497 1033 510 1033 l 539 993 b 535 964 546 982 546 968 l 297 836 b 267 840 281 829 272 832 m -3 0 b -22 28 -21 0 -25 10 l -15 64 b -4 90 -12 76 -12 81 l 449 629 l 114 629 b 96 657 96 629 92 638 l 101 692 b 132 714 106 711 115 714 l 556 714 b 576 686 575 714 579 706 l 569 651 b 556 621 568 638 564 632 l 101 86 l 453 86 b 472 57 471 86 476 76 l 467 22 b 440 0 464 7 457 0 l -3 0 "},"Ż":{"ha":767,"x_min":0,"x_max":0,"o":"m 494 1094 b 453 1146 457 1094 446 1108 l 456 1153 b 507 1197 461 1190 471 1197 l 514 1197 b 556 1147 550 1197 561 1183 l 554 1139 b 500 1094 547 1103 538 1094 l 494 1094 m 6 0 b -18 29 -18 0 -22 8 l -11 69 b 1 101 -8 82 -7 90 l 643 892 l 167 892 b 144 922 143 892 140 901 l 151 961 b 182 986 156 982 163 986 l 756 986 b 776 956 775 986 781 976 l 769 917 b 757 886 767 904 764 896 l 115 96 l 610 96 b 632 65 632 96 636 86 l 625 25 b 593 0 621 4 613 0 l 6 0 "},"ż":{"ha":610,"x_min":0,"x_max":0,"o":"m 361 881 b 326 932 328 881 318 892 l 328 946 b 375 993 336 983 344 993 l 408 993 b 443 940 440 993 450 976 l 440 926 b 393 881 433 888 425 881 l 361 881 m -3 0 b -22 28 -21 0 -25 10 l -15 64 b -4 90 -12 76 -12 81 l 449 629 l 114 629 b 96 657 96 629 92 638 l 101 692 b 132 714 106 711 115 714 l 556 714 b 576 686 575 714 579 706 l 569 651 b 556 621 568 638 564 632 l 101 86 l 453 86 b 472 57 471 86 476 76 l 467 22 b 440 0 464 7 457 0 l -3 0 "},"Ž":{"ha":767,"x_min":0,"x_max":0,"o":"m 483 1058 b 442 1082 463 1058 456 1065 l 315 1232 b 328 1251 306 1243 306 1251 l 367 1251 b 401 1238 388 1251 392 1250 l 497 1121 l 636 1239 b 674 1251 650 1251 654 1251 l 714 1251 b 726 1228 736 1251 739 1239 l 546 1079 b 497 1058 524 1061 518 1058 l 483 1058 m 6 0 b -18 29 -18 0 -22 8 l -11 69 b 1 101 -8 82 -7 90 l 643 892 l 167 892 b 144 922 143 892 140 901 l 151 961 b 182 986 156 982 163 986 l 756 986 b 776 956 775 986 781 976 l 769 917 b 757 886 767 904 764 896 l 115 96 l 610 96 b 632 65 632 96 636 86 l 625 25 b 593 0 621 4 613 0 l 6 0 "},"ž":{"ha":610,"x_min":0,"x_max":0,"o":"m 349 828 b 308 851 329 828 322 833 l 181 1001 b 193 1021 172 1011 171 1021 l 233 1021 b 268 1006 254 1021 258 1019 l 364 890 l 501 1008 b 539 1021 515 1021 519 1021 l 579 1021 b 592 997 601 1021 603 1007 l 411 849 b 363 828 389 831 385 828 l 349 828 m -3 0 b -22 28 -21 0 -25 10 l -15 64 b -4 90 -12 76 -12 81 l 449 629 l 114 629 b 96 657 96 629 92 638 l 101 692 b 132 714 106 711 115 714 l 556 714 b 576 686 575 714 579 706 l 569 651 b 556 621 568 638 564 632 l 101 86 l 453 86 b 472 57 471 86 476 76 l 467 22 b 440 0 464 7 457 0 l -3 0 "},"ſ":{"ha":343,"x_min":0,"x_max":0,"o":"m 92 0 b 72 28 72 0 69 10 l 178 626 l 81 626 b 58 654 63 626 54 633 l 65 692 b 96 714 68 711 79 714 l 193 714 l 200 754 b 494 1028 235 949 319 1028 b 518 999 515 1028 521 1018 l 511 963 b 489 939 508 943 504 939 b 294 747 365 939 319 889 l 165 22 b 135 0 163 3 153 0 l 92 0 "},"ƒ":{"ha":599,"x_min":0,"x_max":0,"o":"m -128 -306 b -153 -276 -150 -306 -156 -296 l -147 -240 b -124 -217 -143 -221 -139 -217 b 101 -12 4 -217 68 -135 l 226 453 l 72 453 b 50 481 54 453 49 463 l 57 518 b 82 540 61 538 64 540 l 253 540 l 308 747 b 631 1028 354 919 447 1028 b 656 999 651 1028 658 1018 l 649 963 b 625 939 644 943 642 939 b 403 736 497 939 436 858 l 350 540 l 513 540 b 533 513 531 540 538 532 l 528 475 b 503 453 524 456 521 453 l 324 453 l 194 -22 b -128 -306 150 -196 54 -306 "},"Ǻ":{"ha":871,"x_min":0,"x_max":0,"o":"m 471 1203 b 447 1208 457 1199 453 1201 l 438 1222 b 447 1247 431 1233 433 1240 l 661 1344 b 693 1340 678 1351 685 1351 l 711 1315 b 704 1296 718 1307 719 1301 l 471 1203 m -32 0 b -49 31 -53 0 -58 13 l 453 953 b 400 1061 414 968 393 1007 b 546 1179 408 1131 468 1179 b 664 1058 624 1179 668 1128 b 578 950 658 1007 626 965 l 753 25 b 733 0 756 7 753 0 l 686 0 b 644 28 656 0 647 8 l 599 286 l 199 286 l 58 22 b 13 0 50 1 42 0 l -32 0 m 519 976 b 615 1060 569 976 611 1006 b 543 1129 618 1100 589 1129 b 449 1054 489 1129 453 1097 b 519 976 443 1010 468 976 m 583 374 l 514 783 b 510 894 510 819 507 846 l 504 894 b 458 778 497 868 482 828 l 244 374 "},"ǻ":{"ha":657,"x_min":0,"x_max":0,"o":"m 310 1125 b 315 1146 304 1135 307 1143 l 533 1218 b 569 1208 549 1224 561 1221 l 583 1189 b 576 1168 589 1179 588 1169 l 344 1104 b 317 1111 329 1101 322 1104 m 403 800 b 285 931 325 800 278 851 b 435 1069 292 1013 353 1069 b 550 940 511 1069 557 1019 b 403 800 543 857 482 800 m 407 849 b 500 939 456 849 494 885 b 435 1021 507 989 481 1021 b 335 932 382 1021 342 985 b 407 849 328 883 358 849 m 260 -19 b 19 163 75 -19 19 54 b 321 411 19 342 136 411 b 489 396 394 411 463 401 b 506 504 501 463 504 482 b 367 650 513 594 469 650 b 181 554 278 650 224 613 b 150 543 169 540 164 538 l 115 560 b 108 597 99 568 96 579 b 382 735 171 686 251 735 b 599 500 540 735 614 646 b 531 97 589 424 576 358 b 467 17 522 49 508 35 b 260 -19 411 -7 343 -19 m 265 58 b 407 83 319 58 365 68 b 442 124 429 92 436 99 l 476 318 b 310 335 447 325 383 335 b 115 171 179 335 115 275 b 265 58 115 100 151 58 "},"Ǽ":{"ha":1135,"x_min":0,"x_max":0,"o":"m 781 1082 b 785 1110 774 1092 776 1104 l 1006 1249 b 1047 1242 1022 1258 1036 1257 l 1064 1217 b 1060 1189 1072 1207 1071 1193 l 822 1060 b 792 1065 807 1053 799 1057 m -51 0 b -69 29 -72 0 -78 13 l 643 964 b 681 986 657 982 661 986 l 1111 986 b 1131 956 1131 986 1133 976 l 1124 915 b 1094 892 1119 899 1113 892 l 746 892 l 685 546 l 972 546 b 993 515 993 546 997 536 l 986 476 b 957 451 983 458 976 451 l 668 451 l 606 94 l 967 94 b 989 64 989 94 993 85 l 982 25 b 953 0 979 10 974 0 l 519 0 b 494 31 499 0 492 10 l 532 242 l 207 242 l 47 22 b -3 0 35 4 29 0 l -51 0 m 547 326 l 639 826 l 274 326 "},"ǽ":{"ha":1053,"x_min":0,"x_max":0,"o":"m 467 857 b 471 886 460 868 461 881 l 692 1025 b 732 1018 708 1033 721 1033 l 750 993 b 746 964 757 982 757 968 l 508 836 b 478 840 492 829 483 832 m 235 -19 b 17 182 88 -19 10 46 b 314 413 22 340 124 413 b 456 397 374 413 429 401 b 471 492 463 443 468 469 b 358 656 483 585 475 656 b 171 553 272 656 221 618 b 140 549 161 540 156 540 l 113 563 b 104 593 96 571 94 578 b 363 735 163 682 242 735 b 535 613 476 735 519 683 b 757 735 581 689 651 735 b 986 550 904 735 989 664 b 697 299 982 371 851 299 b 526 322 638 299 583 307 l 511 231 b 632 51 492 119 518 51 b 843 181 726 51 796 103 b 871 185 850 193 863 190 l 906 167 b 911 135 921 158 919 149 b 628 -19 850 44 767 -19 b 454 69 540 -19 479 17 b 235 -19 408 25 343 -19 m 690 367 b 893 544 839 367 893 456 b 753 663 893 615 853 663 b 550 456 633 663 574 589 l 539 388 b 690 367 593 376 638 367 m 249 57 b 422 140 358 57 404 119 b 428 242 419 168 422 207 l 443 325 b 308 339 417 328 367 339 b 108 193 183 339 115 289 b 249 57 100 96 160 57 "},"Ǿ":{"ha":901,"x_min":0,"x_max":0,"o":"m 438 1096 b 442 1124 431 1106 433 1118 l 663 1263 b 704 1256 679 1272 693 1271 l 721 1231 b 717 1203 729 1221 728 1207 l 479 1074 b 449 1079 464 1067 456 1071 m 8 -58 b 0 -46 0 -58 -3 -50 l 107 89 b 68 333 64 149 51 232 l 126 660 b 533 1006 164 876 303 1006 b 749 939 629 1006 701 982 l 822 1036 b 840 1043 826 1042 831 1043 l 896 1043 b 903 1031 904 1043 907 1036 l 796 894 b 833 653 836 833 851 753 l 775 326 b 371 -19 738 108 599 -19 b 153 43 275 -19 200 4 l 83 -50 b 63 -58 76 -58 75 -58 l 8 -58 m 689 856 b 526 911 654 892 601 911 b 226 653 358 911 256 814 l 176 364 b 188 194 164 297 167 240 m 376 75 b 675 333 544 75 647 172 l 726 628 b 719 792 738 692 736 749 l 214 129 b 376 75 249 93 306 75 "},"ǿ":{"ha":729,"x_min":0,"x_max":0,"o":"m 310 835 b 314 863 303 846 306 858 l 536 1003 b 575 996 551 1011 565 1011 l 593 971 b 589 942 601 960 600 946 l 351 814 b 321 818 335 806 328 810 m 10 -50 b 6 -36 0 -50 1 -43 l 79 56 b 42 238 43 99 28 163 l 85 482 b 399 735 114 643 229 735 b 564 689 469 735 526 718 l 619 758 b 636 765 624 765 629 765 l 675 765 b 682 753 685 765 688 758 l 604 656 b 639 476 638 611 653 550 l 596 232 b 279 -19 568 74 450 -19 b 121 22 211 -19 158 -6 l 71 -42 b 51 -50 65 -49 61 -50 l 10 -50 m 510 613 b 392 649 482 636 440 649 b 178 476 279 649 197 582 b 140 264 165 400 151 329 b 154 151 129 204 138 172 m 288 65 b 503 238 401 65 485 133 l 539 440 b 529 558 550 506 544 533 l 174 100 b 288 65 200 78 239 65 "},"Ș":{"ha":850,"x_min":0,"x_max":0,"o":"m 346 -19 b 32 210 171 -19 68 50 b 44 253 24 236 24 246 l 94 269 b 124 250 111 274 118 269 b 357 76 153 128 229 76 b 631 271 518 76 615 146 b 419 451 650 407 549 433 b 126 721 249 476 107 529 b 492 1006 143 897 285 1006 b 807 789 665 1006 764 939 b 793 753 814 767 811 758 l 744 739 b 715 751 728 733 721 736 b 486 908 683 861 614 908 b 231 724 343 908 246 840 b 446 542 211 590 315 561 b 735 278 631 513 756 464 b 346 -19 717 88 576 -19 m 226 -353 b 211 -331 210 -353 206 -346 l 292 -131 b 325 -107 299 -111 304 -107 l 367 -107 b 389 -137 390 -107 399 -119 l 289 -332 b 257 -353 279 -350 275 -353 l 226 -353 "},"ș":{"ha":671,"x_min":0,"x_max":0,"o":"m 264 -19 b 14 150 128 -19 40 28 b 26 186 7 172 11 182 l 74 200 b 99 186 89 204 94 200 b 272 64 118 97 181 64 b 457 201 390 64 457 110 b 306 321 457 276 406 306 b 85 514 178 339 82 383 b 361 733 88 664 189 735 b 603 578 507 733 585 678 b 590 547 606 561 607 553 l 549 533 b 521 547 528 526 526 535 b 357 650 501 613 457 650 b 178 517 243 651 179 611 b 339 396 175 432 246 410 b 551 204 474 375 551 326 b 264 -19 551 58 443 -19 m 138 -346 b 122 -324 121 -346 117 -339 l 203 -124 b 236 -100 210 -104 215 -100 l 278 -100 b 300 -131 301 -100 310 -112 l 200 -325 b 168 -346 190 -343 186 -346 l 138 -346 "},"ț":{"ha":472,"x_min":0,"x_max":0,"o":"m 332 0 b 119 268 147 -4 83 61 l 182 626 l 76 626 b 56 656 58 626 50 633 l 63 692 b 92 714 65 711 75 714 l 197 714 l 222 858 b 253 881 225 878 236 881 l 296 881 b 317 853 315 881 319 872 l 292 714 l 453 714 b 474 686 472 714 476 706 l 468 651 b 439 626 464 632 456 626 l 276 626 l 213 267 b 343 90 185 117 225 90 b 363 65 360 90 365 82 l 356 24 b 332 0 351 4 347 0 m 108 -346 b 93 -324 92 -346 88 -339 l 174 -124 b 207 -100 181 -104 186 -100 l 249 -100 b 271 -131 272 -100 281 -112 l 171 -325 b 139 -346 161 -343 157 -346 l 108 -346 "},"ȷ":{"ha":310,"x_min":0,"x_max":0,"o":"m -172 -319 b -194 -290 -192 -319 -199 -310 l -189 -254 b -167 -231 -185 -235 -182 -231 b 19 -8 -25 -231 -6 -149 l 143 692 b 172 714 146 708 154 714 l 219 714 b 238 686 236 714 240 706 l 113 -18 b -172 -319 78 -212 39 -319 "},"ˆ":{"ha":529,"x_min":0,"x_max":0,"o":"m 126 814 b 114 838 106 814 101 826 l 299 990 b 336 1007 315 1003 321 1007 l 358 1007 b 394 989 376 1007 382 1004 l 526 832 b 514 814 535 824 535 814 l 474 814 b 439 831 453 814 449 818 l 343 943 l 206 826 b 165 814 192 814 183 814 l 126 814 "},"ˇ":{"ha":497,"x_min":0,"x_max":0,"o":"m 289 813 b 249 836 269 813 263 818 l 122 986 b 135 1006 113 996 111 1006 l 174 1006 b 208 990 194 1006 199 1003 l 304 875 l 442 993 b 481 1006 456 1006 460 1006 l 521 1006 b 533 982 542 1006 543 992 l 353 833 b 304 813 329 815 325 813 l 289 813 "},"˘":{"ha":403,"x_min":0,"x_max":0,"o":"m 257 818 b 88 969 158 818 103 868 b 97 994 83 985 86 990 l 133 1006 b 156 990 146 1008 151 1006 b 261 889 167 921 197 889 b 403 996 328 889 371 922 b 426 1004 410 1008 414 1008 l 465 990 b 471 965 476 986 478 981 b 257 818 431 868 357 818 "},"˙":{"ha":336,"x_min":0,"x_max":0,"o":"m 229 854 b 189 904 193 854 182 868 l 190 914 b 242 957 197 949 206 957 l 250 957 b 292 907 285 957 297 943 l 290 897 b 238 854 283 861 274 854 l 229 854 "},"˚":{"ha":353,"x_min":0,"x_max":0,"o":"m 235 767 b 117 897 157 767 110 818 b 267 1038 125 981 185 1038 b 382 907 343 1038 389 986 b 235 767 375 825 315 767 m 239 817 b 333 907 289 817 326 853 b 267 988 339 956 313 988 b 167 900 214 988 174 953 b 239 817 160 850 190 817 "},"˛":{"ha":386,"x_min":0,"x_max":0,"o":"m 42 -343 b -47 -264 -11 -343 -43 -317 b 125 0 -53 -190 13 -99 l 197 0 b 38 -236 97 -96 33 -186 b 74 -271 39 -261 51 -271 b 146 -239 96 -271 121 -261 b 160 -247 151 -236 157 -237 l 169 -281 b 158 -303 172 -290 169 -294 b 42 -343 124 -331 82 -343 "},"˜":{"ha":428,"x_min":0,"x_max":0,"o":"m 96 833 b 82 863 83 833 79 840 b 199 988 93 942 128 988 b 368 896 294 988 308 896 b 436 975 406 896 429 928 b 451 988 438 986 440 988 l 483 988 b 493 961 494 988 497 982 b 379 833 481 881 444 833 b 208 926 288 833 272 926 b 140 849 167 926 146 894 b 125 833 139 838 135 833 l 96 833 "},"˝":{"ha":553,"x_min":0,"x_max":0,"o":"m 169 818 b 161 844 154 824 153 833 l 304 996 b 342 1007 315 1008 325 1014 l 374 994 b 381 965 390 989 393 976 l 217 821 b 185 811 203 810 196 807 m 390 818 b 382 844 375 824 372 833 l 525 996 b 561 1007 536 1008 544 1014 l 594 994 b 600 965 611 989 614 976 l 438 821 b 406 811 424 810 417 807 "},"̀":{"ha":0,"x_min":0,"x_max":0,"o":"m -279 967 b -282 999 -293 974 -297 983 l -256 1024 b -211 1021 -237 1042 -225 1031 l -43 883 b -40 853 -31 875 -26 865 l -53 839 b -87 839 -61 831 -72 832 "},"́":{"ha":0,"x_min":0,"x_max":0,"o":"m -225 857 b -221 886 -232 868 -231 881 l 0 1025 b 40 1018 17 1033 29 1033 l 58 993 b 54 964 65 982 65 968 l -183 836 b -214 840 -200 829 -208 832 "},"̂":{"ha":0,"x_min":0,"x_max":0,"o":"m -399 829 b -412 853 -421 829 -425 842 l -226 1006 b -190 1022 -211 1018 -206 1022 l -167 1022 b -131 1004 -149 1022 -144 1019 l 0 849 b -11 829 8 839 8 829 l -53 829 b -87 846 -74 829 -78 833 l -183 958 l -321 842 b -361 829 -335 829 -342 829 l -399 829 "},"̃":{"ha":0,"x_min":0,"x_max":0,"o":"m -329 849 b -343 878 -342 849 -346 856 b -225 1004 -329 956 -296 1004 b -56 911 -131 1004 -117 911 b 11 990 -19 911 10 943 b 26 1004 14 1001 17 1004 l 58 1004 b 69 976 69 1004 72 997 b -46 849 61 894 19 849 b -217 942 -137 849 -153 942 b -285 864 -258 942 -275 907 b -300 849 -286 853 -289 849 l -329 849 "},"̄":{"ha":0,"x_min":0,"x_max":0,"o":"m -347 886 b -369 913 -367 886 -372 894 l -365 935 b -333 956 -362 953 -350 956 l -29 956 b -7 928 -10 956 -3 947 l -11 907 b -37 886 -14 890 -24 886 l -347 886 "},"̆":{"ha":0,"x_min":0,"x_max":0,"o":"m -143 833 b -314 986 -242 833 -303 883 b -304 1010 -317 1000 -315 1007 l -268 1021 b -244 1007 -256 1024 -249 1021 b -140 904 -239 936 -203 904 b 3 1011 -74 904 -33 939 b 26 1019 8 1024 14 1025 l 65 1006 b 71 981 76 1001 78 996 b -143 833 25 886 -44 833 "},"̇":{"ha":0,"x_min":0,"x_max":0,"o":"m -114 881 b -149 932 -147 881 -157 892 l -147 946 b -100 993 -139 983 -131 993 l -67 993 b -32 940 -35 993 -25 976 l -35 926 b -82 881 -42 888 -50 881 l -114 881 "},"̈":{"ha":0,"x_min":0,"x_max":0,"o":"m -382 874 b -422 925 -418 874 -431 888 l -421 933 b -368 979 -414 971 -404 979 l -360 979 b -318 928 -324 979 -311 964 l -319 918 b -374 874 -326 882 -337 874 l -382 874 m -135 874 b -176 925 -171 874 -183 888 l -175 933 b -121 979 -168 971 -157 979 l -112 979 b -71 928 -76 979 -65 964 l -74 918 b -126 874 -81 882 -90 874 l -135 874 "},"̊":{"ha":0,"x_min":0,"x_max":0,"o":"m -114 793 b -232 924 -192 793 -239 844 b -81 1064 -224 1007 -162 1064 b 35 933 -6 1064 42 1013 b -114 793 26 851 -33 793 m -110 843 b -15 933 -60 843 -21 879 b -82 1014 -8 982 -36 1014 b -181 926 -133 1014 -174 978 b -110 843 -187 876 -158 843 "},"̋":{"ha":0,"x_min":0,"x_max":0,"o":"m -381 831 b -389 858 -396 836 -399 847 l -246 1008 b -210 1021 -235 1022 -226 1026 l -176 1008 b -171 979 -160 1001 -157 989 l -333 833 b -365 825 -347 824 -354 821 m -161 831 b -168 858 -176 836 -178 847 l -26 1008 b 11 1021 -14 1022 -6 1026 l 44 1008 b 50 979 61 1001 63 989 l -114 833 b -144 825 -126 824 -135 821 "},"̌":{"ha":0,"x_min":0,"x_max":0,"o":"m -206 828 b -246 851 -225 828 -232 833 l -374 1001 b -361 1021 -382 1011 -383 1021 l -321 1021 b -286 1006 -300 1021 -296 1019 l -190 890 l -53 1008 b -15 1021 -39 1021 -35 1021 l 25 1021 b 38 997 47 1021 49 1007 l -143 849 b -192 828 -165 831 -169 828 l -206 828 "},"̧":{"ha":0,"x_min":0,"x_max":0,"o":"m -329 -339 b -428 -308 -379 -339 -411 -321 b -439 -286 -437 -303 -442 -299 l -436 -261 b -422 -253 -435 -253 -429 -250 b -337 -282 -401 -267 -376 -282 b -240 -204 -282 -282 -243 -258 b -296 -147 -237 -169 -258 -150 b -340 -151 -311 -147 -326 -149 b -356 -126 -357 -153 -362 -139 l -289 0 l -226 0 l -279 -100 b -236 -100 -267 -99 -250 -97 b -157 -200 -182 -106 -153 -144 b -329 -339 -160 -296 -233 -339 "},"̨":{"ha":0,"x_min":0,"x_max":0,"o":"m -344 -343 b -433 -264 -397 -343 -429 -317 b -261 0 -439 -190 -374 -99 l -189 0 b -349 -236 -289 -96 -353 -186 b -312 -271 -347 -261 -335 -271 b -240 -239 -290 -271 -265 -261 b -226 -247 -235 -236 -229 -237 l -217 -281 b -228 -303 -214 -290 -217 -294 b -344 -343 -262 -331 -304 -343 "},"π":{"ha":838,"x_min":0,"x_max":0,"o":"m 676 -1 b 642 13 658 -10 650 -6 b 601 207 608 76 601 128 l 601 628 l 294 628 l 294 25 b 271 0 294 7 289 0 l 224 0 b 200 25 206 0 200 7 l 200 628 b 81 589 151 626 126 617 b 47 600 65 582 57 582 l 31 635 b 43 668 24 651 26 660 b 233 714 104 704 154 714 l 768 714 b 792 689 786 714 792 708 l 792 653 b 768 628 792 635 786 628 l 696 628 l 696 203 b 728 53 696 136 700 101 b 717 15 736 35 733 24 l 676 -1 "},"Ё":{"ha":776,"x_min":0,"x_max":0,"o":"m 388 1100 b 346 1147 351 1100 340 1113 l 349 1158 b 400 1201 354 1193 364 1201 l 408 1201 b 449 1153 443 1201 454 1186 l 446 1142 b 396 1100 440 1107 429 1100 l 388 1100 m 642 1100 b 600 1147 606 1100 594 1113 l 601 1158 b 654 1201 608 1193 618 1201 l 663 1201 b 701 1153 697 1201 707 1186 l 700 1142 b 649 1100 694 1107 683 1100 l 642 1100 m 65 0 b 44 29 46 0 40 8 l 208 961 b 242 986 213 982 222 986 l 750 986 b 772 956 774 986 775 976 l 765 917 b 738 892 761 897 754 892 l 297 892 l 238 547 l 615 547 b 638 519 635 547 640 540 l 629 478 b 601 453 626 458 618 453 l 221 453 l 158 94 l 607 94 b 631 67 629 94 635 88 l 624 25 b 596 0 619 6 611 0 l 65 0 "},"А":{"ha":871,"x_min":0,"x_max":0,"o":"m -33 0 b -49 31 -53 0 -58 13 l 458 969 b 494 990 469 989 475 990 l 546 990 b 575 965 564 990 572 982 l 751 25 b 733 0 756 7 753 0 l 683 0 b 644 28 656 0 646 8 l 597 286 l 200 286 l 58 22 b 14 0 49 1 42 0 l -33 0 m 583 374 l 515 775 b 508 894 510 814 507 843 l 504 894 b 453 768 493 864 478 821 l 244 374 "},"Б":{"ha":853,"x_min":0,"x_max":0,"o":"m 63 0 b 44 29 43 0 40 11 l 208 961 b 240 986 213 982 222 986 l 783 986 b 806 957 807 986 810 976 l 799 915 b 772 892 796 896 788 892 l 297 892 l 240 565 l 503 565 b 757 339 678 565 760 492 b 408 0 751 140 625 0 l 63 0 m 418 94 b 656 328 578 94 653 204 b 483 476 657 428 604 476 l 225 476 l 157 94 "},"В":{"ha":874,"x_min":0,"x_max":0,"o":"m 67 0 b 44 31 42 0 42 10 l 208 961 b 236 986 213 979 219 986 l 565 986 b 807 779 726 986 807 913 b 639 511 807 656 754 560 l 638 507 b 758 324 710 481 758 424 b 424 0 758 131 629 0 l 67 0 m 504 546 b 704 753 628 546 703 632 b 550 892 708 844 658 892 l 299 892 l 238 546 m 422 94 b 660 322 567 94 660 190 b 508 458 660 411 604 458 l 222 458 l 157 94 "},"Г":{"ha":692,"x_min":0,"x_max":0,"o":"m 64 0 b 44 31 44 0 40 10 l 208 961 b 238 986 213 979 219 986 l 714 986 b 733 956 733 986 738 976 l 726 917 b 700 892 724 897 717 892 l 297 892 l 144 25 b 114 0 140 4 132 0 l 64 0 "},"Д":{"ha":957,"x_min":0,"x_max":0,"o":"m -61 -212 b -81 -182 -81 -212 -83 -203 l -36 69 b -6 94 -32 90 -24 94 l 39 94 b 274 679 106 140 196 235 l 324 961 b 354 986 326 978 333 986 l 869 986 b 890 956 890 986 893 976 l 739 94 l 814 94 b 836 64 836 94 840 86 l 792 -186 b 764 -212 789 -204 781 -212 l 714 -212 b 693 -183 693 -212 689 -204 l 725 0 l 51 0 l 18 -187 b -11 -212 15 -208 6 -212 l -61 -212 m 636 94 l 776 892 l 410 892 l 372 672 b 161 94 301 276 231 163 "},"Е":{"ha":776,"x_min":0,"x_max":0,"o":"m 65 0 b 44 29 46 0 40 8 l 208 961 b 242 986 213 982 222 986 l 750 986 b 772 956 774 986 775 976 l 765 917 b 738 892 761 897 754 892 l 297 892 l 238 547 l 615 547 b 638 519 635 547 640 540 l 629 478 b 601 453 626 458 618 453 l 221 453 l 158 94 l 607 94 b 631 67 629 94 635 88 l 624 25 b 596 0 619 6 611 0 l 65 0 "},"Ж":{"ha":1239,"x_min":0,"x_max":0,"o":"m -11 0 b -25 31 -33 0 -35 15 l 199 374 b 353 515 244 443 290 490 l 156 961 b 169 986 149 976 150 986 l 235 986 b 269 960 258 986 263 979 l 449 543 b 503 547 465 546 483 547 l 578 547 l 651 961 b 681 986 656 981 664 986 l 732 986 b 753 957 751 986 756 978 l 679 547 l 765 547 b 818 543 783 547 801 546 l 1147 964 b 1192 986 1161 982 1168 986 l 1254 986 b 1267 957 1274 986 1278 971 l 908 511 b 1011 369 961 488 990 439 l 1113 26 b 1096 0 1117 10 1118 0 l 1043 0 b 1006 26 1015 0 1011 6 l 917 336 b 764 453 890 422 864 453 l 664 453 l 588 25 b 560 0 583 4 576 0 l 506 0 b 488 31 488 0 483 11 l 561 453 l 482 453 b 286 331 389 453 342 417 l 89 22 b 46 0 76 3 69 0 l -11 0 "},"З":{"ha":842,"x_min":0,"x_max":0,"o":"m 351 -19 b 26 229 138 -19 51 72 b 43 260 22 249 28 256 l 92 275 b 121 256 108 281 117 274 b 360 75 135 139 200 75 b 626 315 532 75 626 171 b 482 457 626 400 583 457 l 276 457 b 254 488 256 457 251 469 l 261 525 b 289 550 264 546 271 550 l 485 550 b 676 765 603 550 676 650 b 493 911 676 858 610 911 b 214 731 343 911 269 856 b 179 721 207 714 197 714 l 140 733 b 128 774 122 740 119 751 b 499 1006 194 928 296 1006 b 779 785 672 1006 779 924 b 615 506 779 653 721 554 b 726 328 690 479 726 413 b 351 -19 726 111 585 -19 "},"И":{"ha":943,"x_min":0,"x_max":0,"o":"m 65 0 b 46 29 46 0 43 10 l 208 961 b 239 986 213 979 218 986 l 289 986 b 310 956 310 986 313 976 l 218 428 b 153 138 199 325 183 240 l 158 138 b 338 401 219 233 272 315 l 789 974 b 818 986 794 982 803 986 l 874 986 b 897 958 896 986 900 978 l 735 25 b 706 0 731 8 724 0 l 653 0 b 633 29 635 0 629 8 l 729 572 b 794 849 746 665 765 753 l 789 849 b 618 600 729 754 678 678 l 154 13 b 126 0 144 0 139 0 l 65 0 "},"Й":{"ha":908,"x_min":0,"x_max":0,"o":"m 563 1092 b 379 1244 456 1092 397 1142 b 390 1268 375 1260 378 1265 l 429 1279 b 453 1265 443 1282 449 1279 b 567 1163 465 1194 499 1163 b 719 1271 638 1163 685 1196 b 746 1278 726 1282 732 1283 l 786 1264 b 793 1239 800 1260 801 1256 b 563 1092 749 1142 669 1092 m 65 0 b 46 29 46 0 43 10 l 208 961 b 239 986 213 979 218 986 l 289 986 b 310 956 310 986 313 976 l 218 428 b 153 138 199 325 183 240 l 158 138 b 338 401 219 233 272 315 l 789 974 b 818 986 794 982 803 986 l 874 986 b 897 958 896 986 900 978 l 735 25 b 706 0 731 8 724 0 l 653 0 b 633 29 635 0 629 8 l 729 572 b 794 849 746 665 765 753 l 789 849 b 618 600 729 754 678 678 l 154 13 b 126 0 144 0 139 0 l 65 0 "},"К":{"ha":826,"x_min":0,"x_max":0,"o":"m 67 0 b 44 31 46 0 40 7 l 208 963 b 238 986 213 982 222 986 l 289 986 b 310 957 308 986 313 978 l 236 547 l 365 547 b 390 546 374 547 383 547 l 733 965 b 781 986 749 985 754 986 l 839 986 b 851 957 860 986 861 971 l 485 524 b 599 369 547 503 576 450 l 697 26 b 681 0 701 10 701 0 l 624 0 b 590 26 599 0 594 7 l 506 336 b 367 453 482 422 457 453 l 221 453 l 144 24 b 117 0 140 4 131 0 l 67 0 "},"Л":{"ha":888,"x_min":0,"x_max":0,"o":"m 1 -18 b -33 0 -21 -26 -26 -17 l -50 38 b -42 74 -57 54 -57 65 b 232 640 78 133 149 176 l 289 961 b 322 986 293 982 303 986 l 824 986 b 844 956 843 986 847 976 l 679 25 b 647 0 676 6 667 0 l 597 0 b 578 31 578 0 575 10 l 731 892 l 375 892 l 329 633 b 1 -18 240 122 140 46 "},"М":{"ha":1092,"x_min":0,"x_max":0,"o":"m 65 0 b 44 29 44 0 40 8 l 208 961 b 240 986 213 982 221 986 l 283 986 b 315 961 306 986 310 978 l 518 343 l 938 965 b 976 986 950 983 957 986 l 1028 986 b 1049 956 1047 986 1051 976 l 883 26 b 851 0 879 6 874 0 l 810 0 b 786 29 793 0 782 3 l 886 594 b 944 836 900 669 915 743 l 940 836 b 807 619 893 753 854 689 l 551 251 b 519 232 542 236 535 232 l 488 232 b 458 256 471 232 464 239 l 331 629 b 274 836 307 697 289 754 l 268 836 b 239 589 263 743 253 668 l 140 25 b 110 0 135 4 128 0 l 65 0 "},"Н":{"ha":926,"x_min":0,"x_max":0,"o":"m 67 0 b 44 31 47 0 40 4 l 208 960 b 239 986 213 981 221 986 l 286 986 b 310 957 310 986 313 978 l 238 547 l 708 547 l 781 961 b 814 986 785 982 794 986 l 861 986 b 882 957 882 986 886 978 l 719 29 b 690 0 715 8 710 0 l 640 0 b 617 29 619 0 613 7 l 692 453 l 221 453 l 144 25 b 118 0 142 10 138 0 l 67 0 "},"О":{"ha":901,"x_min":0,"x_max":0,"o":"m 368 -19 b 68 333 133 -19 31 115 l 126 660 b 533 1006 164 876 301 1006 b 833 653 761 1006 871 872 l 775 326 b 368 -19 738 108 597 -19 m 375 75 b 675 333 540 75 646 168 l 732 660 b 526 911 760 822 686 911 b 226 653 358 911 256 814 l 169 328 b 375 75 142 168 213 75 "},"П":{"ha":918,"x_min":0,"x_max":0,"o":"m 64 0 b 44 31 44 0 40 10 l 208 961 b 240 986 213 982 221 986 l 854 986 b 874 956 874 986 876 976 l 710 25 b 678 0 706 4 697 0 l 628 0 b 608 31 608 0 606 10 l 760 892 l 297 892 l 144 25 b 114 0 140 4 133 0 l 64 0 "},"Р":{"ha":844,"x_min":0,"x_max":0,"o":"m 67 0 b 44 29 43 0 42 8 l 208 963 b 242 986 213 981 219 986 l 560 986 b 818 696 742 986 836 882 b 474 369 800 494 668 369 l 206 369 l 146 26 b 117 0 142 7 135 0 l 67 0 m 469 465 b 717 688 607 465 699 546 b 547 892 733 819 672 892 l 297 892 l 224 465 "},"С":{"ha":864,"x_min":0,"x_max":0,"o":"m 365 -19 b 68 333 135 -19 29 115 l 126 660 b 529 1006 164 876 301 1006 b 838 761 729 1006 814 919 b 821 732 842 744 838 736 l 772 718 b 742 739 754 713 747 719 b 524 911 728 854 664 911 b 228 656 353 911 256 814 l 168 325 b 375 76 142 167 213 76 b 654 263 522 75 597 143 b 690 272 663 278 672 279 l 733 257 b 746 217 750 250 757 240 b 365 -19 674 64 561 -19 "},"Т":{"ha":738,"x_min":0,"x_max":0,"o":"m 258 0 b 236 29 236 0 233 10 l 388 892 l 135 892 b 113 922 114 892 107 899 l 119 961 b 151 986 124 982 132 986 l 763 986 b 783 956 783 986 788 978 l 776 915 b 746 892 772 894 765 892 l 490 892 l 338 24 b 308 0 333 6 325 0 l 258 0 "},"У":{"ha":801,"x_min":0,"x_max":0,"o":"m 158 0 b 146 29 139 0 135 14 l 310 282 l 113 961 b 128 986 108 976 108 986 l 176 986 b 219 960 204 986 215 983 l 381 392 l 746 964 b 788 986 757 985 764 986 l 839 986 b 853 956 860 986 861 972 l 260 22 b 214 0 249 1 242 0 l 158 0 "},"Ф":{"ha":1124,"x_min":0,"x_max":0,"o":"m 451 -29 b 433 1 432 -29 429 -18 l 449 90 l 369 90 b 81 446 142 90 43 226 l 100 553 b 510 903 139 774 275 903 l 592 903 l 608 996 b 642 1021 613 1017 622 1021 l 689 1021 b 708 990 710 1021 713 1011 l 693 903 l 771 903 b 1064 547 1014 903 1101 767 l 1046 440 b 629 90 1008 221 860 90 l 550 90 l 533 -4 b 501 -29 529 -25 521 -29 l 451 -29 m 464 182 l 576 811 l 496 811 b 201 550 328 811 228 713 l 182 436 b 389 182 154 274 221 182 m 647 182 b 944 443 811 182 915 281 l 964 557 b 758 811 992 719 933 811 l 678 811 l 565 182 "},"Х":{"ha":833,"x_min":0,"x_max":0,"o":"m -32 0 b -42 32 -53 0 -54 15 l 351 503 l 135 963 b 149 986 131 976 132 986 l 214 986 b 251 960 239 986 244 982 l 429 582 l 743 965 b 783 986 757 986 763 986 l 851 986 b 865 957 871 986 875 971 l 483 504 l 708 28 b 688 0 715 11 710 0 l 629 0 b 593 26 606 0 600 6 l 404 425 l 79 22 b 35 0 67 4 54 0 l -32 0 "},"Ц":{"ha":947,"x_min":0,"x_max":0,"o":"m 703 -212 b 681 -185 682 -212 676 -206 l 713 0 l 64 0 b 44 31 43 0 40 10 l 208 961 b 240 986 213 982 221 986 l 289 986 b 310 956 310 986 313 976 l 157 94 l 624 94 l 776 961 b 808 986 781 982 790 986 l 857 986 b 878 956 878 986 881 976 l 725 94 l 800 94 b 824 64 819 94 828 85 l 779 -186 b 747 -212 776 -206 768 -212 l 703 -212 "},"Ч":{"ha":854,"x_min":0,"x_max":0,"o":"m 564 0 b 543 31 544 0 539 8 l 607 399 b 382 371 568 389 493 371 b 113 714 142 371 74 497 l 156 961 b 186 986 160 982 169 986 l 238 986 b 257 956 257 986 260 976 l 213 708 b 397 467 185 543 232 467 b 625 497 507 467 589 488 l 707 961 b 738 986 711 982 721 986 l 786 986 b 808 957 806 986 811 978 l 644 28 b 613 0 640 7 635 0 l 564 0 "},"Ш":{"ha":1246,"x_min":0,"x_max":0,"o":"m 64 0 b 44 31 44 0 40 10 l 208 961 b 240 986 213 982 222 986 l 288 986 b 310 956 308 986 313 976 l 158 94 l 503 94 l 656 961 b 689 986 660 982 669 986 l 738 986 b 757 956 757 986 760 976 l 604 94 l 949 94 l 1101 961 b 1133 986 1106 982 1115 986 l 1182 986 b 1203 956 1203 986 1206 976 l 1039 25 b 1010 0 1035 7 1026 0 l 64 0 "},"Щ":{"ha":1281,"x_min":0,"x_max":0,"o":"m 1033 -212 b 1011 -185 1014 -212 1007 -206 l 1044 0 l 69 0 b 46 28 50 0 43 7 l 211 961 b 243 986 215 982 225 986 l 292 986 b 313 956 311 986 315 976 l 161 94 l 508 94 l 660 961 b 692 986 664 982 675 986 l 742 986 b 761 956 761 986 764 976 l 608 94 l 956 94 l 1107 961 b 1139 986 1111 982 1121 986 l 1188 986 b 1208 956 1208 986 1211 976 l 1057 94 l 1131 94 b 1154 64 1150 94 1158 85 l 1110 -187 b 1079 -212 1107 -206 1099 -212 l 1033 -212 "},"Ъ":{"ha":988,"x_min":0,"x_max":0,"o":"m 192 0 b 172 31 169 0 169 13 l 324 892 l 133 892 b 111 921 113 892 108 900 l 118 961 b 151 986 122 982 131 986 l 418 986 b 438 956 439 986 440 974 l 378 617 l 606 617 b 886 374 796 617 886 531 b 535 0 886 163 753 0 l 192 0 m 533 94 b 785 360 692 94 785 213 b 588 521 785 471 721 521 l 361 521 l 286 94 "},"Ы":{"ha":1176,"x_min":0,"x_max":0,"o":"m 63 0 b 44 31 42 0 40 13 l 208 961 b 240 986 213 982 221 986 l 289 986 b 310 956 311 986 313 974 l 249 617 l 476 617 b 758 374 667 617 758 531 b 407 0 758 163 625 0 l 63 0 m 888 0 b 867 29 868 0 863 7 l 1032 963 b 1063 986 1035 983 1047 986 l 1110 986 b 1132 957 1129 986 1136 979 l 967 24 b 940 0 964 7 956 0 l 888 0 m 406 94 b 656 360 564 94 656 213 b 460 521 656 471 592 521 l 232 521 l 157 94 "},"Ь":{"ha":844,"x_min":0,"x_max":0,"o":"m 63 0 b 44 31 42 0 40 13 l 208 961 b 240 986 213 982 222 986 l 289 986 b 310 956 311 986 313 974 l 249 617 l 476 617 b 758 374 668 617 758 531 b 407 0 758 163 625 0 l 63 0 m 406 94 b 656 360 564 94 656 213 b 458 521 657 471 590 521 l 232 521 l 157 94 "},"Э":{"ha":869,"x_min":0,"x_max":0,"o":"m 336 -19 b 31 224 136 -19 46 65 b 49 256 28 240 32 250 l 97 269 b 128 251 114 275 124 272 b 342 75 142 136 197 75 b 642 331 511 75 614 172 l 664 451 l 296 451 b 272 482 275 451 269 461 l 279 522 b 308 546 283 543 289 546 l 681 546 l 700 661 b 493 910 728 819 650 910 b 210 724 340 910 264 843 b 175 714 201 706 193 707 l 136 729 b 124 768 119 735 113 744 b 501 1006 194 918 304 1006 b 800 654 729 1006 839 871 l 743 326 b 336 -19 704 111 564 -19 "},"Ю":{"ha":1257,"x_min":0,"x_max":0,"o":"m 717 -19 b 418 333 485 -19 382 113 l 439 453 l 221 453 l 144 25 b 114 0 140 4 133 0 l 63 0 b 44 31 43 0 40 10 l 208 961 b 239 986 213 982 221 986 l 289 986 b 310 956 308 986 313 975 l 238 547 l 456 547 l 476 660 b 882 1006 515 881 657 1006 b 1183 653 1115 1006 1221 871 l 1125 326 b 717 -19 1088 106 946 -19 m 725 75 b 1025 333 890 75 996 168 l 1082 660 b 876 911 1110 821 1039 911 b 576 653 707 911 606 814 l 519 326 b 725 75 490 165 565 75 "},"Я":{"ha":872,"x_min":0,"x_max":0,"o":"m 3 0 b -11 31 -17 0 -24 13 l 178 333 b 288 443 208 381 242 421 b 125 669 189 467 122 554 b 468 986 128 868 239 986 l 808 986 b 829 956 831 986 831 974 l 664 26 b 635 0 661 7 654 0 l 583 0 b 563 31 563 0 560 11 l 631 413 l 454 413 b 265 290 365 413 318 378 l 100 22 b 54 0 88 1 79 0 l 3 0 m 647 508 l 714 892 l 465 892 b 228 675 299 892 229 806 b 382 508 226 586 282 508 "},"а":{"ha":692,"x_min":0,"x_max":0,"o":"m 260 -19 b 19 163 75 -19 19 54 b 321 411 19 342 136 411 b 489 396 394 411 463 401 b 506 504 501 463 504 482 b 367 650 513 594 469 650 b 181 554 278 650 224 613 b 150 543 169 540 164 538 l 115 560 b 108 597 99 568 96 579 b 382 735 171 686 251 735 b 599 500 540 735 614 646 b 531 97 589 424 576 358 b 467 17 522 49 508 35 b 260 -19 411 -7 343 -19 m 265 58 b 407 83 319 58 365 68 b 442 124 429 92 436 99 l 476 318 b 310 335 447 325 383 335 b 115 171 179 335 115 275 b 265 58 115 100 151 58 "},"б":{"ha":747,"x_min":0,"x_max":0,"o":"m 299 -19 b 61 254 108 -19 31 86 l 124 604 b 535 1017 175 896 276 1017 l 578 1017 b 686 1036 621 1017 661 1024 b 713 1018 701 1042 708 1038 l 721 983 b 704 950 724 964 721 957 b 575 928 672 936 628 928 l 528 928 b 214 621 339 928 257 849 l 208 594 b 446 703 246 633 332 703 b 653 429 619 703 681 597 l 621 249 b 299 -19 590 79 482 -19 m 306 65 b 528 256 433 65 507 139 l 558 432 b 411 617 579 551 538 617 b 194 474 292 617 222 532 l 154 249 b 306 65 135 132 188 65 "},"в":{"ha":719,"x_min":0,"x_max":0,"o":"m 294 -19 b 85 19 215 -19 132 -6 b 43 106 46 38 35 57 l 132 606 b 204 696 142 656 157 675 b 410 735 261 721 339 735 b 640 543 575 735 653 667 b 510 371 632 460 581 394 b 607 200 579 349 618 294 b 294 -19 592 58 482 -19 m 401 400 b 553 533 488 400 543 451 b 401 661 565 621 511 661 b 261 633 347 661 299 651 b 219 578 235 621 224 606 l 188 400 m 300 50 b 518 206 425 50 507 104 b 394 336 529 293 482 336 l 176 336 l 139 131 b 163 74 133 97 136 85 b 300 50 194 58 253 50 "},"г":{"ha":696,"x_min":0,"x_max":0,"o":"m 263 -19 b 36 153 114 -19 35 40 b 324 390 39 318 146 371 b 533 550 454 404 533 429 b 394 657 535 622 483 657 b 185 535 293 657 238 617 b 157 529 176 525 169 521 l 124 547 b 118 581 108 557 110 567 b 406 733 176 676 265 733 b 619 560 543 733 621 671 b 344 326 619 389 513 346 b 122 161 213 313 122 278 b 268 57 122 88 176 57 b 492 186 375 57 449 101 b 522 194 500 200 508 200 l 558 179 b 561 142 574 171 569 156 b 263 -19 504 31 406 -19 "},"д":{"ha":764,"x_min":0,"x_max":0,"o":"m 292 -19 b 50 253 100 -19 21 85 l 82 433 b 386 696 113 601 211 696 b 590 575 494 696 571 646 b 276 951 639 869 542 949 b 254 976 257 953 251 960 l 260 1011 b 281 1029 264 1026 267 1029 b 671 557 631 1029 731 894 l 615 247 b 292 -19 586 78 472 -19 m 296 61 b 524 251 421 61 503 128 l 557 435 b 400 621 578 553 511 621 b 174 429 268 621 194 547 l 142 247 b 296 61 121 129 172 61 "},"е":{"ha":688,"x_min":0,"x_max":0,"o":"m 397 735 b 633 528 558 735 647 661 b 335 299 619 378 510 299 b 147 310 264 299 207 303 l 133 232 b 272 51 113 117 158 51 b 488 181 375 51 443 106 b 517 185 494 192 504 192 l 549 168 b 556 135 565 158 564 149 b 267 -19 496 44 414 -19 b 40 228 92 -19 24 76 b 76 447 46 282 56 339 b 397 735 108 631 214 735 m 539 524 b 392 663 551 619 496 663 b 172 454 276 663 196 592 l 158 378 b 321 367 215 369 268 367 b 539 524 446 367 526 418 "},"ж":{"ha":1000,"x_min":0,"x_max":0,"o":"m -29 0 b -37 33 -49 0 -50 13 l 122 283 b 229 386 156 335 186 369 l 90 688 b 108 714 82 707 83 714 l 147 714 b 190 692 174 714 183 711 l 318 410 l 342 410 l 429 410 l 479 693 b 508 714 483 713 492 714 l 553 714 b 571 685 571 714 575 706 l 524 410 l 608 410 l 633 410 l 861 697 b 896 714 874 715 879 714 l 950 714 b 963 682 975 714 978 701 l 714 381 b 782 276 747 364 767 331 l 851 25 b 833 0 856 7 857 0 l 788 0 b 754 26 760 0 760 7 l 696 242 b 601 322 681 299 661 322 l 507 322 l 454 22 b 425 0 450 4 442 0 l 381 0 b 361 31 361 0 358 10 l 414 322 l 322 322 b 196 236 260 322 231 293 l 63 19 b 25 0 51 0 46 0 l -29 0 "},"з":{"ha":693,"x_min":0,"x_max":0,"o":"m 274 -19 b 10 175 72 -19 19 115 b 26 207 7 193 8 203 l 64 217 b 90 204 81 221 86 219 b 274 63 101 164 125 63 b 475 226 397 63 475 125 b 361 325 475 290 442 325 l 238 325 b 221 354 219 325 218 338 l 226 381 b 250 403 231 400 235 403 l 368 403 b 521 542 458 403 521 463 b 379 651 521 607 475 651 b 160 518 229 651 172 542 b 129 507 150 501 142 501 l 96 519 b 85 557 76 526 78 539 b 383 735 104 600 188 735 b 611 558 533 735 611 668 b 479 369 611 471 564 400 l 479 365 b 567 225 536 347 567 296 b 274 -19 567 67 447 -19 "},"и":{"ha":742,"x_min":0,"x_max":0,"o":"m 271 -19 b 61 256 96 -19 32 85 l 139 692 b 168 714 142 710 153 714 l 213 714 b 232 686 231 714 236 706 l 156 251 b 286 67 133 128 171 67 b 447 96 357 67 413 81 b 479 138 468 106 475 117 l 576 692 b 604 714 579 708 589 714 l 649 714 b 671 686 669 714 674 706 l 567 100 b 510 24 560 58 550 42 b 271 -19 458 0 388 -19 "},"й":{"ha":742,"x_min":0,"x_max":0,"o":"m 431 810 b 261 961 332 810 276 860 b 271 986 257 976 260 982 l 307 997 b 329 982 319 1000 325 997 b 435 881 340 913 371 881 b 576 988 501 881 544 914 b 600 996 583 1000 588 1000 l 639 982 b 644 957 650 978 651 972 b 431 810 604 860 531 810 m 271 -19 b 61 256 96 -19 32 85 l 139 692 b 168 714 142 710 153 714 l 213 714 b 232 686 231 714 236 706 l 156 251 b 286 67 133 128 171 67 b 447 96 357 67 413 81 b 479 138 468 106 475 117 l 576 692 b 604 714 579 708 589 714 l 649 714 b 671 686 669 714 674 706 l 567 100 b 510 24 560 58 550 42 b 271 -19 458 0 388 -19 "},"к":{"ha":700,"x_min":0,"x_max":0,"o":"m 47 0 b 29 29 29 0 25 10 l 146 692 b 175 714 149 711 160 714 l 221 714 b 239 686 238 714 243 706 l 190 410 l 315 410 l 335 410 l 574 697 b 617 714 588 715 593 714 l 664 714 b 676 683 686 714 690 700 l 421 390 b 500 278 464 375 483 338 l 567 26 b 547 0 571 7 571 0 l 503 0 b 469 25 478 0 475 7 l 415 242 b 321 322 399 303 375 322 l 175 322 l 122 24 b 92 0 118 4 110 0 l 47 0 "},"л":{"ha":726,"x_min":0,"x_max":0,"o":"m -8 -18 b -35 -6 -24 -25 -31 -17 l -54 39 b -47 68 -60 51 -60 61 b 149 456 18 99 90 132 l 190 692 b 218 714 193 708 203 714 l 632 714 b 651 686 650 714 654 704 l 533 24 b 507 0 529 4 521 0 l 458 0 b 440 28 442 0 438 10 l 546 626 l 271 626 l 239 444 b -8 -18 175 93 83 24 "},"м":{"ha":882,"x_min":0,"x_max":0,"o":"m 47 0 b 28 29 29 0 25 8 l 144 690 b 174 714 149 710 158 714 l 225 714 b 253 690 243 714 250 707 l 396 243 l 696 694 b 732 714 707 711 713 714 l 786 714 b 804 683 806 714 808 704 l 688 24 b 661 0 685 6 675 0 l 619 0 b 599 29 601 0 596 8 l 665 406 b 710 581 675 457 688 518 l 706 581 b 618 439 674 524 647 482 l 426 160 b 394 143 417 144 413 143 l 369 143 b 344 165 353 143 349 149 l 250 438 b 208 581 235 485 224 524 l 203 581 b 182 392 203 515 194 457 l 117 24 b 89 0 113 3 101 0 l 47 0 "},"н":{"ha":754,"x_min":0,"x_max":0,"o":"m 46 0 b 28 26 31 0 25 8 l 144 692 b 175 714 149 711 160 714 l 219 714 b 239 686 236 714 242 706 l 189 410 l 535 410 l 585 690 b 614 714 588 708 594 714 l 660 714 b 679 686 676 714 682 706 l 561 24 b 532 0 557 6 549 0 l 486 0 b 468 28 469 0 464 10 l 519 322 l 174 322 l 121 22 b 94 0 118 6 107 0 l 46 0 "},"о":{"ha":729,"x_min":0,"x_max":0,"o":"m 278 -19 b 42 238 103 -19 14 81 l 85 482 b 399 735 114 646 226 735 b 639 476 575 735 667 631 l 596 232 b 278 -19 568 72 450 -19 m 286 65 b 503 238 403 65 485 132 l 546 482 b 392 649 565 588 501 649 b 178 476 276 649 197 582 l 135 232 b 286 65 117 128 179 65 "},"п":{"ha":742,"x_min":0,"x_max":0,"o":"m 43 0 b 25 28 28 0 22 8 l 128 614 b 188 689 135 656 150 672 b 421 735 242 711 321 735 b 633 460 599 735 664 636 l 556 22 b 526 0 553 7 546 0 l 481 0 b 463 28 465 0 460 8 l 539 463 b 408 649 560 583 521 649 b 250 618 340 649 283 633 b 217 581 226 608 221 597 l 118 22 b 90 0 115 7 107 0 l 43 0 "},"р":{"ha":729,"x_min":0,"x_max":0,"o":"m -10 -306 b -29 -278 -28 -306 -32 -296 l 128 613 b 182 689 136 658 144 671 b 407 735 231 711 315 735 b 633 447 603 735 667 632 l 599 249 b 304 -19 569 83 472 -19 b 119 26 215 -19 147 11 l 64 -283 b 38 -306 63 -296 53 -306 l -10 -306 m 301 67 b 506 257 422 67 485 136 l 540 451 b 396 649 564 585 519 649 b 249 621 335 649 279 635 b 217 579 225 610 221 604 l 135 113 b 301 67 161 96 225 67 "},"с":{"ha":696,"x_min":0,"x_max":0,"o":"m 275 -19 b 43 256 92 -19 13 81 l 81 465 b 389 735 111 639 214 735 b 632 539 544 735 619 663 b 614 510 635 521 631 517 l 575 499 b 547 517 558 493 551 499 b 390 650 535 610 493 650 b 174 461 268 650 194 581 l 136 249 b 282 64 115 133 163 64 b 482 200 389 64 435 115 b 519 219 494 224 499 225 l 561 207 b 567 161 576 201 578 188 b 275 -19 506 39 419 -19 "},"т":{"ha":1132,"x_min":0,"x_max":0,"o":"m 44 0 b 25 28 28 0 21 10 l 128 614 b 188 690 135 653 149 672 b 406 735 238 714 314 735 b 578 671 490 735 549 711 b 815 735 631 699 699 735 b 1022 465 989 735 1053 639 l 944 22 b 913 0 940 3 932 0 l 871 0 b 851 28 853 0 847 8 l 928 467 b 801 649 950 589 913 649 b 618 593 711 649 661 619 b 614 475 625 563 622 522 l 535 22 b 504 0 531 6 521 0 l 460 0 b 440 28 442 0 439 11 l 521 478 b 392 649 542 600 500 649 b 246 619 328 649 285 638 b 217 578 224 608 219 596 l 118 22 b 86 0 114 3 104 0 l 44 0 "},"у":{"ha":746,"x_min":0,"x_max":0,"o":"m 228 -343 b -1 -189 94 -343 28 -282 b 7 -154 -8 -172 -7 -162 l 49 -135 b 74 -142 58 -129 67 -128 b 226 -257 97 -207 129 -257 b 447 -46 356 -257 422 -179 l 464 36 b 268 -3 421 22 358 -3 b 64 274 97 -3 33 101 l 138 692 b 168 714 142 711 153 714 l 211 714 b 232 686 229 714 235 706 l 158 271 b 289 83 136 146 172 83 b 475 121 375 83 438 107 l 576 692 b 606 714 579 711 592 714 l 650 714 b 669 686 668 714 674 706 l 540 -46 b 228 -343 508 -226 418 -343 "},"ф":{"ha":1003,"x_min":0,"x_max":0,"o":"m 340 -306 b 319 -279 322 -306 317 -299 l 367 -14 b 275 -19 335 -17 306 -19 b 44 271 122 -19 6 47 l 75 442 b 393 735 117 672 240 735 b 496 726 431 735 465 731 l 544 1006 b 574 1028 547 1021 556 1028 l 619 1028 b 639 999 636 1028 642 1019 l 590 728 b 682 735 621 732 651 735 b 910 449 828 735 947 665 l 878 265 b 557 -19 840 44 700 -19 b 461 -12 519 -19 490 -17 l 413 -283 b 385 -306 410 -299 400 -306 l 340 -306 m 289 67 b 381 72 319 67 349 68 l 482 642 b 390 649 449 646 419 649 b 169 438 296 649 197 610 l 138 261 b 289 67 110 99 200 67 m 565 67 b 785 271 650 67 754 100 l 817 453 b 668 649 846 617 758 649 b 576 642 636 649 607 646 l 475 72 b 565 67 501 68 533 67 "},"х":{"ha":656,"x_min":0,"x_max":0,"o":"m -22 0 b -37 31 -47 0 -53 13 l 243 367 l 92 688 b 110 714 85 706 85 714 l 154 714 b 192 690 178 714 188 708 l 315 433 l 531 696 b 569 714 543 714 544 714 l 619 714 b 635 683 642 714 647 701 l 371 368 l 528 26 b 513 0 535 7 536 0 l 463 0 b 426 24 439 0 433 6 l 299 301 l 67 19 b 25 0 54 0 49 0 l -22 0 "},"ц":{"ha":768,"x_min":0,"x_max":0,"o":"m 561 -193 b 544 -167 546 -193 542 -181 l 567 -39 b 515 19 574 3 564 26 b 278 -19 446 10 389 -19 b 63 257 88 -19 32 85 l 139 692 b 167 714 142 707 150 714 l 215 714 b 233 686 232 714 236 704 l 158 257 b 290 65 135 129 168 65 b 479 101 371 65 426 88 l 582 690 b 608 714 585 706 592 714 l 658 714 b 678 690 674 714 681 706 l 575 106 b 665 15 635 108 681 99 l 635 -171 b 608 -193 632 -185 622 -193 l 561 -193 "},"ч":{"ha":688,"x_min":0,"x_max":0,"o":"m 419 0 b 400 26 403 0 397 8 l 446 286 b 274 258 415 276 353 258 b 69 518 100 258 39 342 l 101 692 b 131 714 104 710 114 714 l 176 714 b 194 686 193 714 197 706 l 164 514 b 296 346 142 393 178 346 b 463 376 367 346 422 361 l 519 693 b 546 714 522 710 531 714 l 593 714 b 613 686 611 714 615 706 l 494 22 b 468 0 490 7 483 0 l 419 0 "},"ш":{"ha":1104,"x_min":0,"x_max":0,"o":"m 261 -19 b 63 254 97 -19 31 78 l 140 692 b 167 714 143 707 151 714 l 217 714 b 235 690 232 714 238 704 l 157 250 b 279 65 135 126 168 65 b 456 117 367 65 431 101 b 453 244 446 143 443 190 l 532 692 b 557 714 533 707 543 714 l 606 714 b 626 686 624 714 629 706 l 549 247 b 674 65 526 122 563 65 b 808 93 729 65 772 76 b 843 147 836 104 839 126 l 939 692 b 965 714 942 708 950 714 l 1015 714 b 1035 690 1029 714 1036 704 l 931 104 b 871 19 924 63 915 40 b 656 -19 821 -4 744 -19 b 496 38 586 -19 529 0 b 261 -19 461 19 378 -19 "},"щ":{"ha":1125,"x_min":0,"x_max":0,"o":"m 919 -193 b 901 -168 904 -193 899 -182 l 924 -37 b 875 21 931 -3 924 26 b 661 -19 813 13 754 -19 b 496 38 586 -19 533 -1 b 264 -19 464 21 381 -19 b 61 253 90 -19 31 81 l 139 692 b 167 714 142 706 149 714 l 215 714 b 235 690 231 714 238 706 l 156 250 b 275 65 133 118 174 65 b 456 115 363 65 426 99 b 454 246 444 147 443 190 l 532 693 b 557 714 535 708 544 714 l 607 714 b 626 690 622 714 629 706 l 547 246 b 671 65 524 118 565 65 b 835 100 738 65 775 85 l 939 693 b 967 714 942 707 951 714 l 1014 714 b 1033 690 1028 714 1038 706 l 929 104 b 1025 19 986 108 1038 97 l 992 -172 b 967 -193 989 -187 979 -193 l 919 -193 "},"ъ":{"ha":822,"x_min":0,"x_max":0,"o":"m 394 -19 b 197 22 311 -19 238 3 b 154 99 156 43 146 54 l 249 635 l 78 635 b 60 658 64 635 57 643 l 67 697 b 90 714 69 713 78 714 l 336 714 b 354 692 350 714 356 704 l 313 454 b 513 496 375 479 440 496 b 721 271 653 496 736 415 b 394 -19 703 76 586 -19 m 408 61 b 628 263 540 61 613 132 b 492 422 642 364 594 422 b 299 378 419 422 357 403 l 256 136 b 276 88 250 110 251 99 b 408 61 304 74 350 61 "},"ы":{"ha":958,"x_min":0,"x_max":0,"o":"m 274 -19 b 76 22 192 -19 118 3 b 33 99 36 43 25 54 l 139 692 b 164 714 142 707 150 714 l 217 714 b 233 692 231 714 236 704 l 192 454 b 392 496 254 479 321 496 b 600 271 533 496 615 415 b 274 -19 583 76 467 -19 m 692 0 b 675 28 678 0 672 10 l 792 692 b 819 714 796 711 807 714 l 868 714 b 886 686 883 714 889 707 l 768 24 b 740 0 764 4 754 0 l 692 0 m 288 61 b 507 263 421 61 492 132 b 372 422 521 364 471 422 b 179 378 300 422 236 403 l 136 136 b 157 88 131 110 133 99 b 288 61 185 74 229 61 "}}}
